<svg width="4053" height="1681" viewBox="0 0 4053 1681" fill="none" xmlns="http://www.w3.org/2000/svg">
<path d="M653.038 621.775L1699.41 373.004L3881.06 278.707L3122.85 928.813L110.388 1573.03L653.038 621.775Z" fill="white"/>
<path d="M1717.75 645.661C1752.42 686.904 1792.07 729.829 1836.72 774.435L1836.34 781.091C1820.25 786.443 1801.18 791.287 1779.13 795.622L1771.83 792.644C1729.57 744.616 1691.72 698.313 1658.27 653.736L1661.69 710.032L1670.73 799.479L1611.42 804.007L1608.06 719.429L1589.82 521.106L1650.01 516.511L1657.84 648.026L1729.4 537.844L1743.57 509.367L1807.71 504.471L1717.75 645.661ZM1991.31 687.075C2013.1 713.984 2033.31 737.48 2051.93 757.562L2051.96 763.745C2034.22 770.696 2016.62 775.428 1999.14 777.941L1990.83 773.273C1972.26 746.118 1957.74 723.808 1947.27 706.344L1913.45 708.927L1913.48 709.366L1921.11 780.363L1865.76 784.589L1862.93 718.528L1848.83 562.748L1944.56 554.998C1969.45 553.097 1989.08 557.49 2003.44 568.176C2018.08 578.546 2026.22 594.421 2027.85 615.799C2028.9 629.564 2026.22 642.729 2019.82 655.295C2013.39 667.569 2003.89 678.162 1991.31 687.075ZM1911.11 666.688L1944.19 665.93C1953.9 661.948 1960.86 656.703 1965.08 650.195C1969.3 643.688 1971.04 635.602 1970.3 625.937C1969.49 615.394 1965.83 607.868 1959.3 603.359C1952.74 598.557 1942.85 596.367 1929.63 596.787L1907.29 599.376L1911.11 666.688ZM2285.46 752.545L2229.67 756.805L2221.08 725.206L2216.15 712.769L2171.31 715.75L2131.84 719.647L2129.47 729.107L2125.56 764.753L2071.53 768.879L2132.35 541.102L2197.8 536.105L2285.46 752.545ZM2201.1 671.942L2169.59 589.071L2166.08 589.339L2143.12 676.369L2171.7 674.628L2201.1 671.942ZM2494.97 626.971L2497.11 660.83C2499.33 685.993 2492.47 706.106 2476.54 721.167C2460.87 735.913 2437.37 744.482 2406.04 746.875C2375.58 749.2 2351.78 744.242 2334.65 732C2317.49 719.465 2308.39 700.572 2307.34 675.319L2305.13 640.582L2295.26 528.664L2350.61 524.438L2358.57 663.454C2359.38 677.826 2363.55 688.112 2371.09 694.311C2378.93 700.488 2390.17 703.018 2404.81 701.9C2419.75 700.759 2430.47 696.553 2436.99 689.281C2443.77 681.693 2446.48 670.882 2445.11 656.847L2432.32 518.2L2488.11 513.94L2494.97 626.971ZM2686.35 606.616C2702.16 609.238 2714.05 614.516 2722.02 622.45C2730.26 630.069 2734.91 640.76 2735.96 654.525C2737.66 676.782 2729.68 693.886 2712.04 705.838C2694.39 717.789 2667.41 725.152 2631.1 727.924C2614.99 729.154 2592.25 730.301 2562.87 731.365L2560.04 665.305L2545.94 509.525L2635.08 502.277C2659.68 500.399 2679.23 503.767 2693.73 512.38C2708.53 520.971 2716.62 534.346 2718 552.503C2718.9 564.217 2716.61 574.702 2711.13 583.957C2705.65 593.213 2697.39 600.766 2686.35 606.616ZM2661.03 564.364C2660.33 555.286 2656.63 549.235 2649.92 546.213C2643.5 543.168 2632.39 542.249 2616.57 543.457L2602.95 544.496L2606.07 596.839L2638.2 595.269C2646.54 592.571 2652.59 588.868 2656.35 584.163C2660.1 579.164 2661.65 572.564 2661.03 564.364ZM2637.81 688.529C2651.87 687.456 2662.38 684.297 2669.34 679.052C2676.58 673.492 2679.82 665.88 2679.09 656.216C2678.55 649.187 2675.64 643.813 2670.34 640.093C2665.05 636.373 2657.19 633.733 2646.76 632.172L2608.61 635.969L2609.72 656.21L2613.11 689.089C2622.55 689.252 2630.78 689.066 2637.81 688.529ZM2938.82 657.594L2942.61 660.84L2941.8 702.435L2789.81 714.039L2786.98 647.978L2772.87 492.199L2927.06 480.427L2930.47 484.585L2930.08 525.707L2872.8 527.871L2831.51 531.023L2834.05 575.898L2873.62 573.318L2911.74 569.083L2915.12 572.802L2914.79 614.802L2872.96 616.671L2836.5 619.454L2837.53 638.816L2840.56 666.864L2879.21 663.912L2938.82 657.594Z" fill="#2D3342"/>
<path d="M3205.11 531.662C3235.27 571.776 3269.36 613.211 3307.39 655.966L3306.81 665.731C3276.57 674.814 3247.64 681.736 3220.02 686.496L3209.96 681.962C3176.17 632.992 3148.4 591.37 3126.63 557.095L3128.67 595.38L3139.23 687.362L3050.93 694.103L3048.95 610.303L3029.23 409.884L3118.85 403.042L3124.83 521.884L3172.59 429.868L3185.18 397.978L3278.31 390.867L3205.11 531.662ZM3403.89 436.069C3439.03 433.386 3466.86 440.982 3487.37 458.857C3508.17 476.71 3519.93 503.355 3522.63 538.791C3525.63 578.034 3517.27 609.307 3497.54 632.611C3478.09 655.599 3449.03 668.569 3410.38 671.521C3375.23 674.204 3347.25 666.472 3326.42 648.327C3305.86 629.866 3294.22 602.771 3291.49 567.042C3288.54 528.385 3296.81 497.708 3316.28 475.012C3336.03 452.002 3365.23 439.02 3403.89 436.069ZM3401.35 501.214C3393.15 501.84 3387.09 503.481 3383.17 506.137C3379.52 508.478 3377.06 512.937 3375.79 519.514C3374.82 526.069 3374.85 536.082 3375.88 549.553C3377.29 568.003 3379.2 581.554 3381.63 590.206C3384.06 598.857 3387.59 604.626 3392.23 607.512C3396.87 610.398 3403.88 611.484 3413.25 610.768C3421.74 610.12 3427.81 608.625 3431.46 606.284C3435.38 603.628 3437.84 599.17 3438.84 592.908C3439.81 586.353 3439.78 576.34 3438.75 562.869C3437.32 544.126 3435.39 530.428 3432.96 521.777C3430.83 513.103 3427.3 507.334 3422.36 504.47C3417.73 501.584 3410.72 500.499 3401.35 501.214ZM3653.06 420.138C3688.5 417.432 3716.28 424.443 3736.41 441.169C3756.81 457.58 3768.29 482.625 3770.86 516.304C3773.95 556.718 3765.19 588.611 3744.59 611.982C3723.99 635.352 3692.89 648.625 3651.31 651.8C3630.22 653.41 3599.38 654.587 3558.79 655.329L3557.74 589.574L3541.58 429.975L3653.06 420.138ZM3662.09 590.444C3671.46 589.729 3678.23 585.824 3682.4 578.731C3686.87 571.615 3688.46 559.71 3687.19 543.017C3685.96 526.91 3683.98 514.542 3681.26 505.913C3678.83 497.261 3675.14 491.357 3670.19 488.201C3665.5 484.729 3659.06 483.306 3650.86 483.932C3644.71 484.402 3636.84 485.445 3627.24 487.061L3631.35 575.559L3632.83 589.143C3647.06 590.413 3656.82 590.847 3662.09 590.444ZM3976.65 558.474L3981.45 563.41L3981.14 623.083L3806.74 636.398L3805.7 570.642L3789.54 411.044L3967.01 397.494L3971.84 402.869L3971.54 462.542L3912.03 464.434L3875.13 467.251L3876.17 486.613L3911.31 483.93L3949.43 479.695L3954.26 485.07L3953.95 544.743L3910.8 546.712L3879.17 549.126L3879.3 556.628L3880.61 568.016L3915.32 565.366L3976.65 558.474Z" fill="#8798C3"/>
<path d="M1777.08 923.744L1764.93 924.671L1742.47 871.611L1741.45 871.689L1726.28 927.622L1714.13 928.55L1677.1 836.993L1688.81 836.098L1691.12 845.052L1719.43 915.04L1720.46 914.962L1736.3 856.327L1726.58 833.215L1738.59 832.298L1741.56 842.232L1770.08 911.173L1770.96 911.106L1791 838.015L1792.46 828.185L1803.59 827.336L1777.08 923.744ZM1833.83 896.441L1835.87 919.255L1825.04 920.082L1823.8 898.09L1819.47 847.179L1830.45 846.341L1833.83 896.441ZM1901.53 841.797L1901.5 851.076L1887.81 851.091L1880.49 851.649L1883.18 892.673L1885.37 915.476L1874.39 916.314L1873.15 894.322L1869.66 852.476L1862.34 853.035L1848.51 855.122L1847.55 854.164L1847.74 845.021L1900.88 840.964L1901.53 841.797ZM1983.68 885L1985.72 907.814L1974.89 908.641L1973.65 886.649L1972.74 876.706L1933.08 879.881L1933.62 888.822L1935.65 911.637L1924.82 912.464L1923.58 890.472L1919.26 839.561L1930.24 838.722L1932.33 870.073L1952.11 868.71L1972.01 867.044L1969.32 835.738L1980.3 834.9L1983.68 885ZM2074.8 892.768L2074.69 901.022L2035.9 903.984L2034.66 881.991L2030.33 831.08L2041.31 830.242L2044.69 880.342L2046.02 893.934L2074.13 891.788L2074.8 892.768ZM2109.28 824.169C2119.92 823.357 2128.31 825.858 2134.45 831.671C2140.68 837.478 2144.24 846.09 2145.11 857.509C2146.05 869.903 2143.71 879.751 2138.09 887.052C2132.55 894.248 2124.12 898.278 2112.8 899.143C2102.26 899.948 2093.87 897.398 2087.63 891.494C2081.38 885.492 2077.8 876.587 2076.9 864.778C2075.97 852.676 2078.34 843.121 2083.99 836.113C2089.63 829.007 2098.06 825.026 2109.28 824.169ZM2108.96 833.47C2101.25 834.058 2095.66 836.694 2092.19 841.376C2088.82 846.051 2087.49 853.122 2088.22 862.589C2088.99 872.739 2091.41 879.965 2095.47 884.269C2099.53 888.573 2105.36 890.434 2112.97 889.853C2120.78 889.257 2126.42 886.569 2129.88 881.789C2133.34 877.009 2134.71 869.837 2133.98 860.273C2133.23 850.416 2130.77 843.339 2126.62 839.043C2122.56 834.739 2116.67 832.881 2108.96 833.47ZM2194.7 891.859L2181.67 892.854L2150.64 821.895L2161.91 821.035L2164.28 828.952L2187.29 881.529L2188.02 881.473L2204.86 826.295L2205.97 817.67L2216.95 816.832L2194.7 891.859ZM2282.41 875.739L2283.35 876.55L2282.98 885.119L2238.62 888.506L2237.38 866.514L2233.05 815.603L2277.7 812.194L2278.5 813.016L2278.27 821.574L2259.78 822.397L2244.57 823.706L2246.11 845.822L2260.61 844.862L2273.32 843.45L2274.13 844.419L2273.91 853.123L2260.41 853.712L2246.8 854.898L2247.42 864.864L2248.63 878.76L2262.98 877.811L2282.41 875.739ZM2331.62 817.06L2333.3 841.079L2345.9 840.264L2358.75 838.842L2359.56 839.811L2359.47 848.211L2345.55 849.126L2333.85 850.167L2334.46 858.218L2336.5 881.033L2325.67 881.86L2324.28 859.879L2320.1 808.957L2362.55 805.716L2363.21 806.549L2362.98 815.107L2344.93 815.896L2331.62 817.06ZM2405.93 801.521C2416.57 800.709 2424.95 803.209 2431.09 809.023C2437.33 814.83 2440.88 823.442 2441.75 834.861C2442.7 847.255 2440.36 857.103 2434.73 864.404C2429.19 871.6 2420.76 875.63 2409.44 876.495C2398.9 877.299 2390.51 874.75 2384.27 868.846C2378.02 862.844 2374.44 853.939 2373.54 842.13C2372.62 830.028 2374.98 820.473 2380.63 813.465C2386.27 806.359 2394.7 802.378 2405.93 801.521ZM2405.61 810.822C2397.9 811.41 2392.31 814.046 2388.84 818.728C2385.46 823.403 2384.14 830.474 2384.86 839.94C2385.63 850.09 2388.05 857.317 2392.11 861.621C2396.17 865.925 2402 867.786 2409.62 867.205C2417.42 866.609 2423.06 863.921 2426.52 859.141C2429.99 854.361 2431.35 847.189 2430.62 837.624C2429.87 827.767 2427.42 820.691 2423.26 816.394C2419.2 812.091 2413.32 810.233 2405.61 810.822ZM2495.63 839.287C2502.28 847.909 2509.55 856.336 2517.44 864.568L2517.41 866.043C2513.4 867.625 2510.09 868.614 2507.47 869.01L2505.48 867.984C2497.21 857.327 2490.92 848.923 2486.62 842.773L2472.87 843.97L2473.15 847.63L2475.19 870.444L2464.36 871.271L2463.12 849.279L2458.79 798.368L2483.66 796.322C2491.37 795.733 2497.42 797.088 2501.79 800.386C2506.26 803.677 2508.76 808.738 2509.28 815.569C2509.66 820.547 2508.64 825.091 2506.2 829.204C2503.86 833.309 2500.34 836.67 2495.63 839.287ZM2472.33 834.882L2486.12 834.271C2494.62 831.168 2498.56 825.517 2497.93 817.319C2497.6 813.025 2496.09 809.901 2493.39 807.948C2490.69 805.995 2486.74 805.118 2481.55 805.318L2470.29 806.325L2472.33 834.882ZM2587.88 766.72C2597.74 765.967 2606.46 767.658 2614.04 771.791L2612.51 782.656L2611.22 783.05C2604.26 778.084 2596.54 775.925 2588.05 776.573C2578.77 777.281 2571.9 781.045 2567.41 787.867C2562.92 794.59 2561.14 804.101 2562.08 816.397C2563.03 828.792 2566.24 838.069 2571.71 844.227C2577.19 850.386 2584.47 853.119 2593.54 852.426C2597.84 852.098 2602.02 850.993 2606.1 849.112C2610.27 847.222 2614.01 844.728 2617.31 841.63L2618.83 842.25L2618.65 853.454C2610.52 858.787 2602.06 861.789 2593.28 862.459C2580.69 863.42 2570.62 860.115 2563.07 852.544C2555.52 844.875 2551.16 833.477 2550.01 818.35C2548.82 802.832 2551.52 790.601 2558.1 781.657C2564.68 772.712 2574.61 767.733 2587.88 766.72ZM2675.8 846.882L2675.7 855.136L2636.9 858.098L2635.66 836.105L2631.34 785.195L2642.32 784.356L2645.7 834.456L2647.03 848.048L2675.14 845.902L2675.8 846.882ZM2749.18 849.526L2738.2 850.364L2735.84 842.593L2731.21 832.051L2713.77 833.234L2698.27 834.565L2695.1 845.115L2693.7 853.762L2682.86 854.589L2705.4 779.54L2717.99 778.579L2749.18 849.526ZM2727.45 823.355L2712.66 789.735L2711.78 789.802L2701.1 825.367L2713.99 824.53L2727.45 823.355ZM2818.19 808.182L2818.99 818.722C2819.72 827.01 2817.68 833.645 2812.86 838.627C2808.13 843.601 2800.99 846.454 2791.42 847.184C2781.96 847.907 2774.56 846.213 2769.24 842.104C2763.92 837.897 2761.03 831.59 2760.58 823.182L2759.88 812.045L2756.95 775.604L2767.93 774.766L2770.84 820.631C2771.21 826.787 2773.08 831.307 2776.44 834.192C2779.9 837.069 2784.8 838.266 2791.15 837.781C2797.39 837.304 2802.01 835.381 2804.99 832.013C2807.97 828.644 2809.18 823.889 2808.61 817.748L2804.67 771.961L2815.8 771.111L2818.19 808.182ZM2868.14 766.526C2879.26 765.677 2887.98 768.005 2894.29 773.511C2900.7 779.01 2904.33 787.322 2905.18 798.448C2906.15 811.233 2903.68 821.287 2897.76 828.611C2891.84 835.934 2882.88 840.054 2870.88 840.97C2867.46 841.231 2863.36 841.447 2858.56 841.616C2853.87 841.877 2849.41 842.069 2845.2 842.194L2843.97 820.202L2839.64 769.291L2868.14 766.526ZM2871.95 831.906C2879.76 831.31 2885.58 828.51 2889.42 823.505C2893.35 818.395 2894.95 811.058 2894.22 801.493C2893.5 792.124 2890.98 785.348 2886.63 781.164C2882.29 776.98 2876.06 775.198 2867.96 775.816C2863.18 776.181 2857.59 776.805 2851.17 777.687L2854 818.553L2855.2 832.302C2858.04 832.281 2861.03 832.249 2864.17 832.206C2867.31 832.163 2869.9 832.063 2871.95 831.906ZM2971.91 823.097L2972.85 823.908L2972.48 832.477L2928.12 835.864L2926.88 813.871L2922.55 762.961L2967.2 759.552L2968 760.374L2967.77 768.932L2949.28 769.755L2934.07 771.063L2935.61 793.18L2950.11 792.22L2962.82 790.808L2963.63 791.777L2963.41 800.481L2949.91 801.07L2936.3 802.256L2936.92 812.222L2938.13 826.118L2952.48 825.169L2971.91 823.097Z" fill="#2D3342"/>
<path d="M1733.34 974.346C1737.65 974.862 1739.94 976.954 1740.22 980.621C1740.43 983.371 1739.52 985.515 1737.48 987.053C1735.45 988.591 1732.37 989.518 1728.25 989.833C1725.76 990.022 1723.37 990.147 1721.07 990.208L1720.59 981.601L1718.89 961.677L1727.83 960.937C1730.69 960.718 1732.95 961.16 1734.61 962.263C1736.31 963.325 1737.24 964.963 1737.41 967.178C1737.53 968.821 1737.24 970.245 1736.52 971.452C1735.81 972.659 1734.75 973.624 1733.34 974.346ZM1732.92 968.039C1732.81 966.626 1732.28 965.63 1731.31 965.051C1730.34 964.471 1728.85 964.259 1726.82 964.413L1723.33 964.68L1723.95 973.507L1729.06 973.29C1730.45 972.877 1731.46 972.262 1732.09 971.445C1732.75 970.588 1733.03 969.453 1732.92 968.039ZM1728.51 986.528C1730.99 986.338 1732.85 985.774 1734.09 984.834C1735.36 983.854 1735.93 982.523 1735.8 980.843C1735.69 979.468 1735.15 978.433 1734.18 977.739C1733.2 977.046 1731.77 976.636 1729.88 976.512L1724.21 977.002L1724.46 980.96L1725 986.623C1726.2 986.647 1727.37 986.615 1728.51 986.528ZM1758 979.148L1758.79 987.328L1754.5 987.656L1754.1 979.446L1753.91 977.674L1742.81 959.851L1747.51 959.492L1748.21 961.11L1755.56 972.88L1755.84 972.858L1761.91 960.236L1762.52 958.346L1767.1 957.996L1757.92 977.368L1758 979.148ZM1792.56 947.524C1795.19 947.323 1797.97 947.687 1800.88 948.617L1800.47 953.085L1799.69 953.376C1798.52 952.62 1797.28 952.061 1795.99 951.699C1794.73 951.334 1793.49 951.198 1792.27 951.292C1790.86 951.4 1789.64 951.781 1788.61 952.435C1787.62 953.087 1786.88 953.893 1786.38 954.853C1785.91 955.811 1785.72 956.786 1785.79 957.779C1785.87 958.81 1786.25 959.704 1786.92 960.459C1787.63 961.173 1788.48 961.781 1789.48 962.281C1790.48 962.781 1791.83 963.369 1793.53 964.046C1795.67 964.843 1797.4 965.614 1798.72 966.358C1800.04 967.064 1801.19 968.013 1802.17 969.207C1803.18 970.397 1803.75 971.89 1803.89 973.685C1804.04 975.595 1803.66 977.391 1802.75 979.074C1801.84 980.757 1800.48 982.147 1798.69 983.245C1796.89 984.342 1794.78 984.983 1792.38 985.167C1790.77 985.289 1789.08 985.208 1787.29 984.922C1785.54 984.594 1783.88 984.068 1782.33 983.341L1782.54 978.599L1783.15 978.265C1784.59 979.461 1786.13 980.323 1787.78 980.85C1789.47 981.336 1791.06 981.522 1792.55 981.408C1794 981.297 1795.26 980.913 1796.33 980.256C1797.43 979.595 1798.23 978.766 1798.73 977.767C1799.27 976.766 1799.5 975.73 1799.41 974.661C1799.29 973.056 1798.58 971.824 1797.29 970.962C1795.99 970.062 1794.06 969.134 1791.49 968.178C1789.38 967.34 1787.69 966.585 1786.41 965.914C1785.13 965.206 1784 964.274 1783.03 963.119C1782.06 961.925 1781.5 960.431 1781.36 958.636C1781.22 956.764 1781.59 955.008 1782.46 953.366C1783.37 951.721 1784.69 950.391 1786.42 949.376C1788.18 948.319 1790.23 947.702 1792.56 947.524ZM1821.18 953.579C1824.35 953.337 1827.15 953.795 1829.58 954.954L1829.08 958.969L1828.58 959.18C1827.57 958.451 1826.41 957.905 1825.11 957.543C1823.82 957.181 1822.45 957.055 1820.99 957.166C1818.17 957.382 1816.08 958.463 1814.73 960.41C1813.38 962.319 1812.84 965.069 1813.11 968.659C1813.39 972.287 1814.35 975 1815.98 976.796C1817.62 978.592 1819.85 979.382 1822.67 979.166C1824.05 979.061 1825.41 978.727 1826.75 978.163C1828.12 977.559 1829.33 976.814 1830.38 975.927L1830.91 976.059L1830.81 980.043C1828.32 981.655 1825.64 982.57 1822.78 982.788C1818.58 983.109 1815.25 982.114 1812.81 979.804C1810.37 977.455 1808.97 973.97 1808.61 969.348C1808.25 964.65 1809.16 960.932 1811.33 958.192C1813.54 955.449 1816.83 953.912 1821.18 953.579ZM1847.64 951.501C1851.81 951.183 1855.09 952.162 1857.49 954.437C1859.93 956.71 1861.32 960.08 1861.66 964.549C1862.03 969.4 1861.12 973.254 1858.91 976.111C1856.75 978.927 1853.45 980.504 1849.02 980.842C1844.89 981.157 1841.61 980.16 1839.17 977.849C1836.72 975.5 1835.32 972.015 1834.97 967.394C1834.61 962.658 1835.53 958.918 1837.74 956.176C1839.95 953.395 1843.25 951.836 1847.64 951.501ZM1847.52 955.141C1844.5 955.371 1842.31 956.403 1840.95 958.235C1839.63 960.065 1839.12 962.832 1839.4 966.537C1839.7 970.509 1840.65 973.337 1842.24 975.022C1843.82 976.706 1846.11 977.434 1849.09 977.207C1852.14 976.974 1854.35 975.922 1855.7 974.051C1857.06 972.18 1857.59 969.374 1857.31 965.63C1857.01 961.773 1856.05 959.003 1854.43 957.322C1852.84 955.638 1850.54 954.911 1847.52 955.141ZM1884.11 949.408L1884.1 953.04L1878.74 953.045L1875.88 953.264L1876.93 969.319L1877.78 978.243L1873.49 978.571L1873 969.964L1871.64 953.588L1868.77 953.807L1863.36 954.623L1862.99 954.248L1863.06 950.67L1883.85 949.082L1884.11 949.408ZM1909.12 947.499L1909.11 951.13L1903.75 951.136L1900.88 951.355L1901.94 967.409L1902.79 976.334L1898.49 976.662L1898.01 968.055L1896.65 951.678L1893.78 951.897L1888.37 952.714L1887.99 952.339L1888.07 948.761L1908.86 947.173L1909.12 947.499Z" fill="#2D3342"/>
<path d="M804.797 377.794L801.588 412.312L834.114 415.335L866.641 418.359L862.754 460.178L858.866 501.998L687.605 486.079L516.343 470.159L497.585 671.956L478.828 873.753L464.224 872.396L449.621 871.039L462.825 728.984L476.029 586.929L323.353 572.738C214.755 562.643 170.642 558.944 170.543 560.007C170.469 560.803 174.838 567.102 180.353 574.042C185.735 580.97 195.053 593.084 201.013 601.003C206.984 608.789 221.203 627.251 232.557 641.965C243.91 656.679 254.517 670.788 256.153 673.35L259.077 677.907L251.131 685.605C246.861 689.76 240.718 695.35 237.393 697.986C234.2 700.635 224.997 708.886 216.955 716.173C201.161 730.506 188.596 741.791 165.824 762.037C157.794 769.192 151.045 775.527 150.706 776.299C150.221 777.191 188.286 781.131 265.686 788.326C350.387 796.199 381.416 799.485 381.982 800.609C382.426 801.587 381.733 816.253 380.551 833.284L378.328 864.412L354.829 862.227L331.463 860.056L321.961 962.281L312.459 1064.51L337.02 1066.79L361.58 1069.07L359.605 1090.31L357.631 1111.56L394.273 1114.96L430.915 1118.37L431.961 1097.04L432.873 1075.7L446.414 1076.96L459.823 1078.21L450.63 1177.11L441.436 1276.02L479.937 1279.6L518.437 1283.18L508.873 1386.07L499.31 1488.95L537.147 1492.47L574.984 1495.99L584.547 1393.1L594.111 1290.21L629.293 1293.48L664.475 1296.75L654.911 1399.64L645.347 1502.53L683.184 1506.04L721.021 1509.56L730.585 1406.67L740.148 1303.79L882.866 1317.05L1025.58 1330.32L1016.02 1433.21L1006.46 1536.09L1044.29 1539.61L1082.13 1543.13L1091.69 1440.24L1101.26 1337.35L1136.44 1340.62L1171.62 1343.89L1162.05 1446.78L1152.49 1549.67L1190.33 1553.18L1228.16 1556.7L1237.73 1453.82L1247.29 1350.93L1285.8 1354.5L1324.3 1358.08L1333.72 1259.6L1343.28 1160.99L1416.74 1167.42L1490.05 1173.97L1499.55 1071.74L1509.06 969.516L1435.8 962.438L1362.41 955.215L1380.75 753.647L1399.21 552.224L1239.89 537.415L1080.58 522.606L1084.46 480.787L1088.35 438.967L1120.21 441.929L1152.08 444.891L1155.29 410.373L1158.49 375.855L1088.79 369.376L1019.1 362.898L1012 439.235L1004.9 515.572L969.721 512.302L934.54 509.032L941.636 432.695L948.732 356.357L878.368 349.817L808.005 343.276L804.797 377.794ZM711.122 794.915L701.866 894.485L666.685 891.215L631.503 887.945L640.672 789.303C645.719 735.004 650.288 690.168 650.857 689.819C651.305 689.325 667.273 690.408 686.125 692.16L720.377 695.344L711.122 794.915ZM1217.98 842.296L1209.01 941.626L1173.83 938.356L1138.65 935.086L1147.82 836.444C1152.87 782.145 1157.44 737.308 1158 736.96C1158.58 736.478 1174.28 737.669 1192.85 739.528L1226.8 743.086L1217.98 842.296Z" fill="#8798C3"/>
</svg>
