<svg width="1523" height="1154" viewBox="0 0 1523 1154" fill="none" xmlns="http://www.w3.org/2000/svg">
<path d="M221.464 651.208C252.891 694.97 289.164 740.789 330.284 788.664L329.403 795.273C312.955 799.385 293.57 802.762 271.248 805.406L264.199 801.881C225.723 750.775 191.506 701.726 161.547 654.732L160.666 711.125L162.869 801H103.392L106.476 716.411L103.392 517.275H163.75L161.547 649.005L241.29 544.591L257.591 517.275H321.913L221.464 651.208ZM491.084 713.327C510.762 741.817 529.119 766.783 546.154 788.224L545.714 794.392C527.504 799.972 509.587 803.35 491.965 804.525L484.035 799.238C467.587 770.748 454.81 747.398 445.705 729.188H411.782V729.628L413.985 801H358.473L360.676 734.915L358.473 578.514L454.517 578.074C479.482 578.074 498.72 583.948 512.231 595.696C526.035 607.151 532.937 623.599 532.937 645.04C532.937 658.844 529.266 671.767 521.923 683.809C514.581 695.558 504.301 705.397 491.084 713.327ZM412.663 686.893L445.705 688.656C455.692 685.425 463.034 680.725 467.734 674.558C472.433 668.39 474.783 660.459 474.783 650.767C474.783 640.193 471.699 632.41 465.531 627.417C459.363 622.13 449.67 619.193 436.453 618.606L413.985 619.487L412.663 686.893ZM779.396 801H723.444L717.276 768.839L713.311 756.062L668.374 755.622L628.723 756.503L625.639 765.755L619.03 801H564.841L642.821 578.514H708.465L779.396 801ZM701.416 714.208L676.304 629.179H672.779L643.261 714.208L671.898 714.649L701.416 714.208ZM997.855 691.74L997.415 725.663C997.708 750.922 989.337 770.454 972.302 784.258C955.561 797.769 931.476 804.525 900.049 804.525C869.504 804.525 846.154 797.769 829.999 784.258C813.845 770.454 806.209 750.922 807.09 725.663L807.531 690.858L806.209 578.514H861.72L859.077 717.733C858.783 732.125 862.161 742.698 869.21 749.454C876.553 756.209 887.567 759.587 902.252 759.587C917.232 759.587 928.246 756.209 935.295 749.454C942.637 742.405 946.162 731.831 945.868 717.733L943.665 578.514H999.617L997.855 691.74ZM1190.22 686.012C1205.79 689.83 1217.25 695.998 1224.59 704.516C1232.22 712.74 1236.04 723.754 1236.04 737.558C1236.04 759.88 1226.79 776.328 1208.29 786.902C1189.78 797.475 1162.32 802.762 1125.9 802.762C1109.75 802.762 1086.98 802.175 1057.61 801L1059.82 734.915L1057.61 578.514L1147.05 578.074C1171.72 578.074 1190.96 582.92 1204.76 592.612C1218.86 602.305 1225.91 616.256 1225.91 634.466C1225.91 646.214 1222.83 656.494 1216.66 665.306C1210.49 674.117 1201.68 681.019 1190.22 686.012ZM1168.2 641.956C1168.2 632.851 1164.96 626.536 1158.5 623.011C1152.34 619.487 1141.32 617.725 1125.46 617.725H1111.8L1110.92 670.152L1143.08 671.033C1151.6 668.977 1157.92 665.746 1162.03 661.341C1166.14 656.641 1168.2 650.18 1168.2 641.956ZM1135.59 763.992C1149.69 763.992 1160.41 761.643 1167.76 756.943C1175.39 751.95 1179.21 744.608 1179.21 734.915C1179.21 727.866 1176.71 722.286 1171.72 718.174C1166.73 714.062 1159.09 710.831 1148.81 708.481L1110.48 709.362L1110.04 729.628L1110.92 762.671C1120.32 763.552 1128.54 763.992 1135.59 763.992ZM1438.09 756.062L1441.61 759.587L1437.65 801H1285.21L1287.41 734.915L1285.21 578.514H1439.85L1442.93 582.92L1439.41 623.892L1382.14 621.69H1340.72L1339.84 666.627L1379.49 667.068L1417.82 665.746L1420.91 669.711L1417.38 711.565L1375.53 710.243H1338.96L1338.52 729.628L1339.4 757.825H1378.17L1438.09 756.062Z" fill="#2D3342"/>
<path d="M558.546 992.242C577.208 1021.45 598.508 1051.78 622.444 1083.22L621.531 1089.91C600.232 1094.58 579.947 1097.83 560.676 1099.65L553.982 1096C533.291 1060.5 516.353 1030.38 503.168 1005.63L502.559 1032.1L504.993 1096H443.834L446.876 1038.19L443.834 899.133H505.906L503.776 981.288L541.506 920.432L551.852 899.133H616.359L558.546 992.242ZM700.46 936.863C724.803 936.863 743.566 943.557 756.752 956.945C770.14 970.334 776.834 989.3 776.834 1013.85C776.834 1041.03 769.43 1062.12 754.622 1077.13C740.016 1091.94 719.326 1099.35 692.549 1099.35C668.207 1099.35 649.342 1092.55 635.954 1078.96C622.768 1065.17 616.176 1045.9 616.176 1021.15C616.176 994.371 623.478 973.681 638.084 959.075C652.892 944.267 673.684 936.863 700.46 936.863ZM695.288 981.592C689.608 981.592 685.348 982.403 682.508 984.026C679.871 985.446 677.944 988.387 676.727 992.85C675.713 997.313 675.205 1004.21 675.205 1013.54C675.205 1026.32 675.814 1035.75 677.031 1041.84C678.248 1047.92 680.378 1052.08 683.421 1054.31C686.464 1056.55 691.231 1057.66 697.722 1057.66C703.605 1057.66 707.864 1056.95 710.502 1055.53C713.341 1053.91 715.269 1050.97 716.283 1046.71C717.297 1042.24 717.804 1035.35 717.804 1026.02C717.804 1013.03 717.196 1003.5 715.979 997.414C714.964 991.329 712.834 987.17 709.589 984.939C706.546 982.707 701.779 981.592 695.288 981.592ZM872.89 938.993C897.435 938.993 916.199 945.281 929.182 957.858C942.367 970.232 948.96 988.083 948.96 1011.41C948.96 1039.4 941.251 1060.91 925.835 1075.92C910.418 1090.93 888.307 1098.43 859.502 1098.43C844.897 1098.43 823.598 1097.62 795.604 1096L798.343 1050.66L795.604 939.906L872.89 938.993ZM870.152 1056.75C876.643 1056.75 881.512 1054.42 884.757 1049.75C888.206 1045.08 889.93 1036.97 889.93 1025.41C889.93 1014.25 889.22 1005.63 887.8 999.544C886.583 993.459 884.352 989.199 881.106 986.765C878.063 984.127 873.702 982.809 868.022 982.809C863.762 982.809 858.285 983.113 851.591 983.722L849.765 1044.88L850.07 1054.31C859.806 1055.94 866.501 1056.75 870.152 1056.75ZM1088.46 1051.27L1091.5 1054.92L1088.15 1096H967.354L970.093 1050.66L967.354 939.906H1090.28L1093.32 943.861L1089.98 984.939L1048.9 983.113H1023.34L1023.04 996.501H1047.38L1073.85 995.589L1076.89 999.544L1073.55 1040.62L1043.73 1039.71H1021.82L1021.52 1044.88L1021.82 1052.79H1045.86L1088.46 1051.27Z" fill="#8798C3"/>
<path d="M732.473 14.238V28.4759H745.891H759.309V45.7256V62.9754H688.66H618.011V146.213V229.45H611.987H605.963V170.856V112.261H542.981C498.182 112.261 480 112.425 480 112.863C480 113.192 482.026 115.601 484.546 118.23C487.01 120.859 491.282 125.458 494.02 128.47C496.759 131.427 503.276 138.437 508.479 144.023C513.681 149.608 518.556 154.975 519.322 155.96L520.691 157.713L517.734 161.163C516.146 163.025 513.846 165.544 512.586 166.748C511.381 167.953 507.931 171.677 504.919 174.963C499.004 181.424 494.294 186.517 485.75 195.662C482.738 198.894 480.219 201.741 480.11 202.07C479.945 202.453 495.663 202.617 527.592 202.617C562.533 202.617 575.348 202.781 575.622 203.22C575.841 203.603 576.115 209.627 576.279 216.636L576.553 229.45H566.86H557.221V271.616V313.783H567.353H577.484V322.544V331.307H592.6H607.715L607.332 322.544L606.894 313.783H612.48H618.011V354.58V395.377H633.894H649.776V437.817V480.256H665.384H680.993V437.817V395.377H695.506H710.019V437.817V480.256H725.627H741.236V437.817V395.377H800.109H858.984V437.817V480.256H874.592H890.2V437.817V395.377H904.713H919.225V437.817V480.256H934.834H950.442V437.817V395.377H966.326H982.209L982.316 354.744L982.48 314.057L1012.77 313.892L1043 313.783V271.616V229.45L1012.77 229.341L982.48 229.176L982.316 146.049L982.209 62.9754H916.49H850.769V45.7256V28.4759H863.913H877.057V14.238V0H848.304H819.552V31.4878V62.9754H805.038H790.525V31.4878V0H761.499H732.473V14.238ZM710.019 188.379V229.45H695.506H680.993V188.763C680.993 166.365 681.157 147.856 681.376 147.691C681.541 147.473 688.112 147.308 695.889 147.308H710.019V188.379ZM919.118 188.489L919.225 229.45H904.713H890.2V188.763C890.2 166.365 890.365 147.856 890.584 147.691C890.801 147.473 897.267 147.363 904.931 147.418L918.954 147.582L919.118 188.489Z" fill="#8798C3"/>
</svg>
