<svg width="1283" height="981" viewBox="0 0 1283 981" fill="none" xmlns="http://www.w3.org/2000/svg">
<path d="M1144.76 854.521C1159.73 843.771 1175.4 831.363 1191.78 817.296L1194.04 817.598C1195.45 823.224 1196.6 829.855 1197.51 837.491L1196.3 839.903C1178.82 853.064 1162.04 864.769 1145.97 875.018L1165.26 875.319L1196 874.565L1196 894.911L1167.06 893.856L1098.94 894.911L1098.94 874.264L1144.01 875.018L1108.29 847.739L1098.94 842.163L1098.94 820.16L1144.76 854.521ZM1166.01 762.29C1175.75 755.559 1184.3 749.279 1191.63 743.452L1193.74 743.603C1195.65 749.832 1196.8 755.961 1197.21 761.989L1195.4 764.702C1185.65 770.328 1177.66 774.699 1171.43 777.813L1171.43 789.418L1171.59 789.418L1196 788.664L1196 807.654L1173.39 806.9L1119.89 807.654L1119.74 774.799C1119.74 766.259 1121.75 759.678 1125.77 755.056C1129.69 750.334 1135.31 747.973 1142.65 747.973C1147.37 747.973 1151.79 749.229 1155.91 751.741C1159.93 754.253 1163.3 757.769 1166.01 762.29ZM1156.97 789.116L1157.57 777.813C1156.46 774.397 1154.86 771.886 1152.75 770.278C1150.64 768.67 1147.92 767.867 1144.61 767.867C1140.99 767.867 1138.33 768.922 1136.62 771.032C1134.81 773.141 1133.81 776.457 1133.61 780.978L1133.91 788.664L1156.97 789.116ZM1196 663.665L1196 682.805L1185 684.915L1180.63 686.271L1180.48 701.644L1180.78 715.207L1183.94 716.262L1196 718.523L1196 737.06L1119.89 710.385L1119.89 687.929L1196 663.665ZM1166.31 690.34L1137.22 698.931L1137.22 700.136L1166.31 710.234L1166.46 700.438L1166.31 690.34ZM1158.62 588.935L1170.23 589.086C1178.87 588.986 1185.55 591.849 1190.27 597.676C1194.89 603.403 1197.21 611.642 1197.21 622.392C1197.21 632.841 1194.89 640.829 1190.27 646.355C1185.55 651.881 1178.87 654.493 1170.23 654.192L1158.32 654.041L1119.89 654.493L1119.89 635.504L1167.52 636.408C1172.44 636.509 1176.06 635.353 1178.37 632.942C1180.68 630.43 1181.83 626.662 1181.83 621.639C1181.83 616.515 1180.68 612.747 1178.37 610.336C1175.96 607.824 1172.34 606.618 1167.52 606.719L1119.89 607.472L1119.89 588.332L1158.62 588.935ZM1156.67 523.13C1157.97 517.805 1160.08 513.887 1162.99 511.375C1165.81 508.763 1169.58 507.457 1174.3 507.457C1181.93 507.457 1187.56 510.621 1191.18 516.951C1194.79 523.281 1196.6 532.675 1196.6 545.133C1196.6 550.659 1196.4 558.446 1196 568.493L1173.39 567.74L1119.89 568.493L1119.74 537.9C1119.74 529.46 1121.4 522.879 1124.72 518.157C1128.03 513.334 1132.8 510.923 1139.03 510.923C1143.05 510.923 1146.57 511.978 1149.58 514.088C1152.6 516.198 1154.96 519.212 1156.67 523.13ZM1141.59 530.666C1138.48 530.666 1136.32 531.771 1135.11 533.981C1133.91 536.091 1133.31 539.859 1133.31 545.284L1133.31 549.956L1151.24 550.258L1151.54 539.256C1150.84 536.342 1149.73 534.182 1148.23 532.775C1146.62 531.369 1144.41 530.666 1141.59 530.666ZM1183.34 541.818C1183.34 536.995 1182.54 533.328 1180.93 530.816C1179.22 528.204 1176.71 526.898 1173.39 526.898C1170.98 526.898 1169.07 527.752 1167.67 529.46C1166.26 531.168 1165.16 533.78 1164.35 537.297L1164.65 550.408L1171.59 550.559L1182.89 550.258C1183.19 547.042 1183.34 544.229 1183.34 541.818ZM1180.63 438.342L1181.83 437.136L1196 438.492L1196 490.637L1173.39 489.884L1119.89 490.637L1119.89 437.739L1121.4 436.684L1135.42 437.89L1134.66 457.482L1134.66 471.648L1150.03 471.95L1150.18 458.386L1149.73 445.274L1151.09 444.219L1165.41 445.425L1164.95 459.742L1164.95 472.251L1171.59 472.402L1181.23 472.1L1181.23 458.838L1180.63 438.342Z" fill="#2D3342"/>
<path d="M1144.61 344.237C1159.08 334.993 1174.1 324.444 1189.67 312.588L1192.99 313.04C1195.3 323.59 1196.9 333.637 1197.81 343.182L1196 346.497C1178.42 356.745 1163.5 365.135 1151.24 371.665L1164.35 371.967L1196 370.761L1196 401.053L1167.37 399.546L1098.49 401.053L1098.49 370.309L1139.18 371.364L1109.04 352.676L1098.49 347.552L1098.49 315.602L1144.61 344.237ZM1117.18 273.947C1117.18 261.89 1120.5 252.596 1127.13 246.066C1133.76 239.435 1143.15 236.119 1155.31 236.119C1168.77 236.119 1179.22 239.786 1186.66 247.121C1193.99 254.355 1197.66 264.603 1197.66 277.865C1197.66 289.922 1194.29 299.265 1187.56 305.897C1180.73 312.427 1171.18 315.693 1158.93 315.693C1145.66 315.693 1135.42 312.076 1128.18 304.842C1120.85 297.507 1117.18 287.209 1117.18 273.947ZM1139.33 276.509C1139.33 279.322 1139.74 281.432 1140.54 282.838C1141.24 284.144 1142.7 285.099 1144.91 285.702C1147.12 286.204 1150.54 286.455 1155.16 286.455C1161.49 286.455 1166.16 286.154 1169.17 285.551C1172.19 284.948 1174.25 283.893 1175.35 282.386C1176.46 280.879 1177.01 278.518 1177.01 275.303C1177.01 272.389 1176.66 270.279 1175.96 268.973C1175.15 267.567 1173.7 266.612 1171.59 266.11C1169.37 265.607 1165.96 265.356 1161.34 265.356C1154.91 265.356 1150.18 265.658 1147.17 266.26C1144.16 266.763 1142.1 267.818 1140.99 269.425C1139.89 270.932 1139.33 273.294 1139.33 276.509ZM1118.23 188.542C1118.23 176.385 1121.35 167.092 1127.58 160.661C1133.71 154.131 1142.55 150.865 1154.1 150.865C1167.97 150.865 1178.62 154.683 1186.05 162.319C1193.49 169.955 1197.21 180.907 1197.21 195.174C1197.21 202.408 1196.8 212.957 1196 226.822L1173.54 225.466L1118.69 226.822L1118.23 188.542ZM1176.56 189.899C1176.56 186.684 1175.4 184.272 1173.09 182.665C1170.78 180.957 1166.76 180.103 1161.04 180.103C1155.51 180.103 1151.24 180.454 1148.23 181.158C1145.21 181.761 1143.1 182.866 1141.9 184.473C1140.59 185.98 1139.94 188.141 1139.94 190.954C1139.94 193.064 1140.09 195.776 1140.39 199.092L1170.68 199.996L1175.35 199.845C1176.16 195.023 1176.56 191.707 1176.56 189.899ZM1173.85 81.773L1175.65 80.2659L1196 81.9237L1196 141.755L1173.54 140.398L1118.69 141.755L1118.69 80.8687L1120.65 79.3616L1140.99 81.0194L1140.09 101.365L1140.09 114.024L1146.72 114.175L1146.72 102.119L1146.27 89.0069L1148.23 87.4999L1168.57 89.1577L1168.12 103.927L1168.12 114.778L1170.68 114.929L1174.6 114.778L1174.6 102.872L1173.85 81.773Z" fill="#8798C3"/>
<path d="M477.143 26.8895V53.7789H502.5H527.859V86.3562V118.934L394.341 118.934H260.824V276.134V433.334H249.439H238.054V322.674V212.013H119.027C34.3626 212.013 0 212.323 0 213.151C0 213.771 3.82956 218.322 8.59068 223.286C13.2483 228.25 21.3214 236.938 26.4964 242.626C31.6715 248.21 43.9883 261.449 53.8209 271.998C63.6536 282.547 72.8652 292.681 74.3142 294.543L76.9018 297.853L71.3127 304.368C68.3111 307.884 63.9641 312.642 61.5835 314.917C59.3065 317.192 52.7859 324.225 47.0933 330.43C35.9151 342.634 27.014 352.252 10.8677 369.523C5.17508 375.625 0.414007 381.003 0.207003 381.624C-0.103502 382.347 29.6015 382.658 89.9432 382.658C155.977 382.658 180.196 382.968 180.714 383.795C181.128 384.519 181.645 395.896 181.956 409.134L182.474 433.334H164.154H145.937V512.968V592.603H165.085H184.233V609.15V625.698H212.799H241.366L240.641 609.15L239.813 592.603H250.37H260.824V669.651V746.7H290.84H320.855V826.851V907H350.353H379.851V826.851V746.7H407.279H434.707V826.851V907H464.205H493.703V826.851V746.7H604.967H716.232V826.851V907H745.73H775.228V826.851V746.7H802.656H830.081V826.851V907H859.579H889.077V826.851V746.7H919.095H949.113L949.315 669.961L949.625 593.12L1006.87 592.81L1064 592.603V512.968V433.334L1006.87 433.127L949.625 432.817L949.315 275.824L949.113 118.934H824.911H700.707V86.3562V53.7789H725.547H750.388V26.8895V0L696.049 0L641.711 0V59.4671V118.934H614.282H586.855V59.4671V0L531.998 0L477.143 0V26.8895ZM434.707 355.769V433.334H407.279H379.851V356.492C379.851 314.193 380.161 279.237 380.576 278.927C380.887 278.513 393.307 278.203 408.004 278.203H434.707V355.769ZM829.879 355.975L830.081 433.334H802.656H775.228V356.492C775.228 314.193 775.538 279.237 775.952 278.927C776.364 278.513 788.582 278.306 803.067 278.409L829.569 278.719L829.879 355.975Z" fill="#8798C3"/>
</svg>
