<svg width="2396" height="514" viewBox="0 0 2396 514" fill="none" xmlns="http://www.w3.org/2000/svg">
<path d="M804.326 245.256C824.414 273.228 847.599 302.515 873.882 333.115L873.319 337.339C862.805 339.967 850.415 342.126 836.147 343.816L831.642 341.563C807.048 308.898 785.178 277.546 766.029 247.509L765.465 283.553L766.873 341L728.857 341L730.829 286.933L728.857 159.649H767.437L766.029 243.848L816.998 177.108L827.418 159.649L868.531 159.649L804.326 245.256ZM976.662 284.961C989.24 303.172 1000.97 319.129 1011.86 332.834L1011.58 336.776C999.941 340.343 988.489 342.502 977.225 343.253L972.156 339.874C961.643 321.663 953.476 306.739 947.657 295.099H925.973V295.381L927.381 341H891.9L893.308 298.76L891.9 198.792L953.289 198.51C969.246 198.51 981.543 202.265 990.178 209.774C999.002 217.096 1003.41 227.609 1003.41 241.313C1003.41 250.137 1001.07 258.397 996.374 266.094C991.68 273.604 985.11 279.893 976.662 284.961ZM926.537 268.065L947.657 269.192C954.04 267.127 958.733 264.123 961.737 260.181C964.74 256.238 966.242 251.169 966.242 244.974C966.242 238.216 964.271 233.241 960.329 230.049C956.386 226.67 950.191 224.793 941.743 224.417L927.381 224.981L926.537 268.065ZM1160.94 341H1125.18L1121.24 320.443L1118.7 312.277L1089.98 311.995L1064.64 312.558L1062.67 318.472L1058.44 341H1023.81L1073.65 198.792H1115.61L1160.94 341ZM1111.1 285.525L1095.05 231.176H1092.8L1073.93 285.525L1092.23 285.806L1111.1 285.525ZM1300.58 271.163L1300.3 292.846C1300.49 308.991 1295.14 321.476 1284.25 330.299C1273.55 338.935 1258.15 343.253 1238.06 343.253C1218.54 343.253 1203.61 338.935 1193.29 330.299C1182.96 321.476 1178.08 308.991 1178.65 292.846L1178.93 270.6L1178.08 198.792L1213.56 198.792L1211.88 287.777C1211.69 296.976 1213.85 303.735 1218.35 308.053C1223.05 312.371 1230.09 314.53 1239.47 314.53C1249.05 314.53 1256.09 312.371 1260.59 308.053C1265.29 303.547 1267.54 296.789 1267.35 287.777L1265.94 198.792H1301.71L1300.58 271.163ZM1423.54 267.502C1433.49 269.943 1440.81 273.885 1445.5 279.329C1450.38 284.586 1452.82 291.626 1452.82 300.449C1452.82 314.717 1446.91 325.23 1435.08 331.989C1423.26 338.747 1405.7 342.126 1382.42 342.126C1372.1 342.126 1357.55 341.751 1338.78 341L1340.18 298.76L1338.78 198.792L1395.94 198.51C1411.71 198.51 1424.01 201.608 1432.83 207.803C1441.84 213.998 1446.35 222.915 1446.35 234.555C1446.35 242.064 1444.38 248.635 1440.43 254.267C1436.49 259.899 1430.86 264.311 1423.54 267.502ZM1409.46 239.342C1409.46 233.522 1407.39 229.486 1403.26 227.233C1399.32 224.981 1392.28 223.854 1382.14 223.854H1373.41L1372.85 257.365L1393.41 257.928C1398.85 256.614 1402.89 254.549 1405.52 251.733C1408.14 248.729 1409.46 244.599 1409.46 239.342ZM1388.62 317.346C1397.63 317.346 1404.48 315.844 1409.18 312.84C1414.06 309.648 1416.5 304.955 1416.5 298.76C1416.5 294.254 1414.9 290.687 1411.71 288.059C1408.52 285.431 1403.64 283.366 1397.07 281.864L1372.57 282.427L1372.29 295.381L1372.85 316.501C1378.86 317.064 1384.11 317.346 1388.62 317.346ZM1581.97 312.277L1584.22 314.53L1581.69 341H1484.25L1485.66 298.76L1484.25 198.792L1583.09 198.792L1585.06 201.608L1582.81 227.797L1546.2 226.389L1519.73 226.389L1519.17 255.112L1544.51 255.393L1569.01 254.549L1570.98 257.083L1568.73 283.835L1541.98 282.99H1518.61L1518.32 295.381L1518.89 313.403H1543.67L1581.97 312.277Z" fill="#2D3342"/>
<path d="M1757.8 244.974C1775.08 272.008 1794.79 300.074 1816.94 329.173L1816.1 335.368C1796.38 339.686 1777.61 342.69 1759.78 344.379L1753.58 341C1734.43 308.147 1718.76 280.268 1706.55 257.365L1705.99 281.864L1708.24 341H1651.64L1654.46 287.496L1651.64 158.804H1709.09L1707.12 234.837L1742.03 178.516L1751.61 158.804H1811.31L1757.8 244.974ZM1889.14 193.723C1911.67 193.723 1929.04 199.918 1941.24 212.308C1953.63 224.699 1959.82 242.252 1959.82 264.968C1959.82 290.124 1952.97 309.648 1939.27 323.541C1925.75 337.245 1906.6 344.098 1881.82 344.098C1859.29 344.098 1841.83 337.809 1829.44 325.23C1817.24 312.464 1811.14 294.63 1811.14 271.726C1811.14 246.945 1817.9 227.797 1831.41 214.28C1845.12 200.575 1864.36 193.723 1889.14 193.723ZM1884.36 235.118C1879.1 235.118 1875.16 235.869 1872.53 237.371C1870.09 238.685 1868.3 241.407 1867.18 245.537C1866.24 249.668 1865.77 256.05 1865.77 264.686C1865.77 276.513 1866.33 285.243 1867.46 290.875C1868.59 296.507 1870.56 300.356 1873.37 302.421C1876.19 304.486 1880.6 305.518 1886.61 305.518C1892.05 305.518 1895.99 304.861 1898.44 303.547C1901.06 302.045 1902.85 299.323 1903.79 295.381C1904.72 291.251 1905.19 284.868 1905.19 276.232C1905.19 264.217 1904.63 255.393 1903.5 249.761C1902.57 244.129 1900.59 240.281 1897.59 238.216C1894.77 236.151 1890.36 235.118 1884.36 235.118ZM2048.72 195.694C2071.44 195.694 2088.8 201.514 2100.82 213.153C2113.02 224.605 2119.12 241.126 2119.12 262.715C2119.12 288.622 2111.99 308.522 2097.72 322.414C2083.45 336.307 2062.99 343.253 2036.33 343.253C2022.81 343.253 2003.1 342.502 1977.2 341L1979.73 299.041L1977.2 196.539L2048.72 195.694ZM2046.19 304.674C2052.19 304.674 2056.7 302.515 2059.7 298.197C2062.9 293.879 2064.49 286.369 2064.49 275.669C2064.49 265.343 2063.83 257.365 2062.52 251.733C2061.39 246.101 2059.33 242.158 2056.33 239.905C2053.51 237.465 2049.47 236.245 2044.22 236.245C2040.27 236.245 2035.21 236.526 2029.01 237.089L2027.32 293.691L2027.6 302.421C2036.61 303.923 2042.81 304.674 2046.19 304.674ZM2248.22 299.605L2251.04 302.984L2247.94 341L2136.15 341L2138.68 299.041L2136.15 196.539L2249.91 196.539L2252.73 200.2L2249.63 238.216L2211.61 236.526H2187.96L2187.68 248.917H2210.21L2234.71 248.072L2237.52 251.733L2234.42 289.749L2206.83 288.904H2186.55L2186.27 293.691L2186.55 301.013H2208.8L2248.22 299.605Z" fill="#8798C3"/>
<path d="M270.399 15.2384V30.4767H284.769H299.139V48.9384V67.4002H223.475H147.81V156.486V245.572H141.358H134.906V182.86V120.148H67.4528C19.4734 120.148 0 120.324 0 120.793C0 121.145 2.17023 123.724 4.86837 126.537C7.50783 129.35 12.0829 134.273 15.0156 137.497C17.9484 140.662 24.9283 148.164 30.5005 154.142C36.0727 160.12 41.293 165.863 42.1141 166.918L43.5805 168.794L40.4132 172.486C38.7121 174.479 36.2486 177.175 34.8996 178.465C33.6092 179.754 29.9139 183.739 26.6879 187.256C20.3532 194.172 15.3089 199.622 6.15876 209.41C2.93274 212.868 0.234619 215.916 0.117309 216.267C-0.0586549 216.678 16.7753 216.853 50.9711 216.853C88.3926 216.853 102.118 217.029 102.411 217.498C102.646 217.908 102.939 224.355 103.115 231.858L103.408 245.572H93.0266H82.7032V290.701V335.83H93.5545H104.405V345.207V354.585H120.594H136.783L136.372 345.207L135.903 335.83H141.886H147.81V379.494V423.158H164.82H181.83V468.579V514H198.546H215.263V468.579V423.158H230.807H246.35V468.579V514H263.067H279.783V468.579V423.158H342.837H405.891V468.579V514H422.608H439.324V468.579V423.158H454.868H470.41V468.579V514H487.126H503.843V468.579V423.158H520.854H537.866L537.98 379.669L538.156 336.123L570.595 335.947L602.972 335.83V290.701V245.572L570.595 245.455L538.156 245.279L537.98 156.31L537.866 67.4002L467.48 67.4002H397.093V48.9384V30.4767H411.17H425.247V15.2384V0L394.453 0L363.66 0V33.7002V67.4002H348.116H332.572V33.7002V0L301.485 0L270.399 0V15.2384ZM246.35 201.615V245.572H230.807H215.263V202.025C215.263 178.054 215.439 158.244 215.674 158.069C215.85 157.834 222.888 157.658 231.217 157.658H246.35V201.615ZM470.295 201.732L470.41 245.572H454.868H439.324V202.025C439.324 178.054 439.5 158.244 439.735 158.069C439.968 157.834 446.892 157.717 455.101 157.775L470.119 157.951L470.295 201.732Z" fill="#8798C3"/>
</svg>
