<svg width="3933" height="1170" viewBox="0 0 3933 1170" fill="none" xmlns="http://www.w3.org/2000/svg">
<path d="M1652.03 452.701C1683.46 496.464 1719.73 542.282 1760.85 590.157L1759.97 596.766C1743.52 600.878 1724.14 604.255 1701.82 606.899L1694.77 603.374C1656.29 552.269 1622.07 503.219 1592.11 456.225L1591.23 512.618L1593.44 602.493H1533.96L1537.04 517.904L1533.96 318.769H1594.32L1592.11 450.498L1671.86 346.084L1688.16 318.769H1752.48L1652.03 452.701ZM1921.65 514.821C1941.33 543.31 1959.69 568.276 1976.72 589.717L1976.28 595.885C1958.07 601.465 1940.16 604.843 1922.53 606.018L1914.6 600.731C1898.15 572.241 1885.38 548.891 1876.27 530.681H1842.35V531.121L1844.55 602.493H1789.04L1791.24 536.408L1789.04 380.007L1885.08 379.567C1910.05 379.567 1929.29 385.441 1942.8 397.189C1956.6 408.644 1963.51 425.092 1963.51 446.533C1963.51 460.337 1959.83 473.26 1952.49 485.303C1945.15 497.051 1934.87 506.89 1921.65 514.821ZM1843.23 488.387L1876.27 490.149C1886.26 486.918 1893.6 482.219 1898.3 476.051C1903 469.883 1905.35 461.953 1905.35 452.26C1905.35 441.687 1902.27 433.903 1896.1 428.91C1889.93 423.623 1880.24 420.686 1867.02 420.099L1844.55 420.98L1843.23 488.387ZM2209.96 602.493H2154.01L2147.84 570.332L2143.88 557.555L2098.94 557.115L2059.29 557.996L2056.21 567.248L2049.6 602.493H1995.41L2073.39 380.007H2139.03L2209.96 602.493ZM2131.98 515.702L2106.87 430.672H2103.35L2073.83 515.702L2102.47 516.142L2131.98 515.702ZM2428.42 493.233L2427.98 527.156C2428.28 552.415 2419.91 571.947 2402.87 585.752C2386.13 599.262 2362.04 606.018 2330.62 606.018C2300.07 606.018 2276.72 599.262 2260.57 585.752C2244.41 571.947 2236.78 552.415 2237.66 527.156L2238.1 492.352L2236.78 380.007H2292.29L2289.64 519.226C2289.35 533.618 2292.73 544.192 2299.78 550.947C2307.12 557.702 2318.13 561.08 2332.82 561.08C2347.8 561.08 2358.81 557.702 2365.86 550.947C2373.21 543.898 2376.73 533.324 2376.44 519.226L2374.23 380.007H2430.19L2428.42 493.233ZM2620.79 487.505C2636.36 491.324 2647.81 497.492 2655.16 506.009C2662.79 514.233 2666.61 525.247 2666.61 539.052C2666.61 561.374 2657.36 577.821 2638.86 588.395C2620.35 598.969 2592.89 604.255 2556.47 604.255C2540.32 604.255 2517.55 603.668 2488.18 602.493L2490.38 536.408L2488.18 380.007L2577.62 379.567C2602.29 379.567 2621.53 384.413 2635.33 394.105C2649.43 403.798 2656.48 417.749 2656.48 435.959C2656.48 447.708 2653.39 457.987 2647.23 466.799C2641.06 475.61 2632.25 482.512 2620.79 487.505ZM2598.76 443.449C2598.76 434.344 2595.53 428.029 2589.07 424.504C2582.9 420.98 2571.89 419.218 2556.03 419.218H2542.37L2541.49 471.645L2573.65 472.526C2582.17 470.47 2588.48 467.239 2592.6 462.834C2596.71 458.134 2598.76 451.673 2598.76 443.449ZM2566.16 565.486C2580.26 565.486 2590.98 563.136 2598.32 558.437C2605.96 553.443 2609.78 546.101 2609.78 536.408C2609.78 529.359 2607.28 523.779 2602.29 519.667C2597.3 515.555 2589.66 512.324 2579.38 509.974L2541.05 510.855L2540.61 531.121L2541.49 564.164C2550.89 565.045 2559.11 565.486 2566.16 565.486ZM2868.65 557.555L2872.18 561.08L2868.21 602.493H2715.78L2717.98 536.408L2715.78 380.007H2870.42L2873.5 384.413L2869.98 425.386L2812.7 423.183H2771.29L2770.41 468.121L2810.06 468.561L2848.39 467.239L2851.47 471.204L2847.95 513.058L2806.09 511.737H2769.53L2769.09 531.121L2769.97 559.318H2808.74L2868.65 557.555Z" fill="#2D3342"/>
<path d="M3143.75 452.26C3170.78 494.554 3201.62 538.464 3236.27 583.989L3234.95 593.682C3204.11 600.437 3174.74 605.137 3146.84 607.78L3137.15 602.493C3107.19 551.094 3082.66 507.478 3063.57 471.645L3062.69 509.974L3066.21 602.493H2977.66L2982.07 518.786L2977.66 317.447H3067.54L3064.45 436.4L3119.08 348.287L3134.06 317.447H3227.46L3143.75 452.26ZM3349.23 372.077C3384.48 372.077 3411.65 381.77 3430.74 401.154C3450.12 420.539 3459.82 448.001 3459.82 483.54C3459.82 522.898 3449.1 553.443 3427.65 575.178C3406.51 596.619 3376.55 607.339 3337.78 607.339C3302.53 607.339 3275.22 597.5 3255.83 577.821C3236.74 557.849 3227.2 529.947 3227.2 494.114C3227.2 455.344 3237.77 425.386 3258.92 404.238C3280.36 382.798 3310.46 372.077 3349.23 372.077ZM3341.74 436.84C3333.52 436.84 3327.35 438.015 3323.24 440.365C3319.42 442.421 3316.63 446.68 3314.87 453.141C3313.4 459.603 3312.67 469.589 3312.67 483.1C3312.67 501.604 3313.55 515.261 3315.31 524.072C3317.07 532.884 3320.16 538.905 3324.56 542.136C3328.97 545.366 3335.87 546.982 3345.27 546.982C3353.79 546.982 3359.95 545.954 3363.77 543.898C3367.88 541.548 3370.67 537.289 3372.14 531.121C3373.61 524.66 3374.35 514.674 3374.35 501.163C3374.35 482.365 3373.46 468.561 3371.7 459.75C3370.23 450.938 3367.15 444.917 3362.45 441.687C3358.04 438.456 3351.14 436.84 3341.74 436.84ZM3598.9 375.161C3634.44 375.161 3661.6 384.266 3680.4 402.476C3699.49 420.393 3709.04 446.239 3709.04 480.016C3709.04 520.548 3697.88 551.681 3675.56 573.416C3653.23 595.15 3621.22 606.018 3579.51 606.018C3558.36 606.018 3527.53 604.843 3486.99 602.493L3490.96 536.849L3486.99 376.483L3598.9 375.161ZM3594.93 545.66C3604.33 545.66 3611.38 542.282 3616.08 535.527C3621.07 528.772 3623.57 517.023 3623.57 500.282C3623.57 484.128 3622.54 471.645 3620.48 462.834C3618.72 454.022 3615.49 447.854 3610.79 444.33C3606.39 440.512 3600.07 438.603 3591.85 438.603C3585.68 438.603 3577.75 439.043 3568.06 439.924L3565.41 528.478L3565.85 542.136C3579.95 544.485 3589.64 545.66 3594.93 545.66ZM3911.02 537.73L3915.42 543.017L3910.58 602.493H3735.67L3739.64 536.849L3735.67 376.483H3913.66L3918.07 382.21L3913.22 441.687L3853.74 439.043H3816.74L3816.3 458.428H3851.54L3889.87 457.106L3894.28 462.834L3889.43 522.31L3846.25 520.988H3814.53L3814.09 528.478L3814.53 539.933H3849.34L3911.02 537.73Z" fill="#8798C3"/>
<path d="M2719.02 775.493H2706.84L2688.48 720.877H2687.46L2668.08 775.493H2655.89L2625.94 681.383H2637.68L2639.3 690.486L2662.2 762.426H2663.23L2683.49 705.167L2675.56 681.383H2687.6L2689.8 691.513L2713 762.426H2713.88L2739.43 691.073L2741.63 681.383H2752.79L2719.02 775.493ZM2777.69 752.59L2777.98 775.493H2767.12L2767.56 753.47L2767.12 702.378H2778.13L2777.69 752.59ZM2849.35 703.259L2848.62 712.508L2834.96 711.481H2827.62L2827.18 752.59L2827.62 775.493H2816.61L2817.05 753.47L2816.76 711.481H2809.42L2795.47 712.508L2794.59 711.481L2795.47 702.378H2848.76L2849.35 703.259ZM2927.98 752.59L2928.27 775.493H2917.4L2917.84 753.47L2917.7 743.487L2877.91 743.634L2877.76 752.59L2878.06 775.493H2867.19L2867.63 753.47L2867.19 702.378H2878.2L2877.91 733.797L2897.73 733.944L2917.7 733.797L2917.4 702.378H2928.42L2927.98 752.59ZM3018.23 767.271L3017.5 775.493H2978.59L2979.03 753.47L2978.59 702.378H2989.6L2989.16 752.59L2989.45 766.244H3017.64L3018.23 767.271ZM3057.84 701.497C3068.51 701.497 3076.68 704.629 3082.36 710.893C3088.13 717.158 3091.02 726.016 3091.02 737.467C3091.02 749.898 3087.94 759.539 3081.77 766.39C3075.7 773.144 3066.99 776.521 3055.64 776.521C3045.07 776.521 3036.9 773.34 3031.12 766.978C3025.35 760.518 3022.46 751.366 3022.46 739.523C3022.46 727.386 3025.54 718.038 3031.71 711.481C3037.87 704.825 3046.59 701.497 3057.84 701.497ZM3056.81 710.746C3049.08 710.746 3043.31 712.949 3039.49 717.353C3035.77 721.758 3033.91 728.707 3033.91 738.201C3033.91 748.381 3035.77 755.771 3039.49 760.371C3043.21 764.971 3048.89 767.271 3056.52 767.271C3064.35 767.271 3070.17 765.02 3073.99 760.518C3077.81 756.015 3079.72 748.968 3079.72 739.376C3079.72 729.49 3077.81 722.247 3073.99 717.647C3070.27 713.047 3064.55 710.746 3056.81 710.746ZM3137.86 775.493H3124.79L3099.25 702.378H3110.55L3112.31 710.453L3131.25 764.629H3131.99L3152.98 710.893L3154.74 702.378H3165.75L3137.86 775.493ZM3226.54 766.097L3227.42 766.978L3226.39 775.493H3181.9L3182.35 753.47L3181.9 702.378H3226.68L3227.42 703.259L3226.54 711.774L3208.04 711.187L3192.77 711.334L3192.62 733.503L3207.16 733.65L3219.93 733.21L3220.66 734.237L3219.78 742.9L3206.28 742.459L3192.62 742.606L3192.48 752.59L3192.62 766.537L3207.01 766.684L3226.54 766.097ZM3280.07 711.334L3279.92 735.412L3292.55 735.559L3305.47 735.118L3306.2 736.146L3305.47 744.515L3291.52 744.368L3279.77 744.515V752.59L3280.07 775.493H3269.2L3269.5 753.47L3269.2 702.378H3311.78L3312.37 703.259L3311.49 711.774L3293.43 711.187L3280.07 711.334ZM3355.35 701.497C3366.02 701.497 3374.19 704.629 3379.87 710.893C3385.64 717.158 3388.53 726.016 3388.53 737.467C3388.53 749.898 3385.45 759.539 3379.28 766.39C3373.21 773.144 3364.5 776.521 3353.15 776.521C3342.58 776.521 3334.4 773.34 3328.63 766.978C3322.85 760.518 3319.97 751.366 3319.97 739.523C3319.97 727.386 3323.05 718.038 3329.21 711.481C3335.38 704.825 3344.09 701.497 3355.35 701.497ZM3354.32 710.746C3346.59 710.746 3340.81 712.949 3337 717.353C3333.28 721.758 3331.42 728.707 3331.42 738.201C3331.42 748.381 3333.28 755.771 3337 760.371C3340.72 764.971 3346.39 767.271 3354.03 767.271C3361.86 767.271 3367.68 765.02 3371.5 760.518C3375.32 756.015 3377.22 748.968 3377.22 739.376C3377.22 729.49 3375.32 722.247 3371.5 717.647C3367.78 713.047 3362.05 710.746 3354.32 710.746ZM3441.92 745.983C3447.89 755.085 3454.5 764.041 3461.74 772.85L3461.59 774.319C3457.48 775.591 3454.1 776.325 3451.46 776.521L3449.55 775.346C3442.11 764.09 3436.49 755.232 3432.67 748.772L3418.87 748.919V752.59L3419.16 775.493H3408.3L3408.74 753.47L3408.3 702.378L3433.26 702.231C3440.99 702.231 3446.91 704.042 3451.02 707.663C3455.23 711.285 3457.33 716.521 3457.33 723.373C3457.33 728.365 3455.96 732.818 3453.22 736.733C3450.58 740.648 3446.81 743.732 3441.92 745.983ZM3419.01 739.816L3432.82 740.257C3441.53 737.81 3445.88 732.476 3445.88 724.254C3445.88 719.947 3444.61 716.717 3442.06 714.564C3439.52 712.41 3435.65 711.236 3430.47 711.04L3419.16 711.187L3419.01 739.816ZM3539.42 680.649C3549.31 680.649 3557.87 682.998 3565.12 687.696L3562.77 698.414L3561.45 698.707C3554.89 693.226 3547.35 690.486 3538.84 690.486C3529.54 690.486 3522.39 693.716 3517.4 700.176C3512.41 706.538 3509.91 715.885 3509.91 728.218C3509.91 740.648 3512.41 750.143 3517.4 756.7C3522.39 763.258 3529.44 766.537 3538.54 766.537C3542.85 766.537 3547.11 765.754 3551.32 764.188C3555.62 762.622 3559.54 760.42 3563.06 757.581L3564.53 758.315L3563.5 769.474C3554.99 774.172 3546.32 776.521 3537.52 776.521C3524.89 776.521 3515.1 772.459 3508.15 764.335C3501.2 756.113 3497.73 744.417 3497.73 729.246C3497.73 713.683 3501.35 701.693 3508.59 693.275C3515.84 684.858 3526.11 680.649 3539.42 680.649ZM3620.99 767.271L3620.25 775.493H3581.35L3581.79 753.47L3581.35 702.378H3592.36L3591.92 752.59L3592.21 766.244H3620.4L3620.99 767.271ZM3693.95 775.493H3682.94L3681.17 767.565L3677.36 756.7L3659.89 756.554L3644.32 756.7L3640.36 766.978L3638.3 775.493H3627.44L3655.63 702.378H3668.25L3693.95 775.493ZM3674.27 747.745L3662.09 713.096H3661.21L3647.85 747.745L3660.77 747.891L3674.27 747.745ZM3765.91 739.523V750.094C3766 758.413 3763.46 764.873 3758.27 769.474C3753.18 774.074 3745.84 776.374 3736.25 776.374C3726.75 776.374 3719.51 774.123 3714.52 769.62C3709.53 765.02 3707.13 758.511 3707.33 750.094L3707.47 738.936L3707.33 702.378H3718.34L3717.75 748.332C3717.65 754.498 3719.17 759.147 3722.3 762.28C3725.53 765.412 3730.33 766.978 3736.69 766.978C3742.95 766.978 3747.7 765.412 3750.93 762.28C3754.16 759.147 3755.73 754.498 3755.63 748.332L3755.19 702.378H3766.35L3765.91 739.523ZM3818.88 701.791C3830.04 701.791 3838.56 704.776 3844.43 710.746C3850.4 716.717 3853.38 725.281 3853.38 736.44C3853.38 749.262 3850.15 759.099 3843.69 765.95C3837.23 772.802 3827.98 776.227 3815.95 776.227C3812.52 776.227 3808.41 776.129 3803.61 775.934C3798.91 775.836 3794.46 775.689 3790.25 775.493L3790.69 753.47L3790.25 702.378L3818.88 701.791ZM3817.71 767.271C3825.54 767.271 3831.56 764.922 3835.77 760.224C3840.07 755.428 3842.23 748.234 3842.23 738.642C3842.23 729.246 3840.22 722.296 3836.21 717.794C3832.19 713.291 3826.12 711.04 3818 711.04C3813.2 711.04 3807.58 711.236 3801.12 711.627L3800.82 752.59L3800.97 766.39C3803.81 766.586 3806.79 766.782 3809.93 766.978C3813.06 767.173 3815.65 767.271 3817.71 767.271ZM3918.04 766.097L3918.92 766.978L3917.9 775.493H3873.41L3873.85 753.47L3873.41 702.378H3918.19L3918.92 703.259L3918.04 711.774L3899.54 711.187L3884.28 711.334L3884.13 733.503L3898.66 733.65L3911.44 733.21L3912.17 734.237L3911.29 742.9L3897.78 742.459L3884.13 742.606L3883.98 752.59L3884.13 766.537L3898.52 766.684L3918.04 766.097Z" fill="#2D3342"/>
<path d="M3744.56 857.612C3748.81 858.454 3750.94 860.714 3750.94 864.392C3750.94 867.15 3749.86 869.218 3747.72 870.597C3745.57 871.976 3742.43 872.666 3738.29 872.666C3735.81 872.666 3733.41 872.608 3731.11 872.493L3731.29 863.875L3731.11 843.879L3740.08 843.822C3742.95 843.822 3745.17 844.435 3746.74 845.66C3748.35 846.848 3749.15 848.552 3749.15 850.774C3749.15 852.421 3748.75 853.819 3747.95 854.969C3747.14 856.118 3746.01 856.999 3744.56 857.612ZM3744.62 851.291C3744.62 849.874 3744.16 848.84 3743.24 848.189C3742.32 847.537 3740.84 847.212 3738.81 847.212H3735.31L3735.25 856.06L3740.36 856.233C3741.78 855.926 3742.83 855.39 3743.52 854.624C3744.25 853.819 3744.62 852.709 3744.62 851.291ZM3738.81 869.39C3741.3 869.39 3743.2 868.969 3744.5 868.126C3745.84 867.245 3746.51 865.962 3746.51 864.277C3746.51 862.898 3746.05 861.825 3745.13 861.059C3744.21 860.293 3742.81 859.776 3740.94 859.508L3735.25 859.565L3735.19 863.53L3735.31 869.218C3736.49 869.333 3737.66 869.39 3738.81 869.39ZM3768.77 864.277L3768.94 872.493H3764.63L3764.86 864.277L3764.81 862.496L3755.1 843.879H3759.81L3760.38 845.545L3766.82 857.841H3767.11L3774.12 845.718L3774.86 843.879H3779.46L3768.83 862.496L3768.77 864.277ZM3805.64 835.375C3808.29 835.375 3811.02 835.95 3813.86 837.099L3813.11 841.523L3812.31 841.753C3811.2 840.911 3810.01 840.259 3808.74 839.8C3807.52 839.34 3806.29 839.11 3805.07 839.11C3803.65 839.11 3802.41 839.397 3801.33 839.972C3800.3 840.547 3799.49 841.294 3798.92 842.213C3798.38 843.132 3798.12 844.09 3798.12 845.086C3798.12 846.12 3798.42 847.039 3799.03 847.844C3799.69 848.61 3800.49 849.28 3801.45 849.855C3802.41 850.429 3803.71 851.119 3805.35 851.923C3807.42 852.881 3809.09 853.781 3810.35 854.624C3811.62 855.428 3812.69 856.462 3813.57 857.727C3814.49 858.991 3814.95 860.523 3814.95 862.323C3814.95 864.238 3814.43 866 3813.4 867.609C3812.36 869.218 3810.91 870.501 3809.03 871.459C3807.16 872.417 3805.01 872.895 3802.6 872.895C3800.99 872.895 3799.3 872.685 3797.54 872.263C3795.82 871.804 3794.21 871.152 3792.71 870.31L3793.29 865.598L3793.92 865.311C3795.26 866.613 3796.74 867.59 3798.34 868.241C3799.99 868.854 3801.56 869.161 3803.06 869.161C3804.51 869.161 3805.8 868.873 3806.91 868.299C3808.06 867.724 3808.92 866.958 3809.49 866C3810.1 865.043 3810.41 864.028 3810.41 862.955C3810.41 861.346 3809.8 860.063 3808.57 859.106C3807.35 858.11 3805.49 857.037 3803 855.888C3800.97 854.892 3799.34 854.011 3798.12 853.245C3796.89 852.44 3795.84 851.425 3794.95 850.2C3794.07 848.935 3793.63 847.403 3793.63 845.603C3793.63 843.726 3794.13 842.002 3795.13 840.432C3796.16 838.861 3797.58 837.635 3799.38 836.754C3801.22 835.835 3803.31 835.375 3805.64 835.375ZM3833.72 843.592C3836.9 843.592 3839.66 844.262 3841.99 845.603L3841.19 849.568L3840.67 849.74C3839.72 848.935 3838.6 848.303 3837.34 847.844C3836.08 847.384 3834.72 847.154 3833.26 847.154C3830.43 847.154 3828.26 848.074 3826.77 849.912C3825.27 851.713 3824.53 854.413 3824.53 858.014C3824.53 861.653 3825.27 864.43 3826.77 866.345C3828.26 868.26 3830.43 869.218 3833.26 869.218C3834.64 869.218 3836.02 868.988 3837.4 868.529C3838.82 868.031 3840.08 867.379 3841.19 866.575L3841.71 866.747L3841.3 870.712C3838.7 872.129 3835.96 872.838 3833.09 872.838C3828.87 872.838 3825.64 871.593 3823.38 869.103C3821.12 866.575 3819.99 862.993 3819.99 858.359C3819.99 853.647 3821.18 850.008 3823.55 847.442C3825.96 844.875 3829.35 843.592 3833.72 843.592ZM3860.26 843.534C3864.44 843.534 3867.64 844.76 3869.86 847.212C3872.12 849.663 3873.25 853.13 3873.25 857.612C3873.25 862.476 3872.04 866.249 3869.63 868.931C3867.25 871.574 3863.85 872.895 3859.4 872.895C3855.26 872.895 3852.07 871.65 3849.81 869.161C3847.55 866.632 3846.42 863.051 3846.42 858.416C3846.42 853.666 3847.62 850.008 3850.04 847.442C3852.45 844.837 3855.86 843.534 3860.26 843.534ZM3859.86 847.154C3856.84 847.154 3854.58 848.016 3853.08 849.74C3851.63 851.464 3850.9 854.183 3850.9 857.899C3850.9 861.883 3851.63 864.775 3853.08 866.575C3854.54 868.375 3856.76 869.276 3859.75 869.276C3862.81 869.276 3865.09 868.395 3866.58 866.632C3868.08 864.87 3868.83 862.112 3868.83 858.359C3868.83 854.49 3868.08 851.655 3866.58 849.855C3865.13 848.054 3862.89 847.154 3859.86 847.154ZM3896.78 844.224L3896.5 847.844L3891.15 847.442H3888.28L3888.11 863.53L3888.28 872.493H3883.97L3884.14 863.875L3884.03 847.442H3881.16L3875.7 847.844L3875.35 847.442L3875.7 843.879H3896.55L3896.78 844.224ZM3921.87 844.224L3921.58 847.844L3916.23 847.442H3913.36L3913.19 863.53L3913.36 872.493H3909.05L3909.22 863.875L3909.11 847.442H3906.24L3900.78 847.844L3900.43 847.442L3900.78 843.879H3921.64L3921.87 844.224Z" fill="#2D3342"/>
<path d="M614.667 34.6667V69.3333H647.333H680V111.333V153.333H508H336V356V558.667H321.333H306.667V416V273.333H153.333C44.2667 273.333 0 273.733 0 274.8C0 275.6 4.93334 281.467 11.0667 287.867C17.0667 294.267 27.4667 305.467 34.1333 312.8C40.8 320 56.6667 337.067 69.3333 350.667C82 364.267 93.8667 377.333 95.7333 379.733L99.0667 384L91.8667 392.4C88 396.933 82.4 403.067 79.3333 406C76.4 408.933 68 418 60.6667 426C46.2667 441.733 34.8 454.133 14 476.4C6.66667 484.267 0.533333 491.2 0.266666 492C-0.133334 492.933 38.1333 493.333 115.867 493.333C200.933 493.333 232.133 493.733 232.8 494.8C233.333 495.733 234 510.4 234.4 527.467L235.067 558.667H211.467H188V661.333V764H212.667H237.333V785.333V806.667H274.133H310.933L310 785.333L308.933 764H322.533H336V863.333V962.667H374.667H413.333V1066V1169.33H451.333H489.333V1066V962.667H524.667H560V1066V1169.33H598H636V1066V962.667H779.333H922.667V1066V1169.33H960.667H998.667V1066V962.667H1034H1069.33V1066V1169.33H1107.33H1145.33V1066V962.667H1184H1222.67L1222.93 863.733L1223.33 764.667L1297.07 764.267L1370.67 764V661.333V558.667L1297.07 558.4L1223.33 558L1222.93 355.6L1222.67 153.333H1062.67H902.667V111.333V69.3333H934.667H966.667V34.6667V0H896.667H826.667V76.6667V153.333H791.333H756V76.6667V0H685.333H614.667V34.6667ZM560 458.667V558.667H524.667H489.333V459.6C489.333 405.067 489.733 360 490.267 359.6C490.667 359.067 506.667 358.667 525.6 358.667H560V458.667ZM1069.07 458.933L1069.33 558.667H1034H998.667V459.6C998.667 405.067 999.067 360 999.6 359.6C1000.13 359.067 1015.87 358.8 1034.53 358.933L1068.67 359.333L1069.07 458.933Z" fill="#8798C3"/>
</svg>
