<svg width="1625" height="514" viewBox="0 0 1625 514" fill="none" xmlns="http://www.w3.org/2000/svg">
<path d="M739.699 341.986C750.853 359.444 763.583 377.57 777.889 396.362L777.344 400.363C764.614 403.151 752.49 405.091 740.972 406.182L736.971 404C724.604 382.783 714.481 364.779 706.6 349.988L706.237 365.809L707.692 404H671.138L672.956 369.447L671.138 286.337H708.237L706.964 335.439L729.515 299.067L735.698 286.337H774.252L739.699 341.986ZM824.518 308.887C839.067 308.887 850.281 312.888 858.162 320.89C866.164 328.892 870.165 340.228 870.165 354.898C870.165 371.144 865.739 383.753 856.889 392.725C848.16 401.575 835.793 406 819.79 406C805.241 406 793.965 401.939 785.964 393.816C778.083 385.572 774.143 374.054 774.143 359.262C774.143 343.259 778.507 330.892 787.237 322.163C796.087 313.313 808.514 308.887 824.518 308.887ZM821.426 335.621C818.032 335.621 815.486 336.106 813.788 337.076C812.212 337.924 811.06 339.682 810.333 342.35C809.727 345.017 809.424 349.139 809.424 354.716C809.424 362.354 809.787 367.992 810.515 371.629C811.242 375.266 812.515 377.752 814.334 379.085C816.152 380.419 819.002 381.086 822.881 381.086C826.397 381.086 828.943 380.661 830.519 379.813C832.217 378.843 833.368 377.085 833.975 374.539C834.581 371.871 834.884 367.749 834.884 362.172C834.884 354.413 834.52 348.715 833.793 345.077C833.187 341.44 831.914 338.955 829.974 337.621C828.155 336.288 825.306 335.621 821.426 335.621ZM927.576 310.16C942.246 310.16 953.46 313.919 961.22 321.436C969.1 328.831 973.041 339.5 973.041 353.443C973.041 370.174 968.433 383.026 959.219 391.997C950.005 400.969 936.79 405.455 919.574 405.455C910.844 405.455 898.114 404.97 881.383 404L883.02 376.903L881.383 310.706L927.576 310.16ZM925.939 380.54C929.819 380.54 932.728 379.146 934.668 376.357C936.729 373.569 937.76 368.719 937.76 361.809C937.76 355.14 937.335 349.988 936.487 346.35C935.759 342.713 934.426 340.167 932.486 338.712C930.667 337.136 928.061 336.348 924.666 336.348C922.12 336.348 918.846 336.53 914.845 336.894L913.754 373.448L913.936 379.085C919.756 380.055 923.757 380.54 925.939 380.54ZM1056.41 377.267L1058.23 379.449L1056.23 404L984.035 404L985.671 376.903L984.035 310.706H1057.51L1059.32 313.07L1057.32 337.621L1032.77 336.53H1017.5L1017.31 344.532H1031.86L1047.69 343.986L1049.5 346.35L1047.5 370.902L1029.68 370.356H1016.59L1016.41 373.448L1016.59 378.176H1030.95L1056.41 377.267Z" fill="#8798C3"/>
<path d="M751.32 161.256C771.408 189.228 794.593 218.515 820.876 249.115L820.312 253.339C809.799 255.967 797.409 258.126 783.141 259.816L778.636 257.563C754.042 224.898 732.171 193.546 713.023 163.509L712.459 199.553L713.867 257H675.851L677.822 202.933L675.851 75.6491L714.431 75.6491L713.023 159.848L763.992 93.1084L774.412 75.6491L815.525 75.6491L751.32 161.256ZM923.655 200.961C936.234 219.172 947.967 235.129 958.856 248.834L958.574 252.776C946.934 256.343 935.483 258.502 924.219 259.253L919.15 255.874C908.637 237.663 900.47 222.739 894.651 211.099H872.967V211.381L874.375 257H838.894L840.302 214.76L838.894 114.792L900.283 114.51C916.24 114.51 928.537 118.265 937.172 125.774C945.996 133.096 950.408 143.609 950.408 157.313C950.408 166.137 948.061 174.397 943.368 182.094C938.674 189.604 932.103 195.893 923.655 200.961ZM873.531 184.065L894.651 185.192C901.034 183.127 905.727 180.123 908.731 176.181C911.734 172.238 913.236 167.169 913.236 160.974C913.236 154.216 911.265 149.241 907.323 146.049C903.38 142.67 897.185 140.793 888.737 140.417L874.375 140.981L873.531 184.065ZM1107.94 257H1072.18L1068.23 236.443L1065.7 228.277L1036.98 227.995L1011.63 228.558L1009.66 234.472L1005.44 257H970.799L1020.64 114.792L1062.6 114.792L1107.94 257ZM1058.1 201.525L1042.04 147.176H1039.79L1020.92 201.525L1039.23 201.806L1058.1 201.525ZM1247.57 187.163L1247.29 208.846C1247.48 224.991 1242.13 237.476 1231.24 246.299C1220.54 254.935 1205.15 259.253 1185.06 259.253C1165.53 259.253 1150.61 254.935 1140.28 246.299C1129.96 237.476 1125.08 224.991 1125.64 208.846L1125.92 186.6L1125.08 114.792L1160.56 114.792L1158.87 203.777C1158.68 212.976 1160.84 219.735 1165.35 224.053C1170.04 228.371 1177.08 230.53 1186.47 230.53C1196.04 230.53 1203.08 228.371 1207.59 224.053C1212.28 219.547 1214.53 212.789 1214.34 203.777L1212.94 114.792L1248.7 114.792L1247.57 187.163ZM1370.53 183.502C1380.48 185.943 1387.8 189.885 1392.5 195.329C1397.38 200.586 1399.82 207.626 1399.82 216.449C1399.82 230.717 1393.9 241.23 1382.08 247.989C1370.25 254.747 1352.7 258.126 1329.42 258.126C1319.09 258.126 1304.54 257.751 1285.77 257L1287.18 214.76L1285.77 114.792L1342.93 114.51C1358.7 114.51 1371 117.608 1379.82 123.803C1388.84 129.998 1393.34 138.915 1393.34 150.555C1393.34 158.064 1391.37 164.635 1387.43 170.267C1383.49 175.899 1377.85 180.311 1370.53 183.502ZM1356.45 155.342C1356.45 149.522 1354.39 145.486 1350.26 143.233C1346.31 140.981 1339.27 139.854 1329.14 139.854H1320.41L1319.84 173.365L1340.4 173.928C1345.84 172.614 1349.88 170.549 1352.51 167.733C1355.14 164.729 1356.45 160.599 1356.45 155.342ZM1335.61 233.346C1344.62 233.346 1351.48 231.844 1356.17 228.84C1361.05 225.648 1363.49 220.955 1363.49 214.76C1363.49 210.254 1361.9 206.687 1358.7 204.059C1355.51 201.431 1350.63 199.366 1344.06 197.864L1319.56 198.427L1319.28 211.381L1319.84 232.501C1325.85 233.064 1331.11 233.346 1335.61 233.346ZM1528.96 228.277L1531.21 230.53L1528.68 257H1431.25L1432.65 214.76L1431.25 114.792L1530.09 114.792L1532.06 117.608L1529.81 143.797L1493.2 142.389H1466.73L1466.16 171.112L1491.51 171.393L1516.01 170.549L1517.98 173.083L1515.73 199.835L1488.97 198.99H1465.6L1465.32 211.381L1465.88 229.403H1490.66L1528.96 228.277Z" fill="#2D3342"/>
<path d="M270.399 15.2384V30.4767H284.769H299.139V48.9384V67.4002H223.475H147.81V156.486V245.572H141.358H134.906V182.86V120.148H67.4528C19.4734 120.148 0 120.324 0 120.793C0 121.145 2.17023 123.724 4.86837 126.537C7.50783 129.35 12.0829 134.273 15.0156 137.497C17.9484 140.662 24.9283 148.164 30.5005 154.142C36.0727 160.12 41.293 165.863 42.1141 166.918L43.5805 168.794L40.4132 172.486C38.7121 174.479 36.2486 177.175 34.8996 178.465C33.6092 179.754 29.9139 183.739 26.6879 187.256C20.3532 194.172 15.3089 199.622 6.15876 209.41C2.93274 212.868 0.234619 215.916 0.117309 216.267C-0.0586549 216.678 16.7753 216.853 50.9711 216.853C88.3926 216.853 102.118 217.029 102.411 217.498C102.646 217.908 102.939 224.355 103.115 231.858L103.408 245.572H93.0266H82.7032V290.701V335.83H93.5545H104.405V345.207V354.585H120.594H136.783L136.372 345.207L135.903 335.83H141.886H147.81V379.494V423.158H164.82H181.83V468.579V514H198.546H215.263V468.579V423.158H230.807H246.35V468.579V514H263.067H279.783V468.579V423.158H342.837H405.891V468.579V514H422.608H439.324V468.579V423.158H454.868H470.41V468.579V514H487.126H503.843V468.579V423.158H520.854H537.866L537.98 379.669L538.156 336.123L570.595 335.947L602.972 335.83V290.701V245.572L570.595 245.455L538.156 245.279L537.98 156.31L537.866 67.4002L467.48 67.4002H397.093V48.9384V30.4767H411.17H425.247V15.2384V0L394.453 0L363.66 0V33.7002V67.4002H348.116H332.572V33.7002V0L301.485 0L270.399 0V15.2384ZM246.35 201.615V245.572H230.807H215.263V202.025C215.263 178.054 215.439 158.244 215.674 158.069C215.85 157.834 222.888 157.658 231.217 157.658H246.35V201.615ZM470.295 201.732L470.41 245.572H454.868H439.324V202.025C439.324 178.054 439.5 158.244 439.735 158.069C439.968 157.834 446.892 157.717 455.101 157.775L470.119 157.951L470.295 201.732Z" fill="#8798C3"/>
</svg>
