<svg width="2557" height="883" viewBox="0 0 2557 883" fill="none" xmlns="http://www.w3.org/2000/svg">
<path d="M1255.46 291.208C1286.89 334.97 1323.16 380.789 1364.28 428.664L1363.4 435.273C1346.96 439.385 1327.57 442.762 1305.25 445.406L1298.2 441.881C1259.72 390.775 1225.51 341.726 1195.55 294.732L1194.67 351.125L1196.87 441H1137.39L1140.48 356.411L1137.39 157.275H1197.75L1195.55 289.005L1275.29 184.591L1291.59 157.275H1355.91L1255.46 291.208ZM1525.08 353.327C1544.76 381.817 1563.12 406.783 1580.15 428.224L1579.71 434.392C1561.5 439.972 1543.59 443.35 1525.96 444.525L1518.03 439.238C1501.59 410.748 1488.81 387.398 1479.71 369.188H1445.78V369.628L1447.98 441H1392.47L1394.68 374.915L1392.47 218.514L1488.52 218.074C1513.48 218.074 1532.72 223.948 1546.23 235.696C1560.04 247.151 1566.94 263.599 1566.94 285.04C1566.94 298.844 1563.27 311.767 1555.92 323.809C1548.58 335.558 1538.3 345.397 1525.08 353.327ZM1446.66 326.893L1479.71 328.656C1489.69 325.425 1497.03 320.725 1501.73 314.558C1506.43 308.39 1508.78 300.459 1508.78 290.767C1508.78 280.193 1505.7 272.41 1499.53 267.417C1493.36 262.13 1483.67 259.193 1470.45 258.606L1447.98 259.487L1446.66 326.893ZM1813.4 441H1757.44L1751.28 408.839L1747.31 396.062L1702.37 395.622L1662.72 396.503L1659.64 405.755L1653.03 441H1598.84L1676.82 218.514H1742.47L1813.4 441ZM1735.42 354.208L1710.3 269.179H1706.78L1677.26 354.208L1705.9 354.649L1735.42 354.208ZM2031.86 331.74L2031.41 365.663C2031.71 390.922 2023.34 410.454 2006.3 424.258C1989.56 437.769 1965.48 444.525 1934.05 444.525C1903.5 444.525 1880.15 437.769 1864 424.258C1847.85 410.454 1840.21 390.922 1841.09 365.663L1841.53 330.858L1840.21 218.514H1895.72L1893.08 357.733C1892.78 372.125 1896.16 382.698 1903.21 389.454C1910.55 396.209 1921.57 399.587 1936.25 399.587C1951.23 399.587 1962.25 396.209 1969.29 389.454C1976.64 382.405 1980.16 371.831 1979.87 357.733L1977.67 218.514H2033.62L2031.86 331.74ZM2224.22 326.012C2239.79 329.83 2251.25 335.998 2258.59 344.516C2266.22 352.74 2270.04 363.754 2270.04 377.558C2270.04 399.88 2260.79 416.328 2242.29 426.902C2223.78 437.475 2196.32 442.762 2159.9 442.762C2143.75 442.762 2120.98 442.175 2091.61 441L2093.82 374.915L2091.61 218.514L2181.05 218.074C2205.72 218.074 2224.96 222.92 2238.76 232.612C2252.86 242.305 2259.91 256.256 2259.91 274.466C2259.91 286.214 2256.83 296.494 2250.66 305.306C2244.49 314.117 2235.68 321.019 2224.22 326.012ZM2202.2 281.956C2202.2 272.851 2198.96 266.536 2192.5 263.011C2186.34 259.487 2175.32 257.725 2159.46 257.725H2145.8L2144.92 310.152L2177.08 311.033C2185.6 308.977 2191.92 305.746 2196.03 301.341C2200.14 296.641 2202.2 290.18 2202.2 281.956ZM2169.59 403.992C2183.69 403.992 2194.41 401.643 2201.76 396.943C2209.39 391.95 2213.21 384.608 2213.21 374.915C2213.21 367.866 2210.71 362.286 2205.72 358.174C2200.73 354.062 2193.09 350.831 2182.81 348.481L2144.48 349.362L2144.04 369.628L2144.92 402.671C2154.32 403.552 2162.54 403.992 2169.59 403.992ZM2472.09 396.062L2475.61 399.587L2471.65 441H2319.21L2321.41 374.915L2319.21 218.514H2473.85L2476.93 222.92L2473.41 263.892L2416.14 261.69H2374.72L2373.84 306.627L2413.49 307.068L2451.82 305.746L2454.91 309.711L2451.38 351.565L2409.53 350.243H2372.96L2372.52 369.628L2373.4 397.825H2412.17L2472.09 396.062Z" fill="#2D3342"/>
<path d="M1469.34 154H1460.07L1446.09 112.417H1445.31L1430.56 154H1421.28L1398.47 82.3479H1407.42L1408.65 89.2784L1426.08 144.051H1426.87L1442.29 100.457L1436.26 82.3479H1445.42L1447.1 90.0608L1464.76 144.051H1465.43L1484.88 89.7255L1486.56 82.3479H1495.05L1469.34 154ZM1514.01 136.562L1514.23 154H1505.96L1506.3 137.233L1505.96 98.3327H1514.34L1514.01 136.562ZM1568.57 99.0034L1568.01 106.046L1557.62 105.263H1552.03L1551.69 136.562L1552.03 154H1543.64L1543.98 137.233L1543.76 105.263H1538.17L1527.55 106.046L1526.88 105.263L1527.55 98.3327H1568.12L1568.57 99.0034ZM1628.43 136.562L1628.66 154H1620.39L1620.72 137.233L1620.61 129.632L1590.32 129.743L1590.2 136.562L1590.43 154H1582.16L1582.49 137.233L1582.16 98.3327H1590.54L1590.32 122.254L1605.41 122.366L1620.61 122.254L1620.39 98.3327H1628.77L1628.43 136.562ZM1697.15 147.74L1696.59 154H1666.97L1667.31 137.233L1666.97 98.3327H1675.35L1675.02 136.562L1675.24 146.958H1696.7L1697.15 147.74ZM1727.31 97.662C1735.43 97.662 1741.65 100.047 1745.98 104.816C1750.37 109.585 1752.57 116.33 1752.57 125.049C1752.57 134.513 1750.22 141.853 1745.53 147.07C1740.91 152.211 1734.28 154.782 1725.63 154.782C1717.58 154.782 1711.36 152.361 1706.96 147.517C1702.57 142.598 1700.37 135.631 1700.37 126.613C1700.37 117.373 1702.72 110.256 1707.41 105.263C1712.11 100.196 1718.74 97.662 1727.31 97.662ZM1726.53 104.704C1720.64 104.704 1716.24 106.381 1713.34 109.734C1710.5 113.088 1709.09 118.379 1709.09 125.607C1709.09 133.358 1710.5 138.984 1713.34 142.486C1716.17 145.989 1720.49 147.74 1726.3 147.74C1732.26 147.74 1736.7 146.026 1739.61 142.598C1742.51 139.17 1743.96 133.805 1743.96 126.502C1743.96 118.975 1742.51 113.46 1739.61 109.958C1736.77 106.455 1732.41 104.704 1726.53 104.704ZM1788.23 154H1778.28L1758.83 98.3327H1767.44L1768.78 104.481L1783.2 145.728H1783.76L1799.75 104.816L1801.09 98.3327H1809.47L1788.23 154ZM1855.75 146.846L1856.42 147.517L1855.64 154H1821.77L1822.1 137.233L1821.77 98.3327H1855.86L1856.42 99.0034L1855.75 105.487L1841.66 105.04L1830.04 105.151L1829.93 122.03L1840.99 122.142L1850.72 121.807L1851.28 122.589L1850.61 129.184L1840.32 128.849L1829.93 128.961L1829.81 136.562L1829.93 147.181L1840.88 147.293L1855.75 146.846ZM1896.5 105.151L1896.39 123.484L1906.01 123.595L1915.84 123.26L1916.4 124.042L1915.84 130.414L1905.22 130.302L1896.28 130.414V136.562L1896.5 154H1888.23L1888.46 137.233L1888.23 98.3327H1920.65L1921.1 99.0034L1920.43 105.487L1906.68 105.04L1896.5 105.151ZM1953.82 97.662C1961.94 97.662 1968.17 100.047 1972.49 104.816C1976.88 109.585 1979.08 116.33 1979.08 125.049C1979.08 134.513 1976.74 141.853 1972.04 147.07C1967.42 152.211 1960.79 154.782 1952.14 154.782C1944.09 154.782 1937.87 152.361 1933.48 147.517C1929.08 142.598 1926.88 135.631 1926.88 126.613C1926.88 117.373 1929.23 110.256 1933.92 105.263C1938.62 100.196 1945.25 97.662 1953.82 97.662ZM1953.04 104.704C1947.15 104.704 1942.75 106.381 1939.85 109.734C1937.02 113.088 1935.6 118.379 1935.6 125.607C1935.6 133.358 1937.02 138.984 1939.85 142.486C1942.68 145.989 1947 147.74 1952.81 147.74C1958.78 147.74 1963.21 146.026 1966.12 142.598C1969.02 139.17 1970.48 133.805 1970.48 126.502C1970.48 118.975 1969.02 113.46 1966.12 109.958C1963.28 106.455 1958.92 104.704 1953.04 104.704ZM2019.73 131.532C2024.28 138.462 2029.31 145.281 2034.82 151.988L2034.71 153.106C2031.58 154.075 2029.01 154.633 2027 154.782L2025.54 153.888C2019.88 145.318 2015.6 138.574 2012.69 133.656L2002.18 133.768V136.562L2002.4 154H1994.13L1994.47 137.233L1994.13 98.3327L2013.14 98.2209C2019.02 98.2209 2023.53 99.5995 2026.66 102.357C2029.87 105.114 2031.47 109.101 2031.47 114.317C2031.47 118.118 2030.42 121.509 2028.34 124.49C2026.33 127.47 2023.46 129.818 2019.73 131.532ZM2002.29 126.837L2012.8 127.172C2019.43 125.309 2022.75 121.248 2022.75 114.988C2022.75 111.709 2021.78 109.25 2019.84 107.611C2017.91 105.971 2014.96 105.077 2011.01 104.928L2002.4 105.04L2002.29 126.837ZM2093.97 81.789C2101.5 81.789 2108.02 83.5775 2113.53 87.1545L2111.74 95.3146L2110.74 95.5381C2105.74 91.3649 2100.01 89.2784 2093.52 89.2784C2086.44 89.2784 2081 91.7376 2077.2 96.656C2073.4 101.5 2071.5 108.617 2071.5 118.006C2071.5 127.47 2073.4 134.699 2077.2 139.692C2081 144.685 2086.37 147.181 2093.3 147.181C2096.58 147.181 2099.82 146.585 2103.02 145.393C2106.3 144.2 2109.28 142.524 2111.97 140.363L2113.08 140.922L2112.3 149.417C2105.82 152.994 2099.22 154.782 2092.52 154.782C2082.9 154.782 2075.45 151.69 2070.16 145.505C2064.87 139.245 2062.22 130.34 2062.22 118.789C2062.22 106.94 2064.98 97.811 2070.49 91.4022C2076.01 84.9934 2083.83 81.789 2093.97 81.789ZM2156.07 147.74L2155.51 154H2125.89L2126.22 137.233L2125.89 98.3327H2134.27L2133.93 136.562L2134.16 146.958H2155.62L2156.07 147.74ZM2211.62 154H2203.23L2201.89 147.964L2198.99 139.692L2185.68 139.58L2173.84 139.692L2170.82 147.517L2169.25 154H2160.98L2182.44 98.3327H2192.06L2211.62 154ZM2196.64 132.873L2187.36 106.493H2186.69L2176.52 132.873L2186.35 132.985L2196.64 132.873ZM2266.4 126.613V134.662C2266.48 140.996 2264.54 145.914 2260.59 149.417C2256.72 152.919 2251.13 154.671 2243.82 154.671C2236.6 154.671 2231.08 152.957 2227.28 149.529C2223.48 146.026 2221.65 141.071 2221.8 134.662L2221.91 126.166L2221.8 98.3327H2230.19L2229.74 133.32C2229.66 138.015 2230.82 141.555 2233.2 143.94C2235.66 146.324 2239.32 147.517 2244.16 147.517C2248.93 147.517 2252.54 146.324 2255 143.94C2257.46 141.555 2258.65 138.015 2258.58 133.32L2258.24 98.3327H2266.74L2266.4 126.613ZM2306.74 97.8856C2315.23 97.8856 2321.72 100.158 2326.19 104.704C2330.73 109.25 2333.01 115.771 2333.01 124.266C2333.01 134.028 2330.55 141.518 2325.63 146.734C2320.71 151.951 2313.67 154.559 2304.5 154.559C2301.89 154.559 2298.76 154.484 2295.11 154.335C2291.54 154.261 2288.14 154.149 2284.94 154L2285.28 137.233L2284.94 98.3327L2306.74 97.8856ZM2305.84 147.74C2311.81 147.74 2316.39 145.952 2319.59 142.375C2322.87 138.723 2324.51 133.246 2324.51 125.943C2324.51 118.789 2322.98 113.498 2319.93 110.07C2316.87 106.642 2312.25 104.928 2306.07 104.928C2302.42 104.928 2298.13 105.077 2293.21 105.375L2292.99 136.562L2293.1 147.07C2295.26 147.219 2297.53 147.368 2299.92 147.517C2302.3 147.666 2304.28 147.74 2305.84 147.74ZM2382.24 146.846L2382.91 147.517L2382.12 154H2348.25L2348.59 137.233L2348.25 98.3327H2382.35L2382.91 99.0034L2382.24 105.487L2368.15 105.04L2356.53 105.151L2356.41 122.03L2367.48 122.142L2377.21 121.807L2377.76 122.589L2377.09 129.184L2366.81 128.849L2356.41 128.961L2356.3 136.562L2356.41 147.181L2367.37 147.293L2382.24 146.846Z" fill="#2D3342"/>
<path d="M1963.88 595.313C1981.27 622.533 2001.12 650.792 2023.42 680.091L2022.57 686.329C2002.72 690.677 1983.82 693.701 1965.86 695.402L1959.62 692C1940.34 658.92 1924.56 630.85 1912.27 607.789L1911.71 632.457L1913.97 692H1856.98L1859.82 638.127L1856.98 508.55H1914.83L1912.84 585.105L1948 528.397L1957.64 508.55H2017.75L1963.88 595.313ZM2096.12 543.709C2118.8 543.709 2136.29 549.946 2148.58 562.422C2161.05 574.898 2167.29 592.572 2167.29 615.444C2167.29 640.774 2160.39 660.433 2146.59 674.421C2132.98 688.219 2113.7 695.119 2088.75 695.119C2066.07 695.119 2048.49 688.787 2036.01 676.122C2023.72 663.268 2017.58 645.31 2017.58 622.249C2017.58 597.298 2024.38 578.017 2037.99 564.407C2051.79 550.608 2071.17 543.709 2096.12 543.709ZM2091.3 585.389C2086.01 585.389 2082.04 586.145 2079.39 587.657C2076.93 588.98 2075.14 591.721 2074 595.88C2073.06 600.039 2072.59 606.465 2072.59 615.161C2072.59 627.069 2073.15 635.859 2074.29 641.53C2075.42 647.201 2077.41 651.076 2080.24 653.155C2083.08 655.234 2087.52 656.274 2093.57 656.274C2099.05 656.274 2103.02 655.612 2105.48 654.289C2108.12 652.777 2109.92 650.036 2110.86 646.067C2111.81 641.908 2112.28 635.481 2112.28 626.786C2112.28 614.688 2111.72 605.804 2110.58 600.133C2109.64 594.462 2107.65 590.587 2104.63 588.508C2101.79 586.429 2097.35 585.389 2091.3 585.389ZM2256.8 545.693C2279.67 545.693 2297.16 551.553 2309.25 563.273C2321.54 574.803 2327.68 591.438 2327.68 613.176C2327.68 639.262 2320.5 659.298 2306.13 673.286C2291.77 687.274 2271.16 694.268 2244.32 694.268C2230.71 694.268 2210.87 693.512 2184.78 692L2187.33 649.753L2184.78 546.544L2256.8 545.693ZM2254.25 655.423C2260.3 655.423 2264.83 653.25 2267.86 648.902C2271.07 644.554 2272.68 636.993 2272.68 626.219C2272.68 615.822 2272.02 607.789 2270.69 602.118C2269.56 596.447 2267.48 592.477 2264.45 590.209C2261.62 587.752 2257.55 586.523 2252.26 586.523C2248.29 586.523 2243.19 586.807 2236.95 587.374L2235.25 644.365L2235.53 653.155C2244.61 654.667 2250.84 655.423 2254.25 655.423ZM2457.67 650.32L2460.51 653.722L2457.39 692H2344.82L2347.38 649.753L2344.82 546.544H2459.37L2462.21 550.23L2459.09 588.508L2420.81 586.807H2397L2396.71 599.282H2419.4L2444.06 598.432L2446.9 602.118L2443.78 640.396L2415.99 639.545H2395.58L2395.29 644.365L2395.58 651.737H2417.98L2457.67 650.32Z" fill="#8798C3"/>
<path d="M463.803 26.1581V52.3162H488.452H513.101V84.0074V115.699H383.317H253.532V268.623V421.548H242.465H231.399V313.897V206.246H115.699C33.4019 206.246 0 206.548 0 207.353C0 207.957 3.7225 212.384 8.3505 217.213C12.8779 222.042 20.7253 230.493 25.7556 236.026C30.7861 241.459 42.7585 254.337 52.3162 264.599C61.874 274.861 70.8281 284.72 72.2366 286.531L74.7518 289.751L69.319 296.089C66.4013 299.51 62.1758 304.138 59.8618 306.351C57.6484 308.565 51.3101 315.406 45.7767 321.443C34.911 333.314 26.2587 342.671 10.5639 359.472C5.0304 365.409 0.402432 370.64 0.201216 371.244C-0.100608 371.948 28.7739 372.249 87.4286 372.249C151.616 372.249 175.158 372.551 175.662 373.356C176.064 374.06 176.567 385.127 176.869 398.006L177.372 421.548H159.565H141.857V499.016V576.484H160.47H179.082V592.581V608.679H206.85H234.618L233.914 592.581L233.109 576.484H243.371H253.532V651.437V726.39H282.709H311.885V804.361V882.33H340.558H369.231V804.361V726.39H395.893H422.554V804.361V882.33H451.227H479.9V804.361V726.39H588.054H696.208V804.361V882.33H724.881H753.554V804.361V726.39H780.215H806.874V804.361V882.33H835.547H864.221V804.361V726.39H893.399H922.578L922.774 651.739L923.076 576.987L978.717 576.685L1034.25 576.484V499.016V421.548L978.717 421.346L923.076 421.045L922.774 268.322L922.578 115.699H801.849H681.117V84.0074V52.3162H705.263H729.409V26.1581V0H676.589H623.77V57.8496V115.699H597.108H570.448V57.8496V0H517.125H463.803V26.1581ZM422.554 346.092V421.548H395.893H369.231V346.796C369.231 305.647 369.533 271.642 369.936 271.34C370.238 270.938 382.311 270.636 396.597 270.636H422.554V346.092ZM806.678 346.293L806.874 421.548H780.215H753.554V346.796C753.554 305.647 753.856 271.642 754.258 271.34C754.658 270.938 766.535 270.736 780.615 270.837L806.376 271.138L806.678 346.293Z" fill="#8798C3"/>
</svg>
