<svg width="1771" height="583" viewBox="0 0 1771 583" fill="none" xmlns="http://www.w3.org/2000/svg">
<path d="M920.711 177.554C938.418 205.269 958.627 234.043 981.338 263.875L980.472 270.226C960.263 274.653 941.017 277.732 922.732 279.464L916.381 276C896.75 242.319 880.679 213.738 868.169 190.257L867.591 215.374L869.901 276H811.873L814.76 221.148L811.873 89.2133H870.767L868.746 167.161L904.544 109.422L914.36 89.2133H975.564L920.711 177.554ZM1101.7 218.549C1115.56 238.181 1126.72 253.193 1135.19 263.586L1134.33 269.36C1116.43 274.557 1099.01 277.732 1082.07 278.887L1074.86 273.402C1066.77 255.887 1060.9 243.089 1057.24 235.005H1042.81L1044.83 276H991.133L993.731 232.984L991.133 127.899H1070.24C1088.14 127.899 1101.99 131.94 1111.81 140.024C1121.62 147.915 1126.53 159.367 1126.53 174.379C1126.53 182.847 1124.32 190.931 1119.89 198.629C1115.66 206.135 1109.6 212.775 1101.7 218.549ZM1044.54 165.141L1043.39 196.32L1059.27 197.475C1063.11 195.55 1065.81 193.24 1067.35 190.546C1069.08 187.851 1069.95 184.291 1069.95 179.864C1069.95 174.667 1068.5 170.914 1065.62 168.605C1062.73 166.295 1057.82 164.948 1050.89 164.563L1044.54 165.141ZM1236.42 276L1233.25 255.503L1211.3 254.925L1193.98 255.791L1190.81 276H1138.55L1184.46 127.899H1249.12L1290.7 276H1236.42ZM1214.48 216.817L1225.74 216.528L1217.37 175.245H1214.19L1203.22 216.528L1214.48 216.817ZM1435.78 202.96L1435.49 227.21C1435.3 243.955 1429.14 256.85 1417.02 265.896C1404.89 274.749 1387.57 279.176 1365.05 279.176C1343.3 279.176 1326.75 274.749 1315.4 265.896C1304.04 256.85 1298.65 243.955 1299.23 227.21L1299.81 203.248L1298.36 127.899H1351.77L1349.46 219.993C1349.27 226.152 1350.52 230.578 1353.22 233.273C1355.91 235.775 1360.62 237.026 1367.36 237.026C1374.1 237.026 1378.81 235.775 1381.51 233.273C1384.39 230.578 1385.74 226.152 1385.55 219.993L1383.24 127.899H1437.51L1435.78 202.96ZM1574.76 200.073C1584.58 202.96 1591.6 207.098 1595.84 212.487C1600.26 217.683 1602.48 224.516 1602.48 232.984C1602.48 248.574 1595.65 259.929 1581.98 267.05C1568.32 274.172 1547.72 277.732 1520.2 277.732C1507.69 277.732 1489.31 277.155 1465.06 276L1467.66 232.984L1465.06 127.899H1539.83C1558.31 127.899 1572.65 131.171 1582.85 137.714C1593.24 144.258 1598.44 153.881 1598.44 166.584C1598.44 173.705 1596.41 180.153 1592.37 185.927C1588.33 191.701 1582.46 196.416 1574.76 200.073ZM1543.01 174.667C1543.01 171.588 1542.24 169.278 1540.7 167.739C1539.35 166.199 1536.94 165.141 1533.48 164.563C1530.01 163.986 1524.63 163.697 1517.31 163.697L1516.73 186.504L1532.32 187.37C1536.17 186.023 1538.87 184.483 1540.41 182.751C1542.14 180.826 1543.01 178.132 1543.01 174.667ZM1530.59 242.222C1535.79 242.222 1539.83 241.26 1542.72 239.336C1545.8 237.411 1547.34 234.524 1547.34 230.675C1547.34 228.558 1546.57 226.729 1545.03 225.189C1543.49 223.65 1540.89 222.11 1537.23 220.57L1515.87 221.148L1515.58 227.499L1516.16 241.356C1521.93 241.934 1526.74 242.222 1530.59 242.222ZM1740.94 233.562L1743.83 237.026L1740.65 276H1626.04L1628.64 232.984L1626.04 127.899H1742.67L1745.56 131.652L1742.38 170.626L1703.41 168.894H1679.16L1678.87 181.596H1701.97L1727.08 180.73L1729.97 184.483L1726.8 223.457L1698.5 222.591H1677.72L1677.43 227.499L1677.72 235.005H1700.52L1740.94 233.562Z" fill="#2D3342"/>
<path d="M895.702 385.694C908.528 405.768 923.165 426.61 939.615 448.217L938.988 452.818C924.35 456.024 910.41 458.255 897.166 459.509L892.566 457C878.346 432.604 866.706 411.902 857.645 394.895L857.226 413.087L858.899 457H816.868L818.959 417.269L816.868 321.707H859.526L858.063 378.166L883.992 336.344L891.102 321.707H935.433L895.702 385.694ZM993.23 347.636C1009.96 347.636 1022.85 352.237 1031.92 361.437C1041.12 370.638 1045.72 383.673 1045.72 400.541C1045.72 419.221 1040.63 433.719 1030.45 444.035C1020.41 454.212 1006.19 459.3 987.793 459.3C971.065 459.3 958.1 454.63 948.899 445.29C939.838 435.81 935.307 422.567 935.307 405.559C935.307 387.158 940.326 372.938 950.363 362.901C960.54 352.725 974.829 347.636 993.23 347.636ZM989.675 378.375C985.772 378.375 982.844 378.933 980.893 380.048C979.08 381.024 977.756 383.045 976.92 386.112C976.223 389.179 975.874 393.919 975.874 400.332C975.874 409.114 976.292 415.597 977.129 419.779C977.965 423.961 979.429 426.819 981.52 428.352C983.611 429.886 986.887 430.652 991.348 430.652C995.391 430.652 998.318 430.164 1000.13 429.189C1002.08 428.073 1003.41 426.052 1004.1 423.124C1004.8 420.057 1005.15 415.318 1005.15 408.905C1005.15 399.983 1004.73 393.431 1003.89 389.249C1003.2 385.067 1001.73 382.209 999.503 380.675C997.412 379.142 994.136 378.375 989.675 378.375ZM1111.73 349.1C1128.6 349.1 1141.49 353.422 1150.41 362.065C1159.48 370.568 1164.01 382.836 1164.01 398.868C1164.01 418.106 1158.71 432.883 1148.11 443.199C1137.52 453.515 1122.32 458.673 1102.53 458.673C1092.49 458.673 1077.85 458.115 1058.62 457L1060.5 425.843L1058.62 349.727L1111.73 349.1ZM1109.85 430.025C1114.31 430.025 1117.65 428.422 1119.88 425.215C1122.25 422.009 1123.44 416.433 1123.44 408.487C1123.44 400.82 1122.95 394.895 1121.98 390.713C1121.14 386.53 1119.61 383.603 1117.38 381.93C1115.28 380.118 1112.29 379.212 1108.38 379.212C1105.46 379.212 1101.69 379.421 1097.09 379.839L1095.84 421.87L1096.05 428.352C1102.74 429.467 1107.34 430.025 1109.85 430.025ZM1259.87 426.261L1261.96 428.77L1259.66 457H1176.65L1178.53 425.843L1176.65 349.727H1261.13L1263.22 352.446L1260.92 380.675L1232.69 379.421H1215.12L1214.91 388.621H1231.64L1249.84 387.994L1251.93 390.713L1249.63 418.942L1229.13 418.315H1214.08L1213.87 421.87L1214.08 427.307H1230.6L1259.87 426.261Z" fill="#8798C3"/>
<path d="M306.518 17.284V34.5679H322.808H339.098V55.508V76.4481H253.326H167.554V177.493V278.538H160.24H152.927V207.408V136.277H76.4632C22.0747 136.277 0 136.477 0 137.009C0 137.408 2.46013 140.333 5.51868 143.524C8.51073 146.715 13.6969 152.299 17.0214 155.955C20.3459 159.544 28.2582 168.054 34.5747 174.834C40.8913 181.615 46.8089 188.129 47.7397 189.326L49.402 191.453L45.8115 195.641C43.8833 197.901 41.0907 200.96 39.5615 202.422C38.0987 203.884 33.9098 208.405 30.2529 212.393C23.072 220.238 17.3539 226.42 6.98144 237.522C3.32449 241.444 0.265959 244.901 0.13298 245.3C-0.0664901 245.765 19.0161 245.964 57.7799 245.964C100.2 245.964 115.759 246.164 116.091 246.696C116.357 247.161 116.69 254.473 116.889 262.982L117.222 278.538H105.453H93.7507V329.725V380.912H106.052H118.352V391.548V402.185H136.703H155.054L154.589 391.548L154.057 380.912H160.839H167.554V430.437V479.963H186.837H206.118V531.482V583H225.068H244.018V531.482V479.963H261.638H279.257V531.482V583H298.207H317.157V531.482V479.963H388.633H460.11V531.482V583H479.06H498.009V531.482V479.963H515.629H533.247V531.482V583H552.197H571.146V531.482V479.963H590.43H609.714L609.843 430.637L610.043 381.245L646.815 381.045L683.517 380.912V329.725V278.538L646.815 278.405L610.043 278.206L609.843 177.294L609.714 76.4481H529.926H450.137V55.508V34.5679H466.094H482.052V17.284V0H447.144H412.237V38.2242V76.4481H394.617H376.998V38.2242V0H341.758H306.518V17.284ZM279.257 228.68V278.538H261.638H244.018V229.146C244.018 201.957 244.217 179.487 244.483 179.288C244.683 179.022 252.662 178.823 262.103 178.823H279.257V228.68ZM533.117 228.813L533.247 278.538H515.629H498.009V229.146C498.009 201.957 498.209 179.487 498.474 179.288C498.739 179.022 506.588 178.889 515.893 178.955L532.918 179.155L533.117 228.813Z" fill="#8798C3"/>
</svg>
