<svg width="1752" height="950" viewBox="0 0 1752 950" fill="none" xmlns="http://www.w3.org/2000/svg">
<path d="M221.464 651.208C252.891 694.97 289.164 740.789 330.284 788.664L329.403 795.273C312.955 799.385 293.57 802.762 271.248 805.406L264.199 801.881C225.723 750.775 191.506 701.726 161.547 654.732L160.666 711.125L162.869 801H103.392L106.476 716.411L103.392 517.275H163.75L161.547 649.005L241.29 544.591L257.591 517.275H321.913L221.464 651.208ZM491.084 713.327C510.762 741.817 529.119 766.783 546.154 788.224L545.714 794.392C527.504 799.972 509.587 803.35 491.965 804.525L484.035 799.238C467.587 770.748 454.81 747.398 445.705 729.188H411.782V729.628L413.985 801H358.473L360.676 734.915L358.473 578.514L454.517 578.074C479.482 578.074 498.72 583.948 512.231 595.696C526.035 607.151 532.937 623.599 532.937 645.04C532.937 658.844 529.266 671.767 521.923 683.809C514.581 695.558 504.301 705.397 491.084 713.327ZM412.663 686.893L445.705 688.656C455.692 685.425 463.034 680.725 467.734 674.558C472.433 668.39 474.783 660.459 474.783 650.767C474.783 640.193 471.699 632.41 465.531 627.417C459.363 622.13 449.67 619.193 436.453 618.606L413.985 619.487L412.663 686.893ZM779.396 801H723.444L717.276 768.839L713.311 756.062L668.374 755.622L628.723 756.503L625.639 765.755L619.03 801H564.841L642.821 578.514H708.465L779.396 801ZM701.416 714.208L676.304 629.179H672.779L643.261 714.208L671.898 714.649L701.416 714.208ZM997.855 691.74L997.415 725.663C997.708 750.922 989.337 770.454 972.302 784.258C955.561 797.769 931.476 804.525 900.049 804.525C869.504 804.525 846.154 797.769 829.999 784.258C813.845 770.454 806.209 750.922 807.09 725.663L807.531 690.858L806.209 578.514H861.72L859.077 717.733C858.783 732.125 862.161 742.698 869.21 749.454C876.553 756.209 887.567 759.587 902.252 759.587C917.232 759.587 928.246 756.209 935.295 749.454C942.637 742.405 946.162 731.831 945.868 717.733L943.665 578.514H999.617L997.855 691.74ZM1190.22 686.012C1205.79 689.83 1217.25 695.998 1224.59 704.516C1232.22 712.74 1236.04 723.754 1236.04 737.558C1236.04 759.88 1226.79 776.328 1208.29 786.902C1189.78 797.475 1162.32 802.762 1125.9 802.762C1109.75 802.762 1086.98 802.175 1057.61 801L1059.82 734.915L1057.61 578.514L1147.05 578.074C1171.72 578.074 1190.96 582.92 1204.76 592.612C1218.86 602.305 1225.91 616.256 1225.91 634.466C1225.91 646.214 1222.83 656.494 1216.66 665.306C1210.49 674.117 1201.68 681.019 1190.22 686.012ZM1168.2 641.956C1168.2 632.851 1164.96 626.536 1158.5 623.011C1152.34 619.487 1141.32 617.725 1125.46 617.725H1111.8L1110.92 670.152L1143.08 671.033C1151.6 668.977 1157.92 665.746 1162.03 661.341C1166.14 656.641 1168.2 650.18 1168.2 641.956ZM1135.59 763.992C1149.69 763.992 1160.41 761.643 1167.76 756.943C1175.39 751.95 1179.21 744.608 1179.21 734.915C1179.21 727.866 1176.71 722.286 1171.72 718.174C1166.73 714.062 1159.09 710.831 1148.81 708.481L1110.48 709.362L1110.04 729.628L1110.92 762.671C1120.32 763.552 1128.54 763.992 1135.59 763.992ZM1438.09 756.062L1441.61 759.587L1437.65 801H1285.21L1287.41 734.915L1285.21 578.514H1439.85L1442.93 582.92L1439.41 623.892L1382.14 621.69H1340.72L1339.84 666.627L1379.49 667.068L1417.82 665.746L1420.91 669.711L1417.38 711.565L1375.53 710.243H1338.96L1338.52 729.628L1339.4 757.825H1378.17L1438.09 756.062Z" fill="white"/>
<path d="M340.344 917H331.066L317.093 875.417H316.311L301.556 917H292.278L269.474 845.348H278.417L279.646 852.278L297.084 907.051H297.867L313.293 863.457L307.256 845.348H316.423L318.099 853.061L335.761 907.051H336.432L355.882 852.725L357.558 845.348H366.054L340.344 917ZM385.009 899.562L385.233 917H376.961L377.296 900.233L376.961 861.333H385.345L385.009 899.562ZM439.572 862.003L439.013 869.046L428.617 868.263H423.028L422.693 899.562L423.028 917H414.645L414.98 900.233L414.756 868.263H409.167L398.548 869.046L397.877 868.263L398.548 861.333H439.125L439.572 862.003ZM499.434 899.562L499.657 917H491.386L491.721 900.233L491.609 892.632L461.316 892.743L461.204 899.562L461.428 917H453.156L453.491 900.233L453.156 861.333H461.54L461.316 885.254L476.407 885.366L491.609 885.254L491.386 861.333H499.769L499.434 899.562ZM568.151 910.74L567.592 917H537.97L538.305 900.233L537.97 861.333H546.353L546.018 899.562L546.242 909.958H567.704L568.151 910.74ZM598.309 860.662C606.432 860.662 612.654 863.047 616.977 867.816C621.373 872.585 623.572 879.33 623.572 888.049C623.572 897.513 621.224 904.853 616.53 910.07C611.909 915.211 605.277 917.782 596.632 917.782C588.584 917.782 582.362 915.361 577.965 910.517C573.568 905.598 571.37 898.631 571.37 889.613C571.37 880.373 573.717 873.256 578.412 868.263C583.107 863.196 589.739 860.662 598.309 860.662ZM597.527 867.704C591.639 867.704 587.243 869.381 584.336 872.734C581.505 876.088 580.089 881.379 580.089 888.607C580.089 896.358 581.505 901.984 584.336 905.486C587.168 908.989 591.49 910.74 597.303 910.74C603.265 910.74 607.699 909.026 610.605 905.598C613.511 902.17 614.965 896.805 614.965 889.502C614.965 881.975 613.511 876.46 610.605 872.958C607.773 869.455 603.414 867.704 597.527 867.704ZM659.232 917H649.283L629.833 861.333H638.441L639.782 867.481L654.202 908.728H654.761L670.745 867.816L672.087 861.333H680.47L659.232 917ZM726.748 909.846L727.419 910.517L726.636 917H692.766L693.102 900.233L692.766 861.333H726.86L727.419 862.003L726.748 868.487L712.664 868.04L701.038 868.151L700.927 885.03L711.993 885.142L721.718 884.807L722.277 885.589L721.606 892.184L711.322 891.849L700.927 891.961L700.815 899.562L700.927 910.181L711.881 910.293L726.748 909.846ZM767.505 868.151L767.393 886.484L777.006 886.595L786.843 886.26L787.402 887.042L786.843 893.414L776.224 893.302L767.281 893.414V899.562L767.505 917H759.233L759.456 900.233L759.233 861.333H791.65L792.097 862.003L791.426 868.487L777.677 868.04L767.505 868.151ZM824.82 860.662C832.943 860.662 839.165 863.047 843.488 867.816C847.884 872.585 850.083 879.33 850.083 888.049C850.083 897.513 847.735 904.853 843.04 910.07C838.42 915.211 831.788 917.782 823.143 917.782C815.095 917.782 808.872 915.361 804.476 910.517C800.079 905.598 797.881 898.631 797.881 889.613C797.881 880.373 800.228 873.256 804.923 868.263C809.618 863.196 816.25 860.662 824.82 860.662ZM824.038 867.704C818.15 867.704 813.754 869.381 810.847 872.734C808.015 876.088 806.6 881.379 806.6 888.607C806.6 896.358 808.015 901.984 810.847 905.486C813.679 908.989 818.001 910.74 823.814 910.74C829.776 910.74 834.21 909.026 837.116 905.598C840.022 902.17 841.475 896.805 841.475 889.502C841.475 881.975 840.022 876.46 837.116 872.958C834.284 869.455 829.925 867.704 824.038 867.704ZM890.731 894.532C895.277 901.462 900.307 908.281 905.822 914.988L905.71 916.106C902.58 917.075 900.009 917.633 897.997 917.782L896.544 916.888C890.88 908.318 886.595 901.574 883.689 896.656L873.181 896.768V899.562L873.405 917H865.133L865.468 900.233L865.133 861.333L884.136 861.221C890.023 861.221 894.532 862.6 897.662 865.357C900.866 868.114 902.468 872.101 902.468 877.317C902.468 881.118 901.425 884.509 899.338 887.49C897.326 890.47 894.457 892.818 890.731 894.532ZM873.293 889.837L883.801 890.172C890.433 888.309 893.749 884.248 893.749 877.988C893.749 874.709 892.78 872.25 890.843 870.611C888.905 868.971 885.962 868.077 882.012 867.928L873.405 868.04L873.293 889.837ZM964.969 844.789C972.496 844.789 979.016 846.577 984.531 850.155L982.742 858.315L981.736 858.538C976.743 854.365 971.005 852.278 964.522 852.278C957.442 852.278 952.002 854.738 948.202 859.656C944.401 864.5 942.501 871.617 942.501 881.006C942.501 890.47 944.401 897.699 948.202 902.692C952.002 907.685 957.368 910.181 964.298 910.181C967.577 910.181 970.819 909.585 974.023 908.393C977.302 907.2 980.283 905.524 982.966 903.363L984.084 903.922L983.301 912.417C976.818 915.994 970.223 917.782 963.516 917.782C953.903 917.782 946.45 914.69 941.159 908.505C935.868 902.245 933.223 893.34 933.223 881.789C933.223 869.94 935.98 860.811 941.495 854.402C947.009 847.993 954.834 844.789 964.969 844.789ZM1027.07 910.74L1026.51 917H996.886L997.222 900.233L996.886 861.333H1005.27L1004.93 899.562L1005.16 909.958H1026.62L1027.07 910.74ZM1082.62 917H1074.23L1072.89 910.964L1069.99 902.692L1056.68 902.58L1044.84 902.692L1041.82 910.517L1040.25 917H1031.98L1053.44 861.333H1063.06L1082.62 917ZM1067.64 895.873L1058.36 869.493H1057.69L1047.52 895.873L1057.35 895.985L1067.64 895.873ZM1137.4 889.613V897.662C1137.48 903.996 1135.54 908.914 1131.59 912.417C1127.72 915.919 1122.13 917.671 1114.82 917.671C1107.6 917.671 1102.08 915.957 1098.28 912.529C1094.48 909.026 1092.65 904.071 1092.8 897.662L1092.91 889.166L1092.8 861.333H1101.19L1100.74 896.32C1100.66 901.015 1101.82 904.555 1104.2 906.94C1106.66 909.324 1110.32 910.517 1115.16 910.517C1119.93 910.517 1123.54 909.324 1126 906.94C1128.46 904.555 1129.65 901.015 1129.58 896.32L1129.24 861.333H1137.74L1137.4 889.613ZM1177.74 860.886C1186.23 860.886 1192.72 863.158 1197.19 867.704C1201.73 872.25 1204.01 878.771 1204.01 887.266C1204.01 897.028 1201.55 904.518 1196.63 909.734C1191.71 914.951 1184.67 917.559 1175.5 917.559C1172.89 917.559 1169.76 917.484 1166.11 917.335C1162.54 917.261 1159.14 917.149 1155.94 917L1156.28 900.233L1155.94 861.333L1177.74 860.886ZM1176.84 910.74C1182.81 910.74 1187.39 908.952 1190.59 905.375C1193.87 901.723 1195.51 896.246 1195.51 888.943C1195.51 881.789 1193.98 876.498 1190.93 873.07C1187.87 869.642 1183.25 867.928 1177.07 867.928C1173.42 867.928 1169.13 868.077 1164.21 868.375L1163.99 899.562L1164.1 910.07C1166.26 910.219 1168.53 910.368 1170.92 910.517C1173.3 910.666 1175.28 910.74 1176.84 910.74ZM1253.24 909.846L1253.91 910.517L1253.12 917H1219.25L1219.59 900.233L1219.25 861.333H1253.35L1253.91 862.003L1253.24 868.487L1239.15 868.04L1227.53 868.151L1227.41 885.03L1238.48 885.142L1248.21 884.807L1248.76 885.589L1248.09 892.184L1237.81 891.849L1227.41 891.961L1227.3 899.562L1227.41 910.181L1238.37 910.293L1253.24 909.846Z" fill="white"/>
<path d="M1401.17 472.718C1412.38 490.252 1425.16 508.455 1439.53 527.329L1438.98 531.347C1426.2 534.148 1414.02 536.096 1402.45 537.192L1398.43 535C1386.01 513.691 1375.85 495.609 1367.93 480.754L1367.57 496.644L1369.03 535H1332.32L1334.14 500.297L1332.32 416.828H1369.58L1368.3 466.142L1390.95 429.613L1397.16 416.828H1435.88L1401.17 472.718ZM1486.36 439.476C1500.97 439.476 1512.24 443.494 1520.15 451.531C1528.19 459.567 1532.2 470.952 1532.2 485.686C1532.2 502.002 1527.76 514.665 1518.87 523.676C1510.1 532.565 1497.68 537.009 1481.61 537.009C1467 537.009 1455.68 532.93 1447.64 524.772C1439.72 516.492 1435.77 504.924 1435.77 490.069C1435.77 473.996 1440.15 461.576 1448.92 452.809C1457.81 443.921 1470.29 439.476 1486.36 439.476ZM1483.26 466.325C1479.85 466.325 1477.29 466.812 1475.58 467.786C1474 468.639 1472.84 470.404 1472.11 473.083C1471.5 475.762 1471.2 479.902 1471.2 485.503C1471.2 493.174 1471.57 498.836 1472.3 502.489C1473.03 506.142 1474.31 508.638 1476.13 509.977C1477.96 511.317 1480.82 511.987 1484.72 511.987C1488.25 511.987 1490.8 511.56 1492.39 510.708C1494.09 509.734 1495.25 507.968 1495.86 505.411C1496.47 502.733 1496.77 498.593 1496.77 492.991C1496.77 485.199 1496.41 479.476 1495.68 475.823C1495.07 472.17 1493.79 469.674 1491.84 468.334C1490.01 466.995 1487.15 466.325 1483.26 466.325ZM1589.86 440.755C1604.6 440.755 1615.86 444.529 1623.65 452.079C1631.57 459.506 1635.52 470.222 1635.52 484.224C1635.52 501.028 1630.9 513.935 1621.64 522.945C1612.39 531.956 1599.12 536.461 1581.83 536.461C1573.06 536.461 1560.27 535.974 1543.47 535L1545.12 507.786L1543.47 441.303L1589.86 440.755ZM1588.22 511.439C1592.12 511.439 1595.04 510.038 1596.99 507.238C1599.06 504.437 1600.09 499.567 1600.09 492.626C1600.09 485.929 1599.67 480.754 1598.81 477.101C1598.08 473.448 1596.74 470.891 1594.79 469.43C1592.97 467.847 1590.35 467.056 1586.94 467.056C1584.38 467.056 1581.1 467.238 1577.08 467.604L1575.98 504.315L1576.16 509.977C1582.01 510.952 1586.03 511.439 1588.22 511.439ZM1719.26 508.151L1721.09 510.343L1719.08 535H1646.57L1648.21 507.786L1646.57 441.303H1720.36L1722.18 443.677L1720.17 468.334L1695.52 467.238H1680.17L1679.99 475.275H1694.6L1710.49 474.727L1712.32 477.101L1710.31 501.758L1692.41 501.21H1679.26L1679.08 504.315L1679.26 509.064H1693.69L1719.26 508.151Z" fill="#8798C3"/>
<path d="M732.473 14.238V28.4759H745.891H759.309V45.7256V62.9754H688.66H618.011V146.213V229.45H611.987H605.963V170.856V112.261H542.981C498.182 112.261 480 112.425 480 112.863C480 113.192 482.026 115.601 484.546 118.23C487.01 120.859 491.282 125.458 494.02 128.47C496.759 131.427 503.276 138.437 508.479 144.023C513.681 149.608 518.556 154.975 519.322 155.96L520.691 157.713L517.734 161.163C516.146 163.025 513.846 165.544 512.586 166.748C511.381 167.953 507.931 171.677 504.919 174.963C499.004 181.424 494.294 186.517 485.75 195.662C482.738 198.894 480.219 201.741 480.11 202.07C479.945 202.453 495.663 202.617 527.592 202.617C562.533 202.617 575.348 202.781 575.622 203.22C575.841 203.603 576.115 209.627 576.279 216.636L576.553 229.45H566.86H557.221V271.616V313.783H567.353H577.484V322.544V331.307H592.6H607.715L607.332 322.544L606.894 313.783H612.48H618.011V354.58V395.377H633.894H649.776V437.817V480.256H665.384H680.993V437.817V395.377H695.506H710.019V437.817V480.256H725.627H741.236V437.817V395.377H800.109H858.984V437.817V480.256H874.592H890.2V437.817V395.377H904.713H919.225V437.817V480.256H934.834H950.442V437.817V395.377H966.326H982.209L982.316 354.744L982.48 314.057L1012.77 313.892L1043 313.783V271.616V229.45L1012.77 229.341L982.48 229.176L982.316 146.049L982.209 62.9754H916.49H850.769V45.7256V28.4759H863.913H877.057V14.238V0H848.304H819.552V31.4878V62.9754H805.038H790.525V31.4878V0H761.499H732.473V14.238ZM710.019 188.379V229.45H695.506H680.993V188.763C680.993 166.365 681.157 147.856 681.376 147.691C681.541 147.473 688.112 147.308 695.889 147.308H710.019V188.379ZM919.118 188.489L919.225 229.45H904.713H890.2V188.763C890.2 166.365 890.365 147.856 890.584 147.691C890.801 147.473 897.267 147.363 904.931 147.418L918.954 147.582L919.118 188.489Z" fill="#8798C3"/>
</svg>
