<svg width="1523" height="1204" viewBox="0 0 1523 1204" fill="none" xmlns="http://www.w3.org/2000/svg">
<path d="M225.415 700.767C252.437 743.061 283.276 786.971 317.934 832.496L316.613 842.189C285.773 848.944 256.402 853.643 228.499 856.287L218.807 851C188.848 799.601 164.324 755.985 145.232 720.152L144.351 758.481L147.876 851H59.322L63.7277 767.292L59.322 565.954H149.198L146.114 684.907L200.744 596.793L215.723 565.954H309.123L225.415 700.767ZM501.619 763.327C522.767 793.286 539.802 816.195 552.725 832.056L551.403 840.867C524.088 848.797 497.507 853.643 471.661 855.406L460.647 847.035C448.311 820.307 439.353 800.775 433.772 788.44H411.744L414.828 851H332.883L336.848 785.356L332.883 624.99H453.598C480.913 624.99 502.06 631.158 517.039 643.493C532.018 655.536 539.508 673.011 539.508 695.921C539.508 708.844 536.13 721.18 529.375 732.928C522.913 744.383 513.662 754.516 501.619 763.327ZM414.387 681.823L412.625 729.404L436.856 731.166C442.73 728.229 446.842 724.704 449.192 720.592C451.835 716.48 453.157 711.047 453.157 704.291C453.157 696.361 450.954 690.634 446.549 687.109C442.143 683.585 434.653 681.529 424.08 680.941L414.387 681.823ZM707.205 851L702.359 819.72L668.876 818.839L642.442 820.16L637.596 851H557.853L627.904 624.99H726.59L790.032 851H707.205ZM673.722 760.684L690.904 760.243L678.128 697.242H673.282L656.54 760.243L673.722 760.684ZM1011.44 739.537L1011 776.544C1010.71 802.097 1001.31 821.776 982.804 835.58C964.3 849.091 937.866 855.846 903.502 855.846C870.312 855.846 845.053 849.091 827.724 835.58C810.395 821.776 802.171 802.097 803.053 776.544L803.934 739.977L801.731 624.99H883.236L879.711 765.53C879.417 774.929 881.326 781.684 885.438 785.796C889.55 789.614 896.746 791.524 907.026 791.524C917.306 791.524 924.502 789.614 928.614 785.796C933.02 781.684 935.076 774.929 934.782 765.53L931.257 624.99H1014.08L1011.44 739.537ZM1223.53 735.131C1238.51 739.537 1249.23 745.852 1255.69 754.075C1262.45 762.006 1265.83 772.432 1265.83 785.356C1265.83 809.146 1255.4 826.475 1234.55 837.342C1213.69 848.21 1182.27 853.643 1140.26 853.643C1121.17 853.643 1093.12 852.762 1056.12 851L1060.08 785.356L1056.12 624.99H1170.22C1198.42 624.99 1220.3 629.983 1235.87 639.969C1251.73 649.955 1259.66 664.641 1259.66 684.025C1259.66 694.893 1256.57 704.732 1250.41 713.543C1244.24 722.355 1235.28 729.551 1223.53 735.131ZM1175.07 696.361C1175.07 691.662 1173.89 688.137 1171.54 685.788C1169.49 683.438 1165.82 681.823 1160.53 680.941C1155.24 680.06 1147.02 679.62 1135.86 679.62L1134.98 714.425L1158.77 715.746C1164.64 713.69 1168.75 711.341 1171.1 708.697C1173.75 705.76 1175.07 701.648 1175.07 696.361ZM1156.12 799.454C1164.06 799.454 1170.22 797.985 1174.63 795.048C1179.33 792.111 1181.68 787.705 1181.68 781.831C1181.68 778.6 1180.5 775.81 1178.15 773.46C1175.8 771.111 1171.84 768.761 1166.26 766.411L1133.66 767.292L1133.22 776.985L1134.1 798.132C1142.91 799.013 1150.25 799.454 1156.12 799.454ZM1477.13 786.237L1481.53 791.524L1476.69 851H1301.78L1305.75 785.356L1301.78 624.99H1479.77L1484.18 630.717L1479.33 690.193L1419.86 687.55H1382.85L1382.41 706.935H1417.65L1455.98 705.613L1460.39 711.341L1455.54 770.817L1412.37 769.495H1380.65L1380.2 776.985L1380.65 788.44H1415.45L1477.13 786.237Z" fill="white"/>
<path d="M558.546 1042.24C577.208 1071.45 598.508 1101.78 622.444 1133.22L621.531 1139.91C600.232 1144.58 579.947 1147.83 560.676 1149.65L553.982 1146C533.291 1110.5 516.353 1080.38 503.168 1055.63L502.559 1082.1L504.993 1146H443.834L446.876 1088.19L443.834 949.133H505.906L503.776 1031.29L541.506 970.432L551.852 949.133H616.359L558.546 1042.24ZM700.46 986.863C724.803 986.863 743.566 993.557 756.752 1006.95C770.14 1020.33 776.834 1039.3 776.834 1063.85C776.834 1091.03 769.43 1112.12 754.622 1127.13C740.016 1141.94 719.326 1149.35 692.549 1149.35C668.207 1149.35 649.342 1142.55 635.954 1128.96C622.768 1115.17 616.176 1095.9 616.176 1071.15C616.176 1044.37 623.478 1023.68 638.084 1009.08C652.892 994.267 673.684 986.863 700.46 986.863ZM695.288 1031.59C689.608 1031.59 685.348 1032.4 682.508 1034.03C679.871 1035.45 677.944 1038.39 676.727 1042.85C675.713 1047.31 675.205 1054.21 675.205 1063.54C675.205 1076.32 675.814 1085.75 677.031 1091.84C678.248 1097.92 680.378 1102.08 683.421 1104.31C686.464 1106.55 691.231 1107.66 697.722 1107.66C703.605 1107.66 707.864 1106.95 710.502 1105.53C713.341 1103.91 715.269 1100.97 716.283 1096.71C717.297 1092.24 717.804 1085.35 717.804 1076.02C717.804 1063.03 717.196 1053.5 715.979 1047.41C714.964 1041.33 712.834 1037.17 709.589 1034.94C706.546 1032.71 701.779 1031.59 695.288 1031.59ZM872.89 988.993C897.435 988.993 916.199 995.281 929.182 1007.86C942.367 1020.23 948.96 1038.08 948.96 1061.41C948.96 1089.4 941.251 1110.91 925.835 1125.92C910.418 1140.93 888.307 1148.43 859.502 1148.43C844.897 1148.43 823.598 1147.62 795.604 1146L798.343 1100.66L795.604 989.906L872.89 988.993ZM870.152 1106.75C876.643 1106.75 881.512 1104.42 884.757 1099.75C888.206 1095.08 889.93 1086.97 889.93 1075.41C889.93 1064.25 889.22 1055.63 887.8 1049.54C886.583 1043.46 884.352 1039.2 881.106 1036.76C878.063 1034.13 873.702 1032.81 868.022 1032.81C863.762 1032.81 858.285 1033.11 851.591 1033.72L849.765 1094.88L850.07 1104.31C859.806 1105.94 866.501 1106.75 870.152 1106.75ZM1088.46 1101.27L1091.5 1104.92L1088.15 1146H967.354L970.093 1100.66L967.354 989.906H1090.28L1093.32 993.861L1089.98 1034.94L1048.9 1033.11H1023.34L1023.04 1046.5H1047.38L1073.85 1045.59L1076.89 1049.54L1073.55 1090.62L1043.73 1089.71H1021.82L1021.52 1094.88L1021.82 1102.79H1045.86L1088.46 1101.27Z" fill="#8798C3"/>
<path d="M732.473 14.238V28.4759H745.891H759.309V45.7256V62.9754H688.66H618.011V146.213V229.45H611.987H605.963V170.856V112.261H542.981C498.182 112.261 480 112.425 480 112.863C480 113.192 482.026 115.601 484.546 118.23C487.01 120.859 491.282 125.458 494.02 128.47C496.759 131.427 503.276 138.437 508.479 144.023C513.681 149.608 518.556 154.975 519.322 155.96L520.691 157.713L517.734 161.163C516.146 163.025 513.846 165.544 512.586 166.748C511.381 167.953 507.931 171.677 504.919 174.963C499.004 181.424 494.294 186.517 485.75 195.662C482.738 198.894 480.219 201.741 480.11 202.07C479.945 202.453 495.663 202.617 527.592 202.617C562.533 202.617 575.348 202.781 575.622 203.22C575.841 203.603 576.115 209.627 576.279 216.636L576.553 229.45H566.86H557.221V271.616V313.783H567.353H577.484V322.544V331.307H592.6H607.715L607.332 322.544L606.894 313.783H612.48H618.011V354.58V395.377H633.894H649.776V437.817V480.256H665.384H680.993V437.817V395.377H695.506H710.019V437.817V480.256H725.627H741.236V437.817V395.377H800.109H858.984V437.817V480.256H874.592H890.2V437.817V395.377H904.713H919.225V437.817V480.256H934.834H950.442V437.817V395.377H966.326H982.209L982.316 354.744L982.48 314.057L1012.77 313.892L1043 313.783V271.616V229.45L1012.77 229.341L982.48 229.176L982.316 146.049L982.209 62.9754H916.49H850.769V45.7256V28.4759H863.913H877.057V14.238V0H848.304H819.552V31.4878V62.9754H805.038H790.525V31.4878V0H761.499H732.473V14.238ZM710.019 188.379V229.45H695.506H680.993V188.763C680.993 166.365 681.157 147.856 681.376 147.691C681.541 147.473 688.112 147.308 695.889 147.308H710.019V188.379ZM919.118 188.489L919.225 229.45H904.713H890.2V188.763C890.2 166.365 890.365 147.856 890.584 147.691C890.801 147.473 897.267 147.363 904.931 147.418L918.954 147.582L919.118 188.489Z" fill="#8798C3"/>
</svg>
