<svg width="2859" height="769" viewBox="0 0 2859 769" fill="none" xmlns="http://www.w3.org/2000/svg">
<path d="M369.734 367.208C401.161 410.97 437.434 456.789 478.554 504.664L477.673 511.273C461.225 515.385 441.84 518.762 419.518 521.406L412.469 517.881C373.993 466.775 339.775 417.726 309.817 370.732L308.936 427.125L311.139 517H251.662L254.746 432.411L251.662 233.275H312.02L309.817 365.005L389.559 260.591L405.86 233.275H470.183L369.734 367.208ZM639.353 429.327C659.032 457.817 677.389 482.783 694.424 504.224L693.984 510.392C675.774 515.972 657.857 519.35 640.235 520.525L632.304 515.238C615.857 486.748 603.08 463.398 593.975 445.188H560.051V445.628L562.254 517H506.743L508.946 450.915L506.743 294.514L602.786 294.074C627.752 294.074 646.99 299.948 660.501 311.696C674.305 323.151 681.207 339.599 681.207 361.04C681.207 374.844 677.536 387.767 670.193 399.809C662.85 411.558 652.57 421.397 639.353 429.327ZM560.933 402.893L593.975 404.656C603.961 401.425 611.304 396.725 616.003 390.558C620.703 384.39 623.052 376.459 623.052 366.767C623.052 356.193 619.968 348.41 613.801 343.417C607.633 338.13 597.94 335.193 584.723 334.606L562.254 335.487L560.933 402.893ZM927.666 517H871.714L865.546 484.839L861.581 472.062L816.643 471.622L776.992 472.503L773.908 481.755L767.3 517H713.11L791.091 294.514H856.735L927.666 517ZM849.686 430.208L824.574 345.179H821.049L791.531 430.208L820.168 430.649L849.686 430.208ZM1146.12 407.74L1145.68 441.663C1145.98 466.922 1137.61 486.454 1120.57 500.258C1103.83 513.769 1079.75 520.525 1048.32 520.525C1017.77 520.525 994.423 513.769 978.269 500.258C962.115 486.454 954.479 466.922 955.36 441.663L955.8 406.858L954.479 294.514H1009.99L1007.35 433.733C1007.05 448.125 1010.43 458.698 1017.48 465.454C1024.82 472.209 1035.84 475.587 1050.52 475.587C1065.5 475.587 1076.52 472.209 1083.56 465.454C1090.91 458.405 1094.43 447.831 1094.14 433.733L1091.94 294.514H1147.89L1146.12 407.74ZM1338.49 402.012C1354.06 405.83 1365.52 411.998 1372.86 420.516C1380.49 428.74 1384.31 439.754 1384.31 453.558C1384.31 475.88 1375.06 492.328 1356.56 502.902C1338.05 513.475 1310.59 518.762 1274.17 518.762C1258.02 518.762 1235.25 518.175 1205.88 517L1208.09 450.915L1205.88 294.514L1295.32 294.074C1319.99 294.074 1339.23 298.92 1353.03 308.612C1367.13 318.305 1374.18 332.256 1374.18 350.466C1374.18 362.214 1371.1 372.494 1364.93 381.306C1358.76 390.117 1349.95 397.019 1338.49 402.012ZM1316.47 357.956C1316.47 348.851 1313.23 342.536 1306.77 339.011C1300.61 335.487 1289.59 333.725 1273.73 333.725H1260.07L1259.19 386.152L1291.35 387.033C1299.87 384.977 1306.19 381.746 1310.3 377.341C1314.41 372.641 1316.47 366.18 1316.47 357.956ZM1283.86 479.992C1297.96 479.992 1308.68 477.643 1316.03 472.943C1323.66 467.95 1327.48 460.608 1327.48 450.915C1327.48 443.866 1324.98 438.286 1319.99 434.174C1315 430.062 1307.36 426.831 1297.08 424.481L1258.75 425.362L1258.31 445.628L1259.19 478.671C1268.59 479.552 1276.81 479.992 1283.86 479.992ZM1586.36 472.062L1589.88 475.587L1585.92 517H1433.48L1435.68 450.915L1433.48 294.514H1588.12L1591.2 298.92L1587.68 339.892L1530.41 337.69H1488.99L1488.11 382.627L1527.76 383.068L1566.09 381.746L1569.17 385.711L1565.65 427.565L1523.8 426.243H1487.23L1486.79 445.628L1487.67 473.825H1526.44L1586.36 472.062Z" fill="white"/>
<path d="M1861.46 366.767C1888.48 409.061 1919.32 452.971 1953.97 498.496L1952.65 508.189C1921.81 514.944 1892.44 519.643 1864.54 522.287L1854.85 517C1824.89 465.601 1800.36 421.985 1781.27 386.152L1780.39 424.481L1783.92 517H1695.36L1699.77 433.292L1695.36 231.954H1785.24L1782.15 350.907L1836.78 262.793L1851.76 231.954H1945.16L1861.46 366.767ZM2066.94 286.584C2102.18 286.584 2129.35 296.276 2148.44 315.661C2167.83 335.046 2177.52 362.508 2177.52 398.047C2177.52 437.404 2166.8 467.95 2145.36 489.685C2124.21 511.126 2094.25 521.846 2055.48 521.846C2020.24 521.846 1992.92 512.007 1973.54 492.328C1954.44 472.356 1944.9 444.453 1944.9 408.621C1944.9 369.851 1955.47 339.892 1976.62 318.745C1998.06 297.304 2028.17 286.584 2066.94 286.584ZM2059.45 351.347C2051.22 351.347 2045.05 352.522 2040.94 354.872C2037.12 356.928 2034.33 361.186 2032.57 367.648C2031.1 374.11 2030.37 384.096 2030.37 397.607C2030.37 416.11 2031.25 429.768 2033.01 438.579C2034.77 447.391 2037.86 453.412 2042.26 456.642C2046.67 459.873 2053.57 461.489 2062.97 461.489C2071.49 461.489 2077.66 460.461 2081.47 458.405C2085.59 456.055 2088.38 451.796 2089.84 445.628C2091.31 439.167 2092.05 429.18 2092.05 415.67C2092.05 396.872 2091.17 383.068 2089.4 374.257C2087.94 365.445 2084.85 359.424 2080.15 356.193C2075.75 352.963 2068.84 351.347 2059.45 351.347ZM2316.6 289.668C2352.14 289.668 2379.31 298.773 2398.1 316.983C2417.19 334.899 2426.74 360.746 2426.74 394.523C2426.74 435.055 2415.58 466.188 2393.26 487.923C2370.94 509.657 2338.92 520.525 2297.21 520.525C2276.07 520.525 2245.23 519.35 2204.69 517L2208.66 451.356L2204.69 290.99L2316.6 289.668ZM2312.63 460.167C2322.03 460.167 2329.08 456.789 2333.78 450.034C2338.77 443.279 2341.27 431.53 2341.27 414.789C2341.27 398.635 2340.24 386.152 2338.19 377.341C2336.42 368.529 2333.19 362.361 2328.49 358.837C2324.09 355.019 2317.77 353.109 2309.55 353.109C2303.38 353.109 2295.45 353.55 2285.76 354.431L2283.12 442.985L2283.56 456.642C2297.65 458.992 2307.35 460.167 2312.63 460.167ZM2628.72 452.237L2633.12 457.524L2628.28 517H2453.37L2457.34 451.356L2453.37 290.99H2631.36L2635.77 296.717L2630.92 356.193L2571.45 353.55H2534.44L2534 372.935H2569.24L2607.57 371.613L2611.98 377.341L2607.13 436.817L2563.96 435.495H2532.24L2531.79 442.985L2532.24 454.44H2567.04L2628.72 452.237Z" fill="#8798C3"/>
<path d="M348.021 649H335.835L317.483 594.384H316.455L297.075 649H284.89L254.939 554.89H266.684L268.299 563.992L291.203 635.933H292.23L312.491 578.674L304.563 554.89H316.602L318.805 565.02L342.002 635.933H342.883L368.429 564.58L370.631 554.89H381.789L348.021 649ZM406.686 626.096L406.98 649H396.116L396.556 626.977L396.116 575.885H407.127L406.686 626.096ZM478.351 576.766L477.617 586.015L463.963 584.987H456.622L456.181 626.096L456.622 649H445.61L446.051 626.977L445.757 584.987H438.416L424.469 586.015L423.588 584.987L424.469 575.885H477.764L478.351 576.766ZM556.975 626.096L557.269 649H546.404L546.845 626.977L546.698 616.994L506.91 617.141L506.763 626.096L507.057 649H496.193L496.633 626.977L496.193 575.885H507.204L506.91 607.304L526.731 607.451L546.698 607.304L546.404 575.885H557.416L556.975 626.096ZM647.23 640.778L646.496 649H607.589L608.03 626.977L607.589 575.885H618.601L618.16 626.096L618.454 639.75H646.643L647.23 640.778ZM686.841 575.004C697.51 575.004 705.683 578.136 711.36 584.4C717.135 590.664 720.022 599.522 720.022 610.974C720.022 623.405 716.939 633.046 710.773 639.897C704.704 646.651 695.993 650.028 684.639 650.028C674.068 650.028 665.895 646.847 660.12 640.485C654.346 634.025 651.458 624.873 651.458 613.03C651.458 600.893 654.541 591.545 660.708 584.987C666.874 578.332 675.585 575.004 686.841 575.004ZM685.814 584.253C678.081 584.253 672.306 586.456 668.489 590.86C664.77 595.265 662.91 602.214 662.91 611.708C662.91 621.888 664.77 629.277 668.489 633.878C672.208 638.478 677.885 640.778 685.52 640.778C693.35 640.778 699.174 638.527 702.991 634.025C706.809 629.522 708.717 622.475 708.717 612.883C708.717 602.997 706.809 595.754 702.991 591.154C699.272 586.553 693.546 584.253 685.814 584.253ZM766.859 649H753.792L728.246 575.885H739.551L741.313 583.96L760.252 638.135H760.987L781.982 584.4L783.743 575.885H794.755L766.859 649ZM855.537 639.604L856.418 640.485L855.39 649H810.905L811.345 626.977L810.905 575.885H855.684L856.418 576.766L855.537 585.281L837.038 584.694L821.769 584.841L821.622 607.01L836.157 607.157L848.93 606.716L849.665 607.744L848.784 616.406L835.276 615.966L821.622 616.113L821.476 626.096L821.622 640.044L836.01 640.191L855.537 639.604ZM909.068 584.841L908.922 608.919L921.548 609.066L934.468 608.625L935.202 609.653L934.468 618.021L920.52 617.875L908.775 618.021V626.096L909.068 649H898.204L898.498 626.977L898.204 575.885H940.781L941.368 576.766L940.487 585.281L922.429 584.694L909.068 584.841ZM984.348 575.004C995.017 575.004 1003.19 578.136 1008.87 584.4C1014.64 590.664 1017.53 599.522 1017.53 610.974C1017.53 623.405 1014.45 633.046 1008.28 639.897C1002.21 646.651 993.5 650.028 982.146 650.028C971.575 650.028 963.402 646.847 957.627 640.485C951.852 634.025 948.965 624.873 948.965 613.03C948.965 600.893 952.048 591.545 958.215 584.987C964.381 578.332 973.092 575.004 984.348 575.004ZM983.32 584.253C975.588 584.253 969.813 586.456 965.996 590.86C962.277 595.265 960.417 602.214 960.417 611.708C960.417 621.888 962.277 629.277 965.996 633.878C969.715 638.478 975.392 640.778 983.027 640.778C990.857 640.778 996.681 638.527 1000.5 634.025C1004.32 629.522 1006.22 622.475 1006.22 612.883C1006.22 602.997 1004.32 595.754 1000.5 591.154C996.779 586.553 991.053 584.253 983.32 584.253ZM1070.92 619.49C1076.89 628.592 1083.5 637.548 1090.74 646.357L1090.59 647.825C1086.48 649.098 1083.1 649.832 1080.46 650.028L1078.55 648.853C1071.11 637.597 1065.49 628.739 1061.67 622.279L1047.87 622.426V626.096L1048.16 649H1037.3L1037.74 626.977L1037.3 575.885L1062.26 575.738C1069.99 575.738 1075.91 577.549 1080.02 581.17C1084.23 584.792 1086.33 590.028 1086.33 596.88C1086.33 601.871 1084.96 606.325 1082.22 610.24C1079.58 614.155 1075.81 617.238 1070.92 619.49ZM1048.01 613.323L1061.82 613.764C1070.53 611.317 1074.88 605.982 1074.88 597.761C1074.88 593.454 1073.61 590.224 1071.06 588.071C1068.52 585.917 1064.65 584.743 1059.47 584.547L1048.16 584.694L1048.01 613.323ZM1168.42 554.156C1178.31 554.156 1186.87 556.505 1194.12 561.203L1191.77 571.921L1190.45 572.214C1183.89 566.733 1176.35 563.992 1167.84 563.992C1158.54 563.992 1151.39 567.222 1146.4 573.682C1141.41 580.045 1138.91 589.392 1138.91 601.725C1138.91 614.155 1141.41 623.649 1146.4 630.207C1151.39 636.765 1158.44 640.044 1167.54 640.044C1171.85 640.044 1176.11 639.261 1180.32 637.695C1184.62 636.129 1188.54 633.927 1192.06 631.088L1193.53 631.822L1192.5 642.98C1183.99 647.679 1175.32 650.028 1166.52 650.028C1153.89 650.028 1144.1 645.966 1137.15 637.842C1130.2 629.62 1126.73 617.924 1126.73 602.752C1126.73 587.19 1130.35 575.2 1137.59 566.782C1144.84 558.364 1155.11 554.156 1168.42 554.156ZM1249.99 640.778L1249.25 649H1210.35L1210.79 626.977L1210.35 575.885H1221.36L1220.92 626.096L1221.21 639.75H1249.4L1249.99 640.778ZM1322.95 649H1311.94L1310.17 641.072L1306.36 630.207L1288.89 630.06L1273.32 630.207L1269.36 640.485L1267.3 649H1256.44L1284.63 575.885H1297.25L1322.95 649ZM1303.27 621.251L1291.09 586.602H1290.21L1276.85 621.251L1289.77 621.398L1303.27 621.251ZM1394.91 613.03V623.601C1395 631.92 1392.46 638.38 1387.27 642.98C1382.18 647.581 1374.84 649.881 1365.25 649.881C1355.75 649.881 1348.51 647.63 1343.52 643.127C1338.53 638.527 1336.13 632.018 1336.33 623.601L1336.47 612.442L1336.33 575.885H1347.34L1346.75 621.839C1346.65 628.005 1348.17 632.654 1351.3 635.786C1354.53 638.919 1359.33 640.485 1365.69 640.485C1371.95 640.485 1376.7 638.919 1379.93 635.786C1383.16 632.654 1384.73 628.005 1384.63 621.839L1384.19 575.885H1395.35L1394.91 613.03ZM1447.88 575.297C1459.04 575.297 1467.56 578.283 1473.43 584.253C1479.4 590.224 1482.38 598.788 1482.38 609.946C1482.38 622.769 1479.15 632.605 1472.69 639.457C1466.23 646.308 1456.98 649.734 1444.95 649.734C1441.52 649.734 1437.41 649.636 1432.61 649.44C1427.91 649.343 1423.46 649.196 1419.25 649L1419.69 626.977L1419.25 575.885L1447.88 575.297ZM1446.71 640.778C1454.54 640.778 1460.56 638.429 1464.77 633.731C1469.07 628.935 1471.23 621.741 1471.23 612.149C1471.23 602.752 1469.22 595.803 1465.21 591.301C1461.19 586.798 1455.12 584.547 1447 584.547C1442.2 584.547 1436.58 584.743 1430.12 585.134L1429.82 626.096L1429.97 639.897C1432.81 640.093 1435.79 640.289 1438.93 640.485C1442.06 640.68 1444.65 640.778 1446.71 640.778ZM1547.04 639.604L1547.92 640.485L1546.9 649H1502.41L1502.85 626.977L1502.41 575.885H1547.19L1547.92 576.766L1547.04 585.281L1528.54 584.694L1513.28 584.841L1513.13 607.01L1527.66 607.157L1540.44 606.716L1541.17 607.744L1540.29 616.406L1526.78 615.966L1513.13 616.113L1512.98 626.096L1513.13 640.044L1527.52 640.191L1547.04 639.604Z" fill="white"/>
<path d="M2474.65 239.048C2480.92 240.291 2484.06 243.625 2484.06 249.049C2484.06 253.118 2482.48 256.169 2479.31 258.203C2476.15 260.237 2471.51 261.254 2465.41 261.254C2461.74 261.254 2458.21 261.17 2454.82 261L2455.07 248.286L2454.82 218.791L2468.04 218.706C2472.28 218.706 2475.56 219.61 2477.87 221.419C2480.24 223.17 2481.43 225.685 2481.43 228.962C2481.43 231.392 2480.84 233.454 2479.65 235.149C2478.47 236.844 2476.8 238.144 2474.65 239.048ZM2474.74 229.725C2474.74 227.634 2474.06 226.108 2472.7 225.148C2471.35 224.187 2469.17 223.707 2466.18 223.707H2461.01L2460.92 236.76L2468.46 237.014C2470.55 236.562 2472.11 235.771 2473.13 234.641C2474.2 233.454 2474.74 231.815 2474.74 229.725ZM2466.18 256.423C2469.85 256.423 2472.65 255.802 2474.57 254.558C2476.54 253.259 2477.53 251.366 2477.53 248.88C2477.53 246.846 2476.85 245.263 2475.5 244.133C2474.14 243.003 2472.08 242.24 2469.31 241.845L2460.92 241.93L2460.84 247.778L2461.01 256.169C2462.76 256.338 2464.48 256.423 2466.18 256.423ZM2510.37 248.88L2510.62 261H2504.27L2504.61 248.88L2504.52 246.252L2490.2 218.791H2497.15L2497.99 221.249L2507.49 239.387H2507.91L2518.25 221.503L2519.35 218.791H2526.13L2510.45 246.252L2510.37 248.88ZM2564.76 206.247C2568.66 206.247 2572.7 207.095 2576.88 208.79L2575.78 215.316L2574.59 215.655C2572.95 214.412 2571.2 213.451 2569.33 212.773C2567.53 212.095 2565.72 211.756 2563.91 211.756C2561.82 211.756 2559.98 212.18 2558.4 213.028C2556.88 213.875 2555.69 214.977 2554.84 216.333C2554.05 217.689 2553.65 219.102 2553.65 220.571C2553.65 222.097 2554.11 223.453 2555.01 224.639C2555.97 225.769 2557.16 226.758 2558.57 227.606C2559.98 228.453 2561.9 229.47 2564.33 230.657C2567.38 232.07 2569.84 233.398 2571.71 234.641C2573.57 235.827 2575.15 237.353 2576.45 239.217C2577.81 241.082 2578.49 243.342 2578.49 245.998C2578.49 248.823 2577.73 251.422 2576.2 253.796C2574.67 256.169 2572.53 258.062 2569.76 259.474C2566.99 260.887 2563.83 261.593 2560.27 261.593C2557.89 261.593 2555.41 261.283 2552.81 260.661C2550.26 259.983 2547.89 259.022 2545.69 257.779L2546.53 250.829L2547.47 250.405C2549.44 252.327 2551.62 253.767 2553.99 254.728C2556.42 255.632 2558.74 256.084 2560.94 256.084C2563.09 256.084 2564.98 255.66 2566.62 254.813C2568.32 253.965 2569.59 252.835 2570.44 251.422C2571.34 250.01 2571.79 248.512 2571.79 246.93C2571.79 244.557 2570.89 242.664 2569.08 241.252C2567.27 239.783 2564.53 238.2 2560.86 236.505C2557.86 235.036 2555.46 233.737 2553.65 232.606C2551.85 231.42 2550.29 229.922 2548.99 228.114C2547.69 226.25 2547.04 223.99 2547.04 221.334C2547.04 218.565 2547.78 216.022 2549.25 213.706C2550.77 211.389 2552.86 209.581 2555.52 208.281C2558.23 206.925 2561.31 206.247 2564.76 206.247ZM2606.18 218.367C2610.87 218.367 2614.93 219.356 2618.38 221.334L2617.19 227.182L2616.43 227.436C2615.02 226.25 2613.38 225.317 2611.52 224.639C2609.65 223.961 2607.65 223.622 2605.5 223.622C2601.32 223.622 2598.12 224.978 2595.92 227.691C2593.72 230.346 2592.62 234.33 2592.62 239.641C2592.62 245.009 2593.72 249.106 2595.92 251.931C2598.12 254.756 2601.32 256.169 2605.5 256.169C2607.53 256.169 2609.57 255.83 2611.6 255.152C2613.69 254.417 2615.56 253.457 2617.19 252.27L2617.96 252.524L2617.36 258.373C2613.52 260.463 2609.48 261.509 2605.24 261.509C2599.03 261.509 2594.25 259.672 2590.92 255.999C2587.59 252.27 2585.92 246.987 2585.92 240.15C2585.92 233.2 2587.67 227.832 2591.17 224.046C2594.73 220.26 2599.73 218.367 2606.18 218.367ZM2645.33 218.283C2651.49 218.283 2656.21 220.091 2659.49 223.707C2662.82 227.323 2664.49 232.437 2664.49 239.048C2664.49 246.224 2662.71 251.79 2659.15 255.745C2655.64 259.644 2650.61 261.593 2644.06 261.593C2637.96 261.593 2633.24 259.757 2629.9 256.084C2626.57 252.355 2624.9 247.072 2624.9 240.235C2624.9 233.228 2626.68 227.832 2630.24 224.046C2633.8 220.204 2638.83 218.283 2645.33 218.283ZM2644.74 223.622C2640.27 223.622 2636.94 224.894 2634.74 227.436C2632.59 229.979 2631.52 233.991 2631.52 239.472C2631.52 245.348 2632.59 249.614 2634.74 252.27C2636.88 254.926 2640.16 256.254 2644.57 256.254C2649.09 256.254 2652.45 254.954 2654.65 252.355C2656.86 249.756 2657.96 245.687 2657.96 240.15C2657.96 234.443 2656.86 230.262 2654.65 227.606C2652.51 224.95 2649.2 223.622 2644.74 223.622ZM2699.2 219.3L2698.78 224.639L2690.9 224.046H2686.66L2686.4 247.778L2686.66 261H2680.3L2680.56 248.286L2680.39 224.046H2676.15L2668.1 224.639L2667.59 224.046L2668.1 218.791H2698.86L2699.2 219.3ZM2736.2 219.3L2735.78 224.639L2727.89 224.046H2723.66L2723.4 247.778L2723.66 261H2717.3L2717.55 248.286L2717.38 224.046H2713.15L2705.09 224.639L2704.59 224.046L2705.09 218.791H2735.86L2736.2 219.3Z" fill="white"/>
</svg>
