<svg width="1467" height="270" viewBox="0 0 1467 270" fill="none" xmlns="http://www.w3.org/2000/svg">
<path d="M1087.7 84.9858C1098.85 102.444 1111.58 120.57 1125.89 139.362L1125.34 143.363C1112.61 146.151 1100.49 148.091 1088.97 149.182L1084.97 147C1072.6 125.783 1062.48 107.779 1054.6 92.9876L1054.24 108.809L1055.69 147L1019.14 147L1020.96 112.447L1019.14 29.3367L1056.24 29.3367L1054.96 78.4389L1077.51 42.0669L1083.7 29.3367L1122.25 29.3367L1087.7 84.9858ZM1172.52 51.8873C1187.07 51.8873 1198.28 55.8883 1206.16 63.8901C1214.16 71.8919 1218.16 83.2278 1218.16 97.8979C1218.16 114.144 1213.74 126.753 1204.89 135.725C1196.16 144.575 1183.79 149 1167.79 149C1153.24 149 1141.97 144.939 1133.96 136.816C1126.08 128.572 1122.14 117.054 1122.14 102.262C1122.14 86.2588 1126.51 73.8924 1135.24 65.1631C1144.09 56.3126 1156.51 51.8873 1172.52 51.8873ZM1169.43 78.6207C1166.03 78.6207 1163.49 79.1057 1161.79 80.0756C1160.21 80.9243 1159.06 82.6823 1158.33 85.3495C1157.73 88.0168 1157.42 92.139 1157.42 97.716C1157.42 105.354 1157.79 110.992 1158.51 114.629C1159.24 118.266 1160.52 120.752 1162.33 122.085C1164.15 123.419 1167 124.086 1170.88 124.086C1174.4 124.086 1176.94 123.661 1178.52 122.813C1180.22 121.843 1181.37 120.085 1181.97 117.539C1182.58 114.871 1182.88 110.749 1182.88 105.172C1182.88 97.4129 1182.52 91.7146 1181.79 88.0774C1181.19 84.4402 1179.91 81.9548 1177.97 80.6212C1176.16 79.2875 1173.31 78.6207 1169.43 78.6207ZM1275.58 53.1604C1290.25 53.1604 1301.46 56.9188 1309.22 64.4357C1317.1 71.8313 1321.04 82.5004 1321.04 96.443C1321.04 113.174 1316.43 126.026 1307.22 134.997C1298 143.969 1284.79 148.455 1267.57 148.455C1258.84 148.455 1246.11 147.97 1229.38 147L1231.02 119.903L1229.38 53.7059L1275.58 53.1604ZM1273.94 123.54C1277.82 123.54 1280.73 122.146 1282.67 119.357C1284.73 116.569 1285.76 111.719 1285.76 104.809C1285.76 98.1403 1285.34 92.9877 1284.49 89.3505C1283.76 85.7133 1282.43 83.1672 1280.49 81.7123C1278.67 80.1362 1276.06 79.3482 1272.67 79.3482C1270.12 79.3482 1266.85 79.53 1262.85 79.8937L1261.75 116.448L1261.94 122.085C1267.76 123.055 1271.76 123.54 1273.94 123.54ZM1404.41 120.267L1406.23 122.449L1404.23 147L1332.03 147L1333.67 119.903L1332.03 53.7059L1405.51 53.7059L1407.32 56.0701L1405.32 80.6212L1380.77 79.53H1365.5L1365.31 87.5319H1379.86L1395.69 86.9863L1397.5 89.3505L1395.5 113.902L1377.68 113.356H1364.59L1364.41 116.448L1364.59 121.176H1378.95L1404.41 120.267Z" fill="#8798C3"/>
<path d="M183.32 135.256C203.408 163.228 226.593 192.515 252.876 223.115L252.312 227.339C241.799 229.967 229.409 232.126 215.141 233.816L210.636 231.563C186.042 198.898 164.171 167.546 145.023 137.509L144.459 173.553L145.867 231H107.851L109.822 176.933L107.851 49.6491L146.431 49.6491L145.023 133.848L195.992 67.1084L206.412 49.6491L247.525 49.6491L183.32 135.256ZM355.655 174.961C368.234 193.172 379.967 209.129 390.856 222.834L390.574 226.776C378.934 230.343 367.483 232.502 356.219 233.253L351.15 229.874C340.637 211.663 332.47 196.739 326.651 185.099H304.967V185.381L306.375 231H270.894L272.302 188.76L270.894 88.7917L332.283 88.51C348.24 88.51 360.537 92.2647 369.172 99.7741C377.996 107.096 382.408 117.609 382.408 131.313C382.408 140.137 380.061 148.397 375.368 156.094C370.674 163.604 364.103 169.893 355.655 174.961ZM305.531 158.065L326.651 159.192C333.034 157.127 337.727 154.123 340.731 150.181C343.734 146.238 345.236 141.169 345.236 134.974C345.236 128.216 343.265 123.241 339.323 120.049C335.38 116.67 329.185 114.793 320.737 114.417L306.375 114.981L305.531 158.065ZM539.939 231H504.176L500.233 210.443L497.699 202.277L468.976 201.995L443.631 202.558L441.66 208.472L437.436 231H402.799L452.643 88.7917L494.601 88.7917L539.939 231ZM490.096 175.525L474.044 121.176H471.792L452.924 175.525L471.228 175.806L490.096 175.525ZM679.573 161.163L679.292 182.846C679.479 198.991 674.129 211.476 663.24 220.299C652.54 228.935 637.145 233.253 617.058 233.253C597.534 233.253 582.609 228.935 572.283 220.299C561.958 211.476 557.077 198.991 557.64 182.846L557.922 160.6L557.077 88.7917L592.559 88.7917L590.869 177.777C590.681 186.976 592.84 193.735 597.346 198.053C602.039 202.371 609.079 204.53 618.466 204.53C628.04 204.53 635.08 202.371 639.586 198.053C644.279 193.547 646.532 186.789 646.344 177.777L644.936 88.7917L680.7 88.7917L679.573 161.163ZM802.532 157.502C812.481 159.943 819.803 163.885 824.496 169.329C829.377 174.586 831.818 181.626 831.818 190.449C831.818 204.717 825.904 215.23 814.077 221.989C802.25 228.747 784.697 232.126 761.418 232.126C751.092 232.126 736.543 231.751 717.77 231L719.178 188.76L717.77 88.7917L774.935 88.51C790.704 88.51 803.001 91.6077 811.824 97.8029C820.836 103.998 825.341 112.915 825.341 124.555C825.341 132.064 823.37 138.635 819.428 144.267C815.485 149.899 809.853 154.311 802.532 157.502ZM788.452 129.342C788.452 123.522 786.386 119.486 782.256 117.233C778.314 114.981 771.274 113.854 761.136 113.854H752.407L751.843 147.365L772.4 147.928C777.845 146.614 781.881 144.549 784.509 141.733C787.137 138.729 788.452 134.599 788.452 129.342ZM767.613 207.346C776.624 207.346 783.477 205.844 788.17 202.84C793.051 199.648 795.492 194.955 795.492 188.76C795.492 184.254 793.896 180.687 790.704 178.059C787.513 175.431 782.632 173.366 776.061 171.864L751.562 172.427L751.28 185.381L751.843 206.501C757.851 207.064 763.107 207.346 767.613 207.346ZM960.961 202.277L963.213 204.53L960.679 231H863.245L864.653 188.76L863.245 88.7917L962.087 88.7917L964.058 91.6077L961.805 117.797L925.197 116.389H898.727L898.164 145.112L923.508 145.393L948.007 144.549L949.978 147.083L947.725 173.835L920.973 172.99H897.6L897.319 185.381L897.882 203.403H922.663L960.961 202.277Z" fill="white"/>
</svg>
