<svg width="1057" height="392" viewBox="0 0 1057 392" fill="none" xmlns="http://www.w3.org/2000/svg">
<path d="M171.699 291.986C182.853 309.444 195.583 327.57 209.889 346.362L209.344 350.363C196.614 353.151 184.49 355.091 172.972 356.182L168.971 354C156.604 332.783 146.481 314.779 138.6 299.988L138.237 315.809L139.692 354H103.138L104.956 319.447L103.138 236.337L140.237 236.337L138.964 285.439L161.515 249.067L167.698 236.337H206.252L171.699 291.986ZM256.518 258.887C271.067 258.887 282.281 262.888 290.162 270.89C298.164 278.892 302.165 290.228 302.165 304.898C302.165 321.144 297.739 333.753 288.889 342.725C280.16 351.575 267.793 356 251.79 356C237.241 356 225.965 351.939 217.964 343.816C210.083 335.572 206.143 324.054 206.143 309.262C206.143 293.259 210.507 280.892 219.237 272.163C228.087 263.313 240.514 258.887 256.518 258.887ZM253.426 285.621C250.032 285.621 247.486 286.106 245.788 287.076C244.212 287.924 243.06 289.682 242.333 292.35C241.727 295.017 241.424 299.139 241.424 304.716C241.424 312.354 241.787 317.992 242.515 321.629C243.242 325.266 244.515 327.752 246.334 329.085C248.152 330.419 251.002 331.086 254.881 331.086C258.397 331.086 260.943 330.661 262.519 329.813C264.217 328.843 265.368 327.085 265.975 324.539C266.581 321.871 266.884 317.749 266.884 312.172C266.884 304.413 266.52 298.715 265.793 295.077C265.187 291.44 263.914 288.955 261.974 287.621C260.155 286.288 257.306 285.621 253.426 285.621ZM359.576 260.16C374.246 260.16 385.46 263.919 393.22 271.436C401.1 278.831 405.041 289.5 405.041 303.443C405.041 320.174 400.433 333.026 391.219 341.997C382.005 350.969 368.79 355.455 351.574 355.455C342.844 355.455 330.114 354.97 313.383 354L315.02 326.903L313.383 260.706L359.576 260.16ZM357.939 330.54C361.819 330.54 364.728 329.146 366.668 326.357C368.729 323.569 369.76 318.719 369.76 311.809C369.76 305.14 369.335 299.988 368.487 296.35C367.759 292.713 366.426 290.167 364.486 288.712C362.667 287.136 360.061 286.348 356.666 286.348C354.12 286.348 350.846 286.53 346.845 286.894L345.754 323.448L345.936 329.085C351.756 330.055 355.757 330.54 357.939 330.54ZM488.415 327.267L490.233 329.449L488.233 354L416.035 354L417.671 326.903L416.035 260.706H489.506L491.324 263.07L489.324 287.621L464.773 286.53H449.497L449.315 294.532H463.864L479.685 293.986L481.504 296.35L479.504 320.902L461.681 320.356H448.587L448.406 323.448L448.587 328.176H462.954L488.415 327.267Z" fill="#8798C3"/>
<path d="M183.32 111.256C203.408 139.228 226.593 168.515 252.876 199.115L252.312 203.339C241.799 205.967 229.409 208.126 215.141 209.816L210.636 207.563C186.042 174.898 164.171 143.546 145.023 113.509L144.459 149.553L145.867 207H107.851L109.822 152.933L107.851 25.6491L146.431 25.6491L145.023 109.848L195.992 43.1084L206.412 25.6491L247.525 25.6491L183.32 111.256ZM355.655 150.961C368.234 169.172 379.967 185.129 390.856 198.834L390.574 202.776C378.934 206.343 367.483 208.502 356.219 209.253L351.15 205.874C340.637 187.663 332.47 172.739 326.651 161.099H304.967V161.381L306.375 207H270.894L272.302 164.76L270.894 64.7917L332.283 64.51C348.24 64.51 360.537 68.2647 369.172 75.7741C377.996 83.0957 382.408 93.6088 382.408 107.313C382.408 116.137 380.061 124.397 375.368 132.094C370.674 139.604 364.103 145.893 355.655 150.961ZM305.531 134.065L326.651 135.192C333.034 133.127 337.727 130.123 340.731 126.181C343.734 122.238 345.236 117.169 345.236 110.974C345.236 104.216 343.265 99.2408 339.323 96.0493C335.38 92.6701 329.185 90.7928 320.737 90.4173L306.375 90.9805L305.531 134.065ZM539.939 207H504.176L500.233 186.443L497.699 178.277L468.976 177.995L443.631 178.558L441.66 184.472L437.436 207H402.799L452.643 64.7917L494.601 64.7917L539.939 207ZM490.096 151.525L474.044 97.1757H471.792L452.924 151.525L471.228 151.806L490.096 151.525ZM679.573 137.163L679.292 158.846C679.479 174.991 674.129 187.476 663.24 196.299C652.54 204.935 637.145 209.253 617.058 209.253C597.534 209.253 582.609 204.935 572.283 196.299C561.958 187.476 557.077 174.991 557.64 158.846L557.922 136.6L557.077 64.7917L592.559 64.7917L590.869 153.777C590.681 162.976 592.84 169.735 597.346 174.053C602.039 178.371 609.079 180.53 618.466 180.53C628.04 180.53 635.08 178.371 639.586 174.053C644.279 169.547 646.532 162.789 646.344 153.777L644.936 64.7917L680.7 64.7917L679.573 137.163ZM802.532 133.502C812.481 135.943 819.803 139.885 824.496 145.329C829.377 150.586 831.818 157.626 831.818 166.449C831.818 180.717 825.904 191.23 814.077 197.989C802.25 204.747 784.697 208.126 761.418 208.126C751.092 208.126 736.543 207.751 717.77 207L719.178 164.76L717.77 64.7917L774.935 64.51C790.704 64.51 803.001 67.6077 811.824 73.8029C820.836 79.9981 825.341 88.9154 825.341 100.555C825.341 108.064 823.37 114.635 819.428 120.267C815.485 125.899 809.853 130.311 802.532 133.502ZM788.452 105.342C788.452 99.5224 786.386 95.4861 782.256 93.2333C778.314 90.9805 771.274 89.8541 761.136 89.8541H752.407L751.843 123.365L772.4 123.928C777.845 122.614 781.881 120.549 784.509 117.733C787.137 114.729 788.452 110.599 788.452 105.342ZM767.613 183.346C776.624 183.346 783.477 181.844 788.17 178.84C793.051 175.648 795.492 170.955 795.492 164.76C795.492 160.254 793.896 156.687 790.704 154.059C787.513 151.431 782.632 149.366 776.061 147.864L751.562 148.427L751.28 161.381L751.843 182.501C757.851 183.064 763.107 183.346 767.613 183.346ZM960.961 178.277L963.213 180.53L960.679 207H863.245L864.653 164.76L863.245 64.7917L962.087 64.7917L964.058 67.6077L961.805 93.7965L925.197 92.3885H898.727L898.164 121.112L923.508 121.393L948.007 120.549L949.978 123.083L947.725 149.835L920.973 148.99H897.6L897.319 161.381L897.882 179.403H922.663L960.961 178.277Z" fill="white"/>
</svg>
