<svg width="2305" height="721" viewBox="0 0 2305 721" fill="none" xmlns="http://www.w3.org/2000/svg">
<path d="M1007.42 170.767C1034.44 213.061 1065.28 256.971 1099.93 302.496L1098.61 312.189C1067.77 318.944 1038.4 323.643 1010.5 326.287L1000.81 321C970.848 269.601 946.324 225.985 927.232 190.152L926.351 228.481L929.876 321H841.322L845.728 237.292L841.322 35.9537H931.198L928.114 154.907L982.744 66.7934L997.723 35.9537L1091.12 35.9537L1007.42 170.767ZM1283.62 233.327C1304.77 263.286 1321.8 286.195 1334.73 302.056L1333.4 310.867C1306.09 318.797 1279.51 323.643 1253.66 325.406L1242.65 317.035C1230.31 290.307 1221.35 270.775 1215.77 258.44H1193.74L1196.83 321H1114.88L1118.85 255.356L1114.88 94.9896H1235.6C1262.91 94.9896 1284.06 101.158 1299.04 113.493C1314.02 125.536 1321.51 143.011 1321.51 165.921C1321.51 178.844 1318.13 191.18 1311.38 202.928C1304.91 214.383 1295.66 224.516 1283.62 233.327ZM1196.39 151.823L1194.63 199.404L1218.86 201.166C1224.73 198.229 1228.84 194.704 1231.19 190.592C1233.84 186.48 1235.16 181.047 1235.16 174.291C1235.16 166.361 1232.95 160.634 1228.55 157.109C1224.14 153.585 1216.65 151.529 1206.08 150.941L1196.39 151.823ZM1489.21 321L1484.36 289.72L1450.88 288.839L1424.44 290.16L1419.6 321H1339.85L1409.9 94.9896H1508.59L1572.03 321H1489.21ZM1455.72 230.684L1472.9 230.243L1460.13 167.242H1455.28L1438.54 230.243L1455.72 230.684ZM1793.44 209.537L1793 246.544C1792.71 272.097 1783.31 291.776 1764.8 305.58C1746.3 319.091 1719.87 325.846 1685.5 325.846C1652.31 325.846 1627.05 319.091 1609.72 305.58C1592.4 291.776 1584.17 272.097 1585.05 246.544L1585.93 209.977L1583.73 94.9896H1665.24L1661.71 235.53C1661.42 244.929 1663.33 251.684 1667.44 255.796C1671.55 259.614 1678.75 261.524 1689.03 261.524C1699.31 261.524 1706.5 259.614 1710.61 255.796C1715.02 251.684 1717.08 244.929 1716.78 235.53L1713.26 94.9896H1796.08L1793.44 209.537ZM2005.53 205.131C2020.51 209.537 2031.23 215.852 2037.69 224.075C2044.45 232.006 2047.83 242.432 2047.83 255.356C2047.83 279.146 2037.4 296.475 2016.55 307.342C1995.69 318.21 1964.27 323.643 1922.26 323.643C1903.17 323.643 1875.12 322.762 1838.12 321L1842.08 255.356L1838.12 94.9896H1952.22C1980.42 94.9896 2002.3 99.9827 2017.87 109.969C2033.73 119.955 2041.66 134.641 2041.66 154.025C2041.66 164.893 2038.57 174.732 2032.41 183.543C2026.24 192.355 2017.28 199.551 2005.53 205.131ZM1957.07 166.361C1957.07 161.662 1955.89 158.137 1953.54 155.788C1951.49 153.438 1947.82 151.823 1942.53 150.941C1937.24 150.06 1929.02 149.62 1917.86 149.62L1916.98 184.425L1940.77 185.746C1946.64 183.69 1950.75 181.341 1953.1 178.697C1955.75 175.76 1957.07 171.648 1957.07 166.361ZM1938.12 269.454C1946.06 269.454 1952.22 267.985 1956.63 265.048C1961.33 262.111 1963.68 257.705 1963.68 251.831C1963.68 248.6 1962.5 245.81 1960.15 243.46C1957.8 241.111 1953.84 238.761 1948.26 236.411L1915.66 237.292L1915.22 246.985L1916.1 268.132C1924.91 269.013 1932.25 269.454 1938.12 269.454ZM2259.13 256.237L2263.53 261.524L2258.69 321H2083.78L2087.75 255.356L2083.78 94.9896H2261.77L2266.18 100.717L2261.33 160.193L2201.86 157.55H2164.85L2164.41 176.935H2199.65L2237.98 175.613L2242.39 181.341L2237.54 240.817L2194.37 239.495H2162.65L2162.2 246.985L2162.65 258.44H2197.45L2259.13 256.237Z" fill="white"/>
<path d="M940.188 461.072C956.722 486.952 975.593 513.821 996.8 541.678L995.991 547.608C977.12 551.742 959.148 554.617 942.075 556.235L936.144 553C917.812 521.549 902.805 494.86 891.124 472.934L890.584 496.388L892.741 553H838.555L841.251 501.779L838.555 378.58H893.55L891.663 451.367L925.091 397.451L934.257 378.58H991.408L940.188 461.072ZM1065.92 412.008C1087.49 412.008 1104.11 417.939 1115.79 429.801C1127.65 441.662 1133.59 458.466 1133.59 480.213C1133.59 504.295 1127.03 522.986 1113.91 536.286C1100.97 549.406 1082.63 555.965 1058.91 555.965C1037.34 555.965 1020.63 549.945 1008.77 537.903C997.087 525.682 991.246 508.609 991.246 486.683C991.246 462.959 997.716 444.628 1010.66 431.688C1023.78 418.568 1042.2 412.008 1065.92 412.008ZM1061.34 451.637C1056.31 451.637 1052.53 452.356 1050.01 453.794C1047.68 455.052 1045.97 457.658 1044.89 461.612C1043.99 465.565 1043.54 471.676 1043.54 479.943C1043.54 491.266 1044.08 499.623 1045.16 505.014C1046.24 510.406 1048.13 514.09 1050.82 516.067C1053.52 518.044 1057.74 519.033 1063.49 519.033C1068.71 519.033 1072.48 518.404 1074.82 517.146C1077.33 515.708 1079.04 513.102 1079.94 509.328C1080.84 505.374 1081.29 499.263 1081.29 490.996C1081.29 479.494 1080.75 471.047 1079.67 465.655C1078.77 460.264 1076.88 456.579 1074.01 454.602C1071.31 452.626 1067.09 451.637 1061.34 451.637ZM1218.69 413.896C1240.44 413.896 1257.06 419.467 1268.56 430.61C1280.24 441.573 1286.08 457.388 1286.08 478.056C1286.08 502.858 1279.26 521.908 1265.6 535.208C1251.94 548.507 1232.35 555.157 1206.83 555.157C1193.89 555.157 1175.02 554.438 1150.22 553L1152.64 512.832L1150.22 414.704L1218.69 413.896ZM1216.26 518.224C1222.01 518.224 1226.33 516.157 1229.2 512.023C1232.26 507.89 1233.79 500.701 1233.79 490.457C1233.79 480.572 1233.16 472.934 1231.9 467.542C1230.82 462.151 1228.84 458.377 1225.97 456.22C1223.27 453.884 1219.41 452.715 1214.38 452.715C1210.6 452.715 1205.75 452.985 1199.82 453.524L1198.2 507.71L1198.47 516.067C1207.1 517.505 1213.03 518.224 1216.26 518.224ZM1409.68 513.371L1412.37 516.606L1409.41 553H1302.38L1304.81 512.832L1302.38 414.704H1411.29L1413.99 418.209L1411.02 454.602L1374.63 452.985H1351.99L1351.72 464.847H1373.28L1396.74 464.038L1399.43 467.542L1396.47 503.936L1370.05 503.127H1350.64L1350.37 507.71L1350.64 514.719H1371.93L1409.68 513.371Z" fill="#8798C3"/>
<path d="M350.682 73.7743V93.5486H369.319H387.956V117.506V141.463H289.826H191.696V257.067V372.67H183.328H174.961V291.291V209.912H87.4801C25.2552 209.912 0 210.141 0 210.749C0 211.206 2.81459 214.552 6.31383 218.203C9.73697 221.853 15.6704 228.242 19.4739 232.425C23.2774 236.532 32.3297 246.267 39.5563 254.025C46.783 261.782 53.5532 269.235 54.6181 270.604L56.5199 273.038L52.4122 277.83C50.2061 280.415 47.0112 283.914 45.2615 285.587C43.588 287.26 38.7956 292.432 34.6118 296.996C26.3963 305.97 19.8542 313.043 7.98734 325.744C3.80349 330.232 0.304279 334.186 0.152139 334.643C-0.0760701 335.175 21.756 335.403 66.1049 335.403C114.637 335.403 132.437 335.631 132.818 336.24C133.122 336.772 133.503 345.138 133.731 354.874L134.111 372.67H120.647H107.258V431.232V489.795H121.332H135.404V501.963V514.133H156.399H177.395L176.862 501.963L176.254 489.795H184.013H191.696V546.456V603.117H213.756H235.816V662.059V721H257.496H279.176V662.059V603.117H299.335H319.493V662.059V721H341.173H362.853V662.059V603.117H444.628H526.404V662.059V721H548.083H569.763V662.059V603.117H589.922H610.078V662.059V721H631.758H653.438V662.059V603.117H675.5H697.562L697.711 546.684L697.939 490.175L740.009 489.947L782 489.795V431.232V372.67L740.009 372.518L697.939 372.29L697.711 256.839L697.562 141.463H606.279H514.993V117.506V93.5486H533.25H551.507V73.7743V54H511.57H471.633V97.7316V141.463H451.474H431.316V97.7316V54H390.999H350.682V73.7743ZM319.493 315.629V372.67H299.335H279.176V316.161C279.176 285.055 279.404 259.348 279.709 259.12C279.937 258.816 289.066 258.588 299.867 258.588H319.493V315.629ZM609.93 315.781L610.078 372.67H589.922H569.763V316.161C569.763 285.055 569.992 259.348 570.296 259.12C570.598 258.816 579.578 258.664 590.224 258.74L609.702 258.968L609.93 315.781Z" fill="#8798C3"/>
</svg>
