<svg width="2305" height="880" viewBox="0 0 2305 880" fill="none" xmlns="http://www.w3.org/2000/svg">
<path d="M1007.42 446.767C1034.44 489.061 1065.28 532.971 1099.93 578.496L1098.61 588.189C1067.77 594.944 1038.4 599.643 1010.5 602.287L1000.81 597C970.848 545.601 946.324 501.985 927.232 466.152L926.351 504.481L929.876 597H841.322L845.728 513.292L841.322 311.954H931.198L928.114 430.907L982.744 342.793L997.723 311.954H1091.12L1007.42 446.767ZM1283.62 509.327C1304.77 539.286 1321.8 562.195 1334.73 578.056L1333.4 586.867C1306.09 594.797 1279.51 599.643 1253.66 601.406L1242.65 593.035C1230.31 566.307 1221.35 546.775 1215.77 534.44H1193.74L1196.83 597H1114.88L1118.85 531.356L1114.88 370.99H1235.6C1262.91 370.99 1284.06 377.158 1299.04 389.493C1314.02 401.536 1321.51 419.011 1321.51 441.921C1321.51 454.844 1318.13 467.18 1311.38 478.928C1304.91 490.383 1295.66 500.516 1283.62 509.327ZM1196.39 427.823L1194.63 475.404L1218.86 477.166C1224.73 474.229 1228.84 470.704 1231.19 466.592C1233.84 462.48 1235.16 457.047 1235.16 450.291C1235.16 442.361 1232.95 436.634 1228.55 433.109C1224.14 429.585 1216.65 427.529 1206.08 426.941L1196.39 427.823ZM1489.21 597L1484.36 565.72L1450.88 564.839L1424.44 566.16L1419.6 597H1339.85L1409.9 370.99H1508.59L1572.03 597H1489.21ZM1455.72 506.684L1472.9 506.243L1460.13 443.242H1455.28L1438.54 506.243L1455.72 506.684ZM1793.44 485.537L1793 522.544C1792.71 548.097 1783.31 567.776 1764.8 581.58C1746.3 595.091 1719.87 601.846 1685.5 601.846C1652.31 601.846 1627.05 595.091 1609.72 581.58C1592.4 567.776 1584.17 548.097 1585.05 522.544L1585.93 485.977L1583.73 370.99H1665.24L1661.71 511.53C1661.42 520.929 1663.33 527.684 1667.44 531.796C1671.55 535.614 1678.75 537.524 1689.03 537.524C1699.31 537.524 1706.5 535.614 1710.61 531.796C1715.02 527.684 1717.08 520.929 1716.78 511.53L1713.26 370.99H1796.08L1793.44 485.537ZM2005.53 481.131C2020.51 485.537 2031.23 491.852 2037.69 500.075C2044.45 508.006 2047.83 518.432 2047.83 531.356C2047.83 555.146 2037.4 572.475 2016.55 583.342C1995.69 594.21 1964.27 599.643 1922.26 599.643C1903.17 599.643 1875.12 598.762 1838.12 597L1842.08 531.356L1838.12 370.99H1952.22C1980.42 370.99 2002.3 375.983 2017.87 385.969C2033.73 395.955 2041.66 410.641 2041.66 430.025C2041.66 440.893 2038.57 450.732 2032.41 459.543C2026.24 468.355 2017.28 475.551 2005.53 481.131ZM1957.07 442.361C1957.07 437.662 1955.89 434.137 1953.54 431.788C1951.49 429.438 1947.82 427.823 1942.53 426.941C1937.24 426.06 1929.02 425.62 1917.86 425.62L1916.98 460.425L1940.77 461.746C1946.64 459.69 1950.75 457.341 1953.1 454.697C1955.75 451.76 1957.07 447.648 1957.07 442.361ZM1938.12 545.454C1946.06 545.454 1952.22 543.985 1956.63 541.048C1961.33 538.111 1963.68 533.705 1963.68 527.831C1963.68 524.6 1962.5 521.81 1960.15 519.46C1957.8 517.111 1953.84 514.761 1948.26 512.411L1915.66 513.292L1915.22 522.985L1916.1 544.132C1924.91 545.013 1932.25 545.454 1938.12 545.454ZM2259.13 532.237L2263.53 537.524L2258.69 597H2083.78L2087.75 531.356L2083.78 370.99H2261.77L2266.18 376.717L2261.33 436.193L2201.86 433.55H2164.85L2164.41 452.935H2199.65L2237.98 451.613L2242.39 457.341L2237.54 516.817L2194.37 515.495H2162.65L2162.2 522.985L2162.65 534.44H2197.45L2259.13 532.237Z" fill="white"/>
<path d="M940.188 737.072C956.722 762.952 975.593 789.821 996.8 817.678L995.991 823.608C977.12 827.742 959.148 830.617 942.075 832.235L936.144 829C917.812 797.549 902.805 770.86 891.124 748.934L890.584 772.388L892.741 829H838.555L841.251 777.779L838.555 654.58H893.55L891.663 727.367L925.091 673.451L934.257 654.58H991.408L940.188 737.072ZM1065.92 688.008C1087.49 688.008 1104.11 693.939 1115.79 705.801C1127.65 717.662 1133.59 734.466 1133.59 756.213C1133.59 780.295 1127.03 798.986 1113.91 812.286C1100.97 825.406 1082.63 831.965 1058.91 831.965C1037.34 831.965 1020.63 825.945 1008.77 813.903C997.087 801.682 991.246 784.609 991.246 762.683C991.246 738.959 997.716 720.628 1010.66 707.688C1023.78 694.568 1042.2 688.008 1065.92 688.008ZM1061.34 727.637C1056.31 727.637 1052.53 728.356 1050.01 729.794C1047.68 731.052 1045.97 733.658 1044.89 737.612C1043.99 741.565 1043.54 747.676 1043.54 755.943C1043.54 767.266 1044.08 775.623 1045.16 781.014C1046.24 786.406 1048.13 790.09 1050.82 792.067C1053.52 794.044 1057.74 795.033 1063.49 795.033C1068.71 795.033 1072.48 794.404 1074.82 793.146C1077.33 791.708 1079.04 789.102 1079.94 785.328C1080.84 781.374 1081.29 775.263 1081.29 766.996C1081.29 755.494 1080.75 747.047 1079.67 741.655C1078.77 736.264 1076.88 732.579 1074.01 730.602C1071.31 728.626 1067.09 727.637 1061.34 727.637ZM1218.69 689.896C1240.44 689.896 1257.06 695.467 1268.56 706.61C1280.24 717.573 1286.08 733.388 1286.08 754.056C1286.08 778.858 1279.26 797.908 1265.6 811.208C1251.94 824.507 1232.35 831.157 1206.83 831.157C1193.89 831.157 1175.02 830.438 1150.22 829L1152.64 788.832L1150.22 690.704L1218.69 689.896ZM1216.26 794.224C1222.01 794.224 1226.33 792.157 1229.2 788.023C1232.26 783.89 1233.79 776.701 1233.79 766.457C1233.79 756.572 1233.16 748.934 1231.9 743.542C1230.82 738.151 1228.84 734.377 1225.97 732.22C1223.27 729.884 1219.41 728.715 1214.38 728.715C1210.6 728.715 1205.75 728.985 1199.82 729.524L1198.2 783.71L1198.47 792.067C1207.1 793.505 1213.03 794.224 1216.26 794.224ZM1409.68 789.371L1412.37 792.606L1409.41 829H1302.38L1304.81 788.832L1302.38 690.704H1411.29L1413.99 694.209L1411.02 730.602L1374.63 728.985H1351.99L1351.72 740.847H1373.28L1396.74 740.038L1399.43 743.542L1396.47 779.936L1370.05 779.127H1350.64L1350.37 783.71L1350.64 790.719H1371.93L1409.68 789.371Z" fill="#8798C3"/>
<path d="M350.682 19.7743V39.5486H369.319H387.956V63.5056V87.463H289.826H191.696V203.067V318.67H183.328H174.961V237.291V155.912H87.4801C25.2552 155.912 0 156.141 0 156.749C0 157.206 2.81459 160.552 6.31383 164.203C9.73697 167.853 15.6704 174.242 19.4739 178.425C23.2774 182.532 32.3297 192.267 39.5563 200.025C46.783 207.782 53.5532 215.235 54.6181 216.604L56.5199 219.038L52.4122 223.83C50.2061 226.415 47.0112 229.914 45.2615 231.587C43.588 233.26 38.7956 238.432 34.6118 242.996C26.3963 251.97 19.8542 259.043 7.98734 271.744C3.80349 276.232 0.304279 280.186 0.152139 280.643C-0.0760701 281.175 21.756 281.403 66.1049 281.403C114.637 281.403 132.437 281.631 132.818 282.24C133.122 282.772 133.503 291.138 133.731 300.874L134.111 318.67H120.647H107.258V377.232V435.795H121.332H135.404V447.963V460.133H156.399H177.395L176.862 447.963L176.254 435.795H184.013H191.696V492.456V549.117H213.756H235.816V608.059V667H257.496H279.176V608.059V549.117H299.335H319.493V608.059V667H341.173H362.853V608.059V549.117H444.628H526.404V608.059V667H548.083H569.763V608.059V549.117H589.922H610.078V608.059V667H631.758H653.438V608.059V549.117H675.5H697.562L697.711 492.684L697.939 436.175L740.009 435.947L782 435.795V377.232V318.67L740.009 318.518L697.939 318.29L697.711 202.839L697.562 87.463H606.279H514.993V63.5056V39.5486H533.25H551.507V19.7743V0H511.57H471.633V43.7316V87.463H451.474H431.316V43.7316V0H390.999H350.682V19.7743ZM319.493 261.629V318.67H299.335H279.176V262.161C279.176 231.055 279.404 205.348 279.709 205.12C279.937 204.816 289.066 204.588 299.867 204.588H319.493V261.629ZM609.93 261.781L610.078 318.67H589.922H569.763V262.161C569.763 231.055 569.992 205.348 570.296 205.12C570.598 204.816 579.578 204.664 590.224 204.74L609.702 204.968L609.93 261.781Z" fill="#8798C3"/>
</svg>
