<svg width="3933" height="1170" viewBox="0 0 3933 1170" fill="none" xmlns="http://www.w3.org/2000/svg">
<path d="M1652.03 452.7C1683.46 496.463 1719.73 542.281 1760.85 590.156L1759.97 596.765C1743.52 600.877 1724.14 604.254 1701.82 606.898L1694.77 603.373C1656.29 552.268 1622.07 503.218 1592.11 456.224L1591.23 512.617L1593.44 602.492H1533.96L1537.04 517.904L1533.96 318.768H1594.32L1592.11 450.497L1671.86 346.083L1688.16 318.768H1752.48L1652.03 452.7ZM1921.65 514.82C1941.33 543.309 1959.69 568.275 1976.72 589.716L1976.28 595.884C1958.07 601.464 1940.16 604.842 1922.53 606.017L1914.6 600.73C1898.15 572.24 1885.38 548.89 1876.27 530.68H1842.35V531.12L1844.55 602.492H1789.04L1791.24 536.407L1789.04 380.006L1885.08 379.566C1910.05 379.566 1929.29 385.44 1942.8 397.188C1956.6 408.643 1963.51 425.091 1963.51 446.532C1963.51 460.336 1959.83 473.259 1952.49 485.302C1945.15 497.05 1934.87 506.889 1921.65 514.82ZM1843.23 488.386L1876.27 490.148C1886.26 486.917 1893.6 482.218 1898.3 476.05C1903 469.882 1905.35 461.952 1905.35 452.259C1905.35 441.686 1902.27 433.902 1896.1 428.909C1889.93 423.622 1880.24 420.685 1867.02 420.098L1844.55 420.979L1843.23 488.386ZM2209.96 602.492H2154.01L2147.84 570.331L2143.88 557.554L2098.94 557.114L2059.29 557.995L2056.21 567.247L2049.6 602.492H1995.41L2073.39 380.006H2139.03L2209.96 602.492ZM2131.98 515.701L2106.87 430.671H2103.35L2073.83 515.701L2102.47 516.141L2131.98 515.701ZM2428.42 493.232L2427.98 527.155C2428.28 552.415 2419.91 571.946 2402.87 585.751C2386.13 599.261 2362.04 606.017 2330.62 606.017C2300.07 606.017 2276.72 599.261 2260.57 585.751C2244.41 571.946 2236.78 552.415 2237.66 527.155L2238.1 492.351L2236.78 380.006H2292.29L2289.64 519.225C2289.35 533.617 2292.73 544.191 2299.78 550.946C2307.12 557.701 2318.13 561.079 2332.82 561.079C2347.8 561.079 2358.81 557.701 2365.86 550.946C2373.21 543.897 2376.73 533.323 2376.44 519.225L2374.23 380.006H2430.19L2428.42 493.232ZM2620.79 487.504C2636.36 491.323 2647.81 497.491 2655.16 506.008C2662.79 514.232 2666.61 525.246 2666.61 539.051C2666.61 561.373 2657.36 577.82 2638.86 588.394C2620.35 598.968 2592.89 604.254 2556.47 604.254C2540.32 604.254 2517.55 603.667 2488.18 602.492L2490.38 536.407L2488.18 380.006L2577.62 379.566C2602.29 379.566 2621.53 384.412 2635.33 394.104C2649.43 403.797 2656.48 417.748 2656.48 435.958C2656.48 447.707 2653.39 457.987 2647.23 466.798C2641.06 475.609 2632.25 482.511 2620.79 487.504ZM2598.76 443.448C2598.76 434.343 2595.53 428.028 2589.07 424.503C2582.9 420.979 2571.89 419.217 2556.03 419.217H2542.37L2541.49 471.644L2573.65 472.525C2582.17 470.469 2588.48 467.238 2592.6 462.833C2596.71 458.133 2598.76 451.672 2598.76 443.448ZM2566.16 565.485C2580.26 565.485 2590.98 563.135 2598.32 558.436C2605.96 553.442 2609.78 546.1 2609.78 536.407C2609.78 529.358 2607.28 523.778 2602.29 519.666C2597.3 515.554 2589.66 512.323 2579.38 509.973L2541.05 510.854L2540.61 531.12L2541.49 564.163C2550.89 565.044 2559.11 565.485 2566.16 565.485ZM2868.65 557.554L2872.18 561.079L2868.21 602.492H2715.78L2717.98 536.407L2715.78 380.006H2870.42L2873.5 384.412L2869.98 425.385L2812.7 423.182H2771.29L2770.41 468.12L2810.06 468.56L2848.39 467.238L2851.47 471.203L2847.95 513.057L2806.09 511.736H2769.53L2769.09 531.12L2769.97 559.317H2808.74L2868.65 557.554Z" fill="white"/>
<path d="M3143.75 452.259C3170.78 494.553 3201.62 538.463 3236.27 583.988L3234.95 593.681C3204.11 600.436 3174.74 605.136 3146.84 607.779L3137.15 602.492C3107.19 551.093 3082.66 507.477 3063.57 471.644L3062.69 509.973L3066.21 602.492H2977.66L2982.07 518.785L2977.66 317.446H3067.54L3064.45 436.399L3119.08 348.286L3134.06 317.446H3227.46L3143.75 452.259ZM3349.23 372.076C3384.48 372.076 3411.65 381.769 3430.74 401.153C3450.12 420.538 3459.82 448 3459.82 483.539C3459.82 522.897 3449.1 553.442 3427.65 575.177C3406.51 596.618 3376.55 607.338 3337.78 607.338C3302.53 607.338 3275.22 597.499 3255.83 577.82C3236.74 557.848 3227.2 529.946 3227.2 494.113C3227.2 455.343 3237.77 425.385 3258.92 404.237C3280.36 382.797 3310.46 372.076 3349.23 372.076ZM3341.74 436.839C3333.52 436.839 3327.35 438.014 3323.24 440.364C3319.42 442.42 3316.63 446.679 3314.87 453.14C3313.4 459.602 3312.67 469.588 3312.67 483.099C3312.67 501.603 3313.55 515.26 3315.31 524.071C3317.07 532.883 3320.16 538.904 3324.56 542.135C3328.97 545.365 3335.87 546.981 3345.27 546.981C3353.79 546.981 3359.95 545.953 3363.77 543.897C3367.88 541.547 3370.67 537.288 3372.14 531.12C3373.61 524.659 3374.35 514.673 3374.35 501.162C3374.35 482.365 3373.46 468.56 3371.7 459.749C3370.23 450.937 3367.15 444.916 3362.45 441.686C3358.04 438.455 3351.14 436.839 3341.74 436.839ZM3598.9 375.16C3634.44 375.16 3661.6 384.265 3680.4 402.475C3699.49 420.392 3709.04 446.238 3709.04 480.015C3709.04 520.547 3697.88 551.68 3675.56 573.415C3653.23 595.149 3621.22 606.017 3579.51 606.017C3558.36 606.017 3527.53 604.842 3486.99 602.492L3490.96 536.848L3486.99 376.482L3598.9 375.16ZM3594.93 545.659C3604.33 545.659 3611.38 542.281 3616.08 535.526C3621.07 528.771 3623.57 517.022 3623.57 500.281C3623.57 484.127 3622.54 471.644 3620.48 462.833C3618.72 454.021 3615.49 447.853 3610.79 444.329C3606.39 440.511 3600.07 438.602 3591.85 438.602C3585.68 438.602 3577.75 439.042 3568.06 439.923L3565.41 528.477L3565.85 542.135C3579.95 544.484 3589.64 545.659 3594.93 545.659ZM3911.02 537.729L3915.42 543.016L3910.58 602.492H3735.67L3739.64 536.848L3735.67 376.482H3913.66L3918.07 382.209L3913.22 441.686L3853.74 439.042H3816.74L3816.3 458.427H3851.54L3889.87 457.105L3894.28 462.833L3889.43 522.309L3846.25 520.987H3814.53L3814.09 528.477L3814.53 539.932H3849.34L3911.02 537.729Z" fill="#8798C3"/>
<path d="M2719.02 775.492H2706.84L2688.48 720.876H2687.46L2668.08 775.492H2655.89L2625.94 681.382H2637.68L2639.3 690.485L2662.2 762.425H2663.23L2683.49 705.166L2675.56 681.382H2687.6L2689.8 691.512L2713 762.425H2713.88L2739.43 691.072L2741.63 681.382H2752.79L2719.02 775.492ZM2777.69 752.589L2777.98 775.492H2767.12L2767.56 753.47L2767.12 702.377H2778.13L2777.69 752.589ZM2849.35 703.258L2848.62 712.507L2834.96 711.48H2827.62L2827.18 752.589L2827.62 775.492H2816.61L2817.05 753.47L2816.76 711.48H2809.42L2795.47 712.507L2794.59 711.48L2795.47 702.377H2848.76L2849.35 703.258ZM2927.98 752.589L2928.27 775.492H2917.4L2917.84 753.47L2917.7 743.486L2877.91 743.633L2877.76 752.589L2878.06 775.492H2867.19L2867.63 753.47L2867.19 702.377H2878.2L2877.91 733.796L2897.73 733.943L2917.7 733.796L2917.4 702.377H2928.42L2927.98 752.589ZM3018.23 767.27L3017.5 775.492H2978.59L2979.03 753.47L2978.59 702.377H2989.6L2989.16 752.589L2989.45 766.243H3017.64L3018.23 767.27ZM3057.84 701.496C3068.51 701.496 3076.68 704.628 3082.36 710.892C3088.13 717.157 3091.02 726.015 3091.02 737.466C3091.02 749.897 3087.94 759.538 3081.77 766.389C3075.7 773.143 3066.99 776.52 3055.64 776.52C3045.07 776.52 3036.9 773.339 3031.12 766.977C3025.35 760.517 3022.46 751.365 3022.46 739.522C3022.46 727.385 3025.54 718.037 3031.71 711.48C3037.87 704.824 3046.59 701.496 3057.84 701.496ZM3056.81 710.746C3049.08 710.746 3043.31 712.948 3039.49 717.352C3035.77 721.757 3033.91 728.706 3033.91 738.2C3033.91 748.38 3035.77 755.77 3039.49 760.37C3043.21 764.97 3048.89 767.27 3056.52 767.27C3064.35 767.27 3070.17 765.019 3073.99 760.517C3077.81 756.014 3079.72 748.967 3079.72 739.375C3079.72 729.489 3077.81 722.246 3073.99 717.646C3070.27 713.046 3064.55 710.746 3056.81 710.746ZM3137.86 775.492H3124.79L3099.25 702.377H3110.55L3112.31 710.452L3131.25 764.628H3131.99L3152.98 710.892L3154.74 702.377H3165.75L3137.86 775.492ZM3226.54 766.096L3227.42 766.977L3226.39 775.492H3181.9L3182.35 753.47L3181.9 702.377H3226.68L3227.42 703.258L3226.54 711.773L3208.04 711.186L3192.77 711.333L3192.62 733.502L3207.16 733.649L3219.93 733.209L3220.66 734.236L3219.78 742.899L3206.28 742.458L3192.62 742.605L3192.48 752.589L3192.62 766.536L3207.01 766.683L3226.54 766.096ZM3280.07 711.333L3279.92 735.411L3292.55 735.558L3305.47 735.117L3306.2 736.145L3305.47 744.514L3291.52 744.367L3279.77 744.514V752.589L3280.07 775.492H3269.2L3269.5 753.47L3269.2 702.377H3311.78L3312.37 703.258L3311.49 711.773L3293.43 711.186L3280.07 711.333ZM3355.35 701.496C3366.02 701.496 3374.19 704.628 3379.87 710.892C3385.64 717.157 3388.53 726.015 3388.53 737.466C3388.53 749.897 3385.45 759.538 3379.28 766.389C3373.21 773.143 3364.5 776.52 3353.15 776.52C3342.58 776.52 3334.4 773.339 3328.63 766.977C3322.85 760.517 3319.97 751.365 3319.97 739.522C3319.97 727.385 3323.05 718.037 3329.21 711.48C3335.38 704.824 3344.09 701.496 3355.35 701.496ZM3354.32 710.746C3346.59 710.746 3340.81 712.948 3337 717.352C3333.28 721.757 3331.42 728.706 3331.42 738.2C3331.42 748.38 3333.28 755.77 3337 760.37C3340.72 764.97 3346.39 767.27 3354.03 767.27C3361.86 767.27 3367.68 765.019 3371.5 760.517C3375.32 756.014 3377.22 748.967 3377.22 739.375C3377.22 729.489 3375.32 722.246 3371.5 717.646C3367.78 713.046 3362.05 710.746 3354.32 710.746ZM3441.92 745.982C3447.89 755.085 3454.5 764.04 3461.74 772.849L3461.59 774.318C3457.48 775.59 3454.1 776.324 3451.46 776.52L3449.55 775.345C3442.11 764.089 3436.49 755.231 3432.67 748.771L3418.87 748.918V752.589L3419.16 775.492H3408.3L3408.74 753.47L3408.3 702.377L3433.26 702.23C3440.99 702.23 3446.91 704.041 3451.02 707.662C3455.23 711.284 3457.33 716.52 3457.33 723.372C3457.33 728.364 3455.96 732.817 3453.22 736.732C3450.58 740.647 3446.81 743.731 3441.92 745.982ZM3419.01 739.815L3432.82 740.256C3441.53 737.809 3445.88 732.475 3445.88 724.253C3445.88 719.946 3444.61 716.716 3442.06 714.563C3439.52 712.409 3435.65 711.235 3430.47 711.039L3419.16 711.186L3419.01 739.815ZM3539.42 680.648C3549.31 680.648 3557.87 682.997 3565.12 687.695L3562.77 698.413L3561.45 698.706C3554.89 693.225 3547.35 690.485 3538.84 690.485C3529.54 690.485 3522.39 693.715 3517.4 700.175C3512.41 706.537 3509.91 715.884 3509.91 728.217C3509.91 740.647 3512.41 750.142 3517.4 756.7C3522.39 763.257 3529.44 766.536 3538.54 766.536C3542.85 766.536 3547.11 765.753 3551.32 764.187C3555.62 762.621 3559.54 760.419 3563.06 757.58L3564.53 758.314L3563.5 769.473C3554.99 774.171 3546.32 776.52 3537.52 776.52C3524.89 776.52 3515.1 772.458 3508.15 764.334C3501.2 756.112 3497.73 744.416 3497.73 729.245C3497.73 713.682 3501.35 701.692 3508.59 693.274C3515.84 684.857 3526.11 680.648 3539.42 680.648ZM3620.99 767.27L3620.25 775.492H3581.35L3581.79 753.47L3581.35 702.377H3592.36L3591.92 752.589L3592.21 766.243H3620.4L3620.99 767.27ZM3693.95 775.492H3682.94L3681.17 767.564L3677.36 756.7L3659.89 756.553L3644.32 756.7L3640.36 766.977L3638.3 775.492H3627.44L3655.63 702.377H3668.25L3693.95 775.492ZM3674.27 747.744L3662.09 713.095H3661.21L3647.85 747.744L3660.77 747.89L3674.27 747.744ZM3765.91 739.522V750.093C3766 758.412 3763.46 764.872 3758.27 769.473C3753.18 774.073 3745.84 776.373 3736.25 776.373C3726.75 776.373 3719.51 774.122 3714.52 769.619C3709.53 765.019 3707.13 758.51 3707.33 750.093L3707.47 738.935L3707.33 702.377H3718.34L3717.75 748.331C3717.65 754.497 3719.17 759.146 3722.3 762.279C3725.53 765.411 3730.33 766.977 3736.69 766.977C3742.95 766.977 3747.7 765.411 3750.93 762.279C3754.16 759.146 3755.73 754.497 3755.63 748.331L3755.19 702.377H3766.35L3765.91 739.522ZM3818.88 701.79C3830.04 701.79 3838.56 704.775 3844.43 710.746C3850.4 716.716 3853.38 725.28 3853.38 736.439C3853.38 749.261 3850.15 759.098 3843.69 765.949C3837.23 772.801 3827.98 776.226 3815.95 776.226C3812.52 776.226 3808.41 776.128 3803.61 775.933C3798.91 775.835 3794.46 775.688 3790.25 775.492L3790.69 753.47L3790.25 702.377L3818.88 701.79ZM3817.71 767.27C3825.54 767.27 3831.56 764.921 3835.77 760.223C3840.07 755.427 3842.23 748.233 3842.23 738.641C3842.23 729.245 3840.22 722.295 3836.21 717.793C3832.19 713.29 3826.12 711.039 3818 711.039C3813.2 711.039 3807.58 711.235 3801.12 711.626L3800.82 752.589L3800.97 766.389C3803.81 766.585 3806.79 766.781 3809.93 766.977C3813.06 767.173 3815.65 767.27 3817.71 767.27ZM3918.04 766.096L3918.92 766.977L3917.9 775.492H3873.41L3873.85 753.47L3873.41 702.377H3918.19L3918.92 703.258L3918.04 711.773L3899.54 711.186L3884.28 711.333L3884.13 733.502L3898.66 733.649L3911.44 733.209L3912.17 734.236L3911.29 742.899L3897.78 742.458L3884.13 742.605L3883.98 752.589L3884.13 766.536L3898.52 766.683L3918.04 766.096Z" fill="white"/>
<path d="M3744.56 857.611C3748.81 858.453 3750.94 860.713 3750.94 864.391C3750.94 867.149 3749.86 869.217 3747.72 870.596C3745.57 871.975 3742.43 872.665 3738.29 872.665C3735.81 872.665 3733.41 872.607 3731.11 872.492L3731.29 863.874L3731.11 843.878L3740.08 843.821C3742.95 843.821 3745.17 844.434 3746.74 845.659C3748.35 846.847 3749.15 848.551 3749.15 850.773C3749.15 852.42 3748.75 853.818 3747.95 854.968C3747.14 856.117 3746.01 856.998 3744.56 857.611ZM3744.62 851.29C3744.62 849.873 3744.16 848.839 3743.24 848.188C3742.32 847.536 3740.84 847.211 3738.81 847.211H3735.31L3735.25 856.059L3740.36 856.232C3741.78 855.925 3742.83 855.389 3743.52 854.623C3744.25 853.818 3744.62 852.708 3744.62 851.29ZM3738.81 869.389C3741.3 869.389 3743.2 868.968 3744.5 868.125C3745.84 867.244 3746.51 865.961 3746.51 864.276C3746.51 862.897 3746.05 861.824 3745.13 861.058C3744.21 860.292 3742.81 859.775 3740.94 859.507L3735.25 859.564L3735.19 863.529L3735.31 869.217C3736.49 869.332 3737.66 869.389 3738.81 869.389ZM3768.77 864.276L3768.94 872.492H3764.63L3764.86 864.276L3764.81 862.495L3755.1 843.878H3759.81L3760.38 845.544L3766.82 857.84H3767.11L3774.12 845.717L3774.86 843.878H3779.46L3768.83 862.495L3768.77 864.276ZM3805.64 835.374C3808.29 835.374 3811.02 835.949 3813.86 837.098L3813.11 841.522L3812.31 841.752C3811.2 840.91 3810.01 840.258 3808.74 839.799C3807.52 839.339 3806.29 839.109 3805.07 839.109C3803.65 839.109 3802.41 839.397 3801.33 839.971C3800.3 840.546 3799.49 841.293 3798.92 842.212C3798.38 843.131 3798.12 844.089 3798.12 845.085C3798.12 846.119 3798.42 847.038 3799.03 847.843C3799.69 848.609 3800.49 849.279 3801.45 849.854C3802.41 850.428 3803.71 851.118 3805.35 851.922C3807.42 852.88 3809.09 853.78 3810.35 854.623C3811.62 855.427 3812.69 856.461 3813.57 857.726C3814.49 858.99 3814.95 860.522 3814.95 862.322C3814.95 864.237 3814.43 865.999 3813.4 867.608C3812.36 869.217 3810.91 870.5 3809.03 871.458C3807.16 872.416 3805.01 872.894 3802.6 872.894C3800.99 872.894 3799.3 872.684 3797.54 872.262C3795.82 871.803 3794.21 871.152 3792.71 870.309L3793.29 865.597L3793.92 865.31C3795.26 866.612 3796.74 867.589 3798.34 868.24C3799.99 868.853 3801.56 869.16 3803.06 869.16C3804.51 869.16 3805.8 868.872 3806.91 868.298C3808.06 867.723 3808.92 866.957 3809.49 865.999C3810.1 865.042 3810.41 864.027 3810.41 862.954C3810.41 861.345 3809.8 860.062 3808.57 859.105C3807.35 858.109 3805.49 857.036 3803 855.887C3800.97 854.891 3799.34 854.01 3798.12 853.244C3796.89 852.439 3795.84 851.424 3794.95 850.199C3794.07 848.935 3793.63 847.402 3793.63 845.602C3793.63 843.725 3794.13 842.001 3795.13 840.431C3796.16 838.86 3797.58 837.634 3799.38 836.753C3801.22 835.834 3803.31 835.374 3805.64 835.374ZM3833.72 843.591C3836.9 843.591 3839.66 844.261 3841.99 845.602L3841.19 849.567L3840.67 849.739C3839.72 848.935 3838.6 848.302 3837.34 847.843C3836.08 847.383 3834.72 847.153 3833.26 847.153C3830.43 847.153 3828.26 848.073 3826.77 849.911C3825.27 851.712 3824.53 854.412 3824.53 858.013C3824.53 861.652 3825.27 864.429 3826.77 866.344C3828.26 868.259 3830.43 869.217 3833.26 869.217C3834.64 869.217 3836.02 868.987 3837.4 868.528C3838.82 868.03 3840.08 867.378 3841.19 866.574L3841.71 866.746L3841.3 870.711C3838.7 872.128 3835.96 872.837 3833.09 872.837C3828.87 872.837 3825.64 871.592 3823.38 869.102C3821.12 866.574 3819.99 862.993 3819.99 858.358C3819.99 853.646 3821.18 850.007 3823.55 847.441C3825.96 844.874 3829.35 843.591 3833.72 843.591ZM3860.26 843.533C3864.44 843.533 3867.64 844.759 3869.86 847.211C3872.12 849.662 3873.25 853.129 3873.25 857.611C3873.25 862.475 3872.04 866.248 3869.63 868.93C3867.25 871.573 3863.85 872.894 3859.4 872.894C3855.26 872.894 3852.07 871.649 3849.81 869.16C3847.55 866.631 3846.42 863.05 3846.42 858.415C3846.42 853.665 3847.62 850.007 3850.04 847.441C3852.45 844.836 3855.86 843.533 3860.26 843.533ZM3859.86 847.153C3856.84 847.153 3854.58 848.015 3853.08 849.739C3851.63 851.463 3850.9 854.182 3850.9 857.898C3850.9 861.882 3851.63 864.774 3853.08 866.574C3854.54 868.374 3856.76 869.275 3859.75 869.275C3862.81 869.275 3865.09 868.394 3866.58 866.631C3868.08 864.869 3868.83 862.111 3868.83 858.358C3868.83 854.489 3868.08 851.654 3866.58 849.854C3865.13 848.053 3862.89 847.153 3859.86 847.153ZM3896.78 844.223L3896.5 847.843L3891.15 847.441H3888.28L3888.11 863.529L3888.28 872.492H3883.97L3884.14 863.874L3884.03 847.441H3881.16L3875.7 847.843L3875.35 847.441L3875.7 843.878H3896.55L3896.78 844.223ZM3921.87 844.223L3921.58 847.843L3916.23 847.441H3913.36L3913.19 863.529L3913.36 872.492H3909.05L3909.22 863.874L3909.11 847.441H3906.24L3900.78 847.843L3900.43 847.441L3900.78 843.878H3921.64L3921.87 844.223Z" fill="white"/>
<path d="M614.667 34.6667V69.3333H647.333H680V111.333V153.333H508H336V356V558.667H321.333H306.667V416V273.333H153.333C44.2667 273.333 0 273.733 0 274.8C0 275.6 4.93334 281.467 11.0667 287.867C17.0667 294.267 27.4667 305.467 34.1333 312.8C40.8 320 56.6667 337.067 69.3333 350.667C82 364.267 93.8667 377.333 95.7333 379.733L99.0667 384L91.8667 392.4C88 396.933 82.4 403.067 79.3333 406C76.4 408.933 68 418 60.6667 426C46.2667 441.733 34.8 454.133 14 476.4C6.66667 484.267 0.533333 491.2 0.266666 492C-0.133334 492.933 38.1333 493.333 115.867 493.333C200.933 493.333 232.133 493.733 232.8 494.8C233.333 495.733 234 510.4 234.4 527.467L235.067 558.667H211.467H188V661.333V764H212.667H237.333V785.333V806.667H274.133H310.933L310 785.333L308.933 764H322.533H336V863.333V962.667H374.667H413.333V1066V1169.33H451.333H489.333V1066V962.667H524.667H560V1066V1169.33H598H636V1066V962.667H779.333H922.667V1066V1169.33H960.667H998.667V1066V962.667H1034H1069.33V1066V1169.33H1107.33H1145.33V1066V962.667H1184H1222.67L1222.93 863.733L1223.33 764.667L1297.07 764.267L1370.67 764V661.333V558.667L1297.07 558.4L1223.33 558L1222.93 355.6L1222.67 153.333H1062.67H902.667V111.333V69.3333H934.667H966.667V34.6667V0H896.667H826.667V76.6667V153.333H791.333H756V76.6667V0H685.333H614.667V34.6667ZM560 458.667V558.667H524.667H489.333V459.6C489.333 405.067 489.733 360 490.267 359.6C490.667 359.067 506.667 358.667 525.6 358.667H560V458.667ZM1069.07 458.933L1069.33 558.667H1034H998.667V459.6C998.667 405.067 999.067 360 999.6 359.6C1000.13 359.067 1015.87 358.8 1034.53 358.933L1068.67 359.333L1069.07 458.933Z" fill="#8798C3"/>
</svg>
