<svg width="1241" height="1241" viewBox="0 0 1241 1241" fill="none" xmlns="http://www.w3.org/2000/svg">
<rect width="1241" height="1241" rx="244" fill="#2D3341"/>
<path d="M515.803 206.158V232.316H540.452H565.101V264.007V295.699H435.317H305.532V448.623V601.548H294.465H283.399V493.897V386.246H167.699C85.4019 386.246 52 386.548 52 387.353C52 387.957 55.7225 392.384 60.3505 397.213C64.8779 402.042 72.7253 410.493 77.7556 416.026C82.7861 421.459 94.7585 434.337 104.316 444.599C113.874 454.861 122.828 464.72 124.237 466.531L126.752 469.751L121.319 476.089C118.401 479.51 114.176 484.138 111.862 486.351C109.648 488.565 103.31 495.406 97.7767 501.443C86.911 513.314 78.2587 522.671 62.5639 539.472C57.0304 545.409 52.4024 550.64 52.2012 551.244C51.8994 551.948 80.7739 552.249 139.429 552.249C203.616 552.249 227.158 552.551 227.662 553.356C228.064 554.06 228.567 565.127 228.869 578.006L229.372 601.548H211.565H193.857V679.016V756.484H212.47H231.082V772.581V788.679H258.85H286.618L285.914 772.581L285.109 756.484H295.371H305.532V831.437V906.39H334.709H363.885V984.361V1062.33H392.558H421.231V984.361V906.39H447.893H474.554V984.361V1062.33H503.227H531.9V984.361V906.39H640.054H748.208V984.361V1062.33H776.881H805.554V984.361V906.39H832.215H858.874V984.361V1062.33H887.547H916.221V984.361V906.39H945.399H974.578L974.774 831.739L975.076 756.987L1030.72 756.685L1086.25 756.484V679.016V601.548L1030.72 601.346L975.076 601.045L974.774 448.322L974.578 295.699H853.849H733.117V264.007V232.316H757.263H781.409V206.158V180H728.589H675.77V237.85V295.699H649.108H622.448V237.85V180H569.125H515.803V206.158ZM474.554 526.092V601.548H447.893H421.231V526.796C421.231 485.647 421.533 451.642 421.936 451.34C422.238 450.938 434.311 450.636 448.597 450.636H474.554V526.092ZM858.678 526.293L858.874 601.548H832.215H805.554V526.796C805.554 485.647 805.856 451.642 806.258 451.34C806.658 450.938 818.535 450.736 832.615 450.837L858.376 451.138L858.678 526.293Z" fill="#8798C3"/>
</svg>
