<svg width="1371" height="1170" viewBox="0 0 1371 1170" fill="none" xmlns="http://www.w3.org/2000/svg">
<path d="M614.667 34.6667V69.3333H647.333H680V111.333V153.333H508H336V356V558.667H321.333H306.667V416V273.333H153.333C44.2667 273.333 0 273.733 0 274.8C0 275.6 4.93334 281.467 11.0667 287.867C17.0667 294.267 27.4667 305.467 34.1333 312.8C40.8 320 56.6667 337.067 69.3333 350.667C82 364.267 93.8667 377.333 95.7333 379.733L99.0667 384L91.8667 392.4C88 396.933 82.4 403.067 79.3333 406C76.4 408.933 68 418 60.6667 426C46.2667 441.733 34.8 454.133 14 476.4C6.66667 484.267 0.533333 491.2 0.266666 492C-0.133334 492.933 38.1333 493.333 115.867 493.333C200.933 493.333 232.133 493.733 232.8 494.8C233.333 495.733 234 510.4 234.4 527.467L235.067 558.667H211.467H188V661.333V764H212.667H237.333V785.333V806.667H274.133H310.933L310 785.333L308.933 764H322.533H336V863.333V962.667H374.667H413.333V1066V1169.33H451.333H489.333V1066V962.667H524.667H560V1066V1169.33H598H636V1066V962.667H779.333H922.667V1066V1169.33H960.667H998.667V1066V962.667H1034H1069.33V1066V1169.33H1107.33H1145.33V1066V962.667H1184H1222.67L1222.93 863.733L1223.33 764.667L1297.07 764.267L1370.67 764V661.333V558.667L1297.07 558.4L1223.33 558L1222.93 355.6L1222.67 153.333H1062.67H902.667V111.333V69.3333H934.667H966.667V34.6667V0H896.667H826.667V76.6667V153.333H791.333H756V76.6667V0H685.333H614.667V34.6667ZM560 458.667V558.667H524.667H489.333V459.6C489.333 405.067 489.733 360 490.267 359.6C490.667 359.067 506.667 358.667 525.6 358.667H560V458.667ZM1069.07 458.933L1069.33 558.667H1034H998.667V459.6C998.667 405.067 999.067 360 999.6 359.6C1000.13 359.067 1015.87 358.8 1034.53 358.933L1068.67 359.333L1069.07 458.933Z" fill="#8798C3"/>
</svg>
